<?xml version="1.0" standalone="no"?>
<!DOCTYPE svg PUBLIC "-//W3C//DTD SVG 1.1//EN" "http://www.w3.org/Graphics/SVG/1.1/DTD/svg11.dtd" >
<svg xmlns="http://www.w3.org/2000/svg" xmlns:xlink="http://www.w3.org/1999/xlink" version="1.1">
<metadata>
Created by FontForge 20170731 at Fri Mar  3 14:21:06 2017
 By ,,,
Copyright (c) 2017 by Octotype. All rights reserved.
</metadata>
<defs>
<font id="MidnightStreet" horiz-adv-x="207" >
  <font-face 
    font-family="Midnight Street "
    font-weight="400"
    font-stretch="normal"
    units-per-em="1000"
    panose-1="0 0 0 0 0 0 0 0 0 0"
    ascent="750"
    descent="-250"
    x-height="242"
    cap-height="476"
    bbox="-311.455 -420.667 1009.2 616"
    underline-thickness="50"
    underline-position="-150"
    unicode-range="U+0020-FB02"
  />
<missing-glyph horiz-adv-x="196" 
 />
    <glyph glyph-name=".notdef" horiz-adv-x="196" 
 />
    <glyph glyph-name=".null" horiz-adv-x="0" 
 />
    <glyph glyph-name="nonmarkingreturn" horiz-adv-x="333" 
 />
    <glyph glyph-name="space" unicode=" " horiz-adv-x="196" 
 />
    <glyph glyph-name="exclam" unicode="!" horiz-adv-x="246" 
d="M367 471q-5 -12 -11 -25.5t-15 -27.5q-7 -12 -24 -38t-39.5 -59.5t-47.5 -71t-47.5 -72t-41 -62t-26.5 -40.5q-5 -8 -9 -16q-4 -7 -8 -15.5t-6 -16.5q-4 -10 -3 -16.5t-1 -11.5q0 -2 -2 -3t-3 -1t-3.5 5.5t-5.5 13.5t-7 16.5t-8 13.5l-4 11q1 -2 4.5 8.5t17.5 31.5
q4 6 18.5 28.5t35.5 53.5t45 67t45.5 69t39 59.5t24.5 38.5l18 31.5t16 34.5q3 12 4 22.5t-1 18.5q-1 0 -1 1t-0.5 1.5t0.5 2.5q2 4 7 4h-1q-1 -1 3.5 -6t10.5 -11t11 -12.5t7 -10.5q2 -3 2.5 -6t2.5 -5q1 -3 3 -5zM-36 -67q11 1 22 10t20 20t15 22t8 16t-0.5 6.5t-5.5 2
t-5 1.5t0 7q1 3 4.5 3h6.5q7 -2 6.5 -1.5t5.5 -1.5q2 0 3.5 -0.5t3.5 -0.5q18 -2 22 -13t-3 -32q-4 -10 -9.5 -20.5t-16 -18t-28 -11.5t-44.5 0q-4 0 -8 0.5t-3 4.5q2 6 6 6z" />
    <glyph glyph-name="numbersign" unicode="#" horiz-adv-x="635" 
d="M545 120q-12 -4 -26 -5.5t-30 -2.5h-22t-32 1l-20 -40q-8 -15 -12 -28q-4 -11 -6.5 -23.5t0.5 -19.5q0 -1 1 -2q0 -1 0.5 -1.5t-0.5 -2.5q-4 -4 -6 -3q-2 0 -5.5 5.5t-8 13t-9 14.5t-7.5 10l-6 10q1 -1 3.5 9.5t13.5 32.5q2 3 5 10t9 18q-47 2 -98.5 4t-95.5 4l-25 -51
q-8 -15 -12 -28q-4 -11 -6.5 -23.5t0.5 -19.5q0 -1 1 -2q0 -1 0.5 -1.5t-0.5 -2.5q-4 -4 -6 -3q-2 0 -5.5 5.5t-8 13t-9 14.5t-7.5 10l-6 10q1 -1 3.5 9.5t13.5 32.5q4 10 19 37q-9 1 -16.5 1h-12.5q-15 0 -29 -2q-12 -2 -24 -5t-19 -9l-2 -2q-1 -1 -5 -1q-3 1 -3 4
q0 1 5.5 7.5t13 14t14.5 15t10 12.5l9 10q-1 -1 9.5 1t33.5 2h14.5t26.5 -1l100 192q-10 1 -18 1h-13q-15 0 -29 -2q-12 -2 -24.5 -5t-19.5 -9l-2 -2q-1 -1 -4 -1q-6 1 -3 4q0 1 5.5 7t12.5 13.5t13.5 15t9.5 12.5l10 11q-1 -1 9.5 1t33.5 2q4 0 15 -0.5t28 -1.5l4 9
q6 12 12.5 27.5t10.5 30.5t5 28.5t-5 21.5q-1 0 -1 1q-2 2 0 5q1 3 4 3q0 -1 5.5 -5.5t12.5 -9.5t13 -10.5t8 -9.5q2 -2 3.5 -4.5t3.5 -4.5q2 -3 3 -5q-2 -12 -7 -26t-11 -28l-13 -25q46 -2 99 -4t95 -3l9 18q6 12 12.5 27.5t10.5 30.5t5 28.5t-5 21.5q-1 0 -1 1q-2 2 0 5
q1 3 4 3q0 -1 5.5 -5.5t12.5 -9.5t13 -10.5t8 -9.5q2 -2 3.5 -4.5t3.5 -4.5q2 -3 3 -5q-2 -12 -7 -26t-11 -28l-17 -33h10q12 0 28 0.5t31.5 3.5t29 8.5t21.5 14.5q0 1 1 2q2 2 5 2q5 0 3 -4q-1 0 -4.5 -7.5t-9 -16.5t-10.5 -17.5t-9 -11.5l-4 -6t-4 -5l-5 -5
q-13 -3 -27.5 -4.5t-28.5 -2.5h-21.5t-31.5 1l-99 -191h13q13 0 28.5 1t31 4t29 8.5t21.5 14.5l1 1q2 2 5 2q2 0 2 -4q-1 0 -4.5 -7t-9 -16t-10.5 -17.5t-9 -11.5l-4 -6t-4 -5zM217 170q45 -2 98.5 -4t95.5 -4q11 22 24 46.5t26.5 50t26.5 50.5t24 46q-47 2 -98.5 4t-95.5 4
zM591 188h1h-1z" />
    <glyph glyph-name="dollar" unicode="$" horiz-adv-x="407" 
d="M367 338q-19 -9 -34 -21.5t-15 -26.5l3 -3v-1q0 -1 -1 -2q0 -3 -3 0q-1 0 -2 1t-2 1q-2 2 -5 8t1 19q2 8 15.5 21.5t33.5 27.5l2 2l16 10l10 5q-10 2 -20.5 3t-21.5 0l-5 -10q-7 -10 -21 -32.5t-32 -51.5q4 -8 10 -15q45 -5 68.5 -18t26.5 -15v-2l-3 -5l-1 -1h-1
q-41 12 -77 15q6 -14 10 -30t2.5 -34t-10.5 -36.5t-28 -37.5q-33 -31 -69 -41.5t-68 -7.5q-4 -9 -7 -17.5t-2 -13.5q1 0 1 -1q0 -3 -1 -4q-3 -3 -5 -3q-1 1 -2 6t-2.5 12t-3.5 13.5t-3 9.5l-1 4q-22 6 -36.5 18t-19.5 27q-7 20 1 46.5t28.5 51t53.5 42.5t77 23h9.5t9.5 1
l15 24q-7 11 -9 21.5t-2 18.5q0 9 3 17q9 21 29.5 34t43.5 20q5 14 8 26t1 20v1q0 1 -0.5 1.5t0.5 2.5l4 2q-1 -1 2 -5t7 -9.5t7.5 -11t3.5 -8.5l3 -12q9 1 17 1.5t14 -0.5q14 -2 18.5 -9.5t6.5 -15.5q17 4 24 3q4 -1 6 -2l12 -10q5 -4 8 -8t4 -5q4 -6 2 -8h-3h-1q-1 0 0 1
q-5 3 -12.5 3t-15.5 -2q-9 -2 -18 -5q-14 -5 -27.5 -10.5t-26.5 -11.5zM285 248h-13t-12 -1q-15 -23 -29.5 -46t-27.5 -43t-23.5 -37t-16.5 -28h4q27 1 49.5 11t38.5 23.5t25.5 29.5t12.5 29q6 30 -8 62zM81 144q-2 -19 7.5 -32.5t40.5 -17.5l7 10q2 4 10.5 17.5t20.5 32.5
t26.5 42t29.5 47q-33 -6 -59 -19t-44 -27.5t-28 -28.5t-11 -24zM295 372q-22 -11 -25.5 -25t1.5 -27q10 15 16.5 27t11.5 19l6 10q-3 -1 -5.5 -2t-4.5 -2z" />
    <glyph glyph-name="percent" unicode="%" horiz-adv-x="248" 
d="M313 487q-2 -12 -7 -26t-11 -28q-6 -12 -20.5 -39.5t-33 -63t-39 -74.5t-39.5 -75t-33.5 -65l-21.5 -43q-8 -15 -12 -28q-4 -11 -6.5 -23.5t0.5 -19.5q0 -1 1 -2q0 -1 0.5 -1.5t-0.5 -2.5q-4 -4 -6 -3q-2 0 -5.5 5.5t-8 13t-9 14.5t-7.5 10l-6 10q1 -1 3.5 9.5t13.5 32.5
q3 6 15.5 29.5t29.5 56t37 70.5t38 72.5t32 62t20 40.5q6 12 12.5 27.5t10.5 30.5t5 28.5t-5 21.5q-1 0 -1 1q-2 2 0 5q1 3 5 3q-2 0 3 -3.5t12 -9.5l14 -12t9 -10q2 -2 3.5 -4.5t3.5 -4.5q2 -3 3 -5zM203 510q9 -5 11 -15.5t0 -21.5t-9 -26t-17.5 -28.5t-23.5 -22.5t-28 -9
q-21 1 -26 17.5t17 53.5q11 19 20.5 29.5t16.5 15.5q8 6 15 7h9h15zM198 499q-11 -6 -19.5 -18t-15.5 -22q-17 -29 -19.5 -41t-0.5 -15v-1q0 -2 2 -2q6 1 12.5 7t13.5 14t13 18t11 19q1 2 2.5 8.5t2.5 13t1 12.5t-2 7h-1zM250 151q8 -5 10.5 -15.5t0.5 -21.5q-3 -11 -10 -26
t-17.5 -28.5t-23.5 -22.5t-28 -9q-20 1 -25 17.5t17 53.5q11 19 20.5 29.5t16.5 15.5q8 6 15 7h9h15zM244 140q-11 -6 -19 -18t-15 -22q-17 -29 -19.5 -41t-0.5 -15v-1q0 -2 1 -2q12 2 26.5 21t24.5 37q1 2 2.5 8.5t2.5 13t1 12.5t-3 7h-1z" />
    <glyph glyph-name="quotesingle" unicode="'" horiz-adv-x="148" 
d="M245 370q11 3 21 13t18 22t13 23t6 16t-1.5 6t-5.5 1t-5 1t-1 7q1 4 9.5 4t7.5 0q27 0 35 -8t3 -34q-2 -10 -8 -21t-17.5 -20t-28 -15t-40.5 -5h-7.5t-3.5 4q1 6 5 6z" />
    <glyph glyph-name="parenleft" unicode="(" horiz-adv-x="252" 
d="M20 -78q-12 19 -11.5 42.5t11.5 51.5q11 30 37.5 68t61 79.5t74 83.5t78 78.5t72 65t56.5 44.5q53 36 87 49t54 13q25 0 37 -8t5 -27q-3 -8 -8 -11t-9 -2.5t-7.5 3t-3.5 5.5q-2 6 -1.5 9t-4.5 3q-21 0 -74.5 -35t-125.5 -95q-19 -16 -46 -43t-56.5 -59.5t-60 -68.5
t-56.5 -70t-45 -63t-26 -49q-5 -13 -7.5 -22.5t0 -14t11 -4t25.5 6.5t21 -1.5t-7 -16.5q-7 -6 -18.5 -11.5t-23.5 -8t-23 -1t-16 8.5z" />
    <glyph glyph-name="parenright" unicode=")" horiz-adv-x="352" 
d="M420 478q12 -19 11.5 -42.5t-11.5 -51.5q-11 -30 -37.5 -68t-61 -79.5t-74 -83.5t-78 -78.5t-72.5 -65.5t-56 -44q-52 -36 -86 -49t-54 -13q-25 0 -37 8t-5 27q7 16 17 13.5t11 -8.5q2 -6 1.5 -9t4.5 -3q21 0 74 35t125 95q19 16 46 43t56.5 59.5t60 68.5t56.5 70t45 63
t26 49q5 13 7.5 22.5t0 14t-11 4t-25.5 -6.5t-21 1.5t7 16.5q7 6 18.5 11.5t23.5 8t23 1t16 -8.5z" />
    <glyph glyph-name="asterisk" unicode="*" horiz-adv-x="348" 
d="M270 574q6 -11 9 -23t5 -26l1 -14q11 25 19 53t0 43q-1 0 -1 1q-2 2 0 5q1 3 4 3q0 -1 5.5 -5.5t12.5 -9.5t12.5 -10.5t7.5 -9.5q3 -3 7 -9q2 -3 3 -5q-2 -13 -7 -26.5t-11 -27.5l-9 -16q20 14 38 30.5t22 33.5v2q0 2 4 3q2 2 4 -1q0 -1 0.5 -8t1 -16t0 -18t-1.5 -13
t-1 -7t-1 -6q-1 -4 -1 -6q-8 -8 -17 -15t-20 -14q22 2 43 7.5t32 19.5l1 1q2 2 5 2q5 0 3 -4q-1 0 -4.5 -7t-9 -16t-10.5 -17.5t-9 -11.5q-2 -3 -4.5 -6t-4.5 -5q-3 -3 -4 -5q-13 -4 -27.5 -5.5t-28.5 -1.5h-25t-24 1l2 -22t3 -22q2 -15 6 -27q3 -11 7 -20.5t11 -13.5
q1 -1 2 -1q2 -2 2 -3q2 -5 -3 -5q-2 0 -8.5 1.5t-14.5 4.5t-16.5 5.5t-14.5 3.5l-11 3q-1 0 -7 30q-5 -12 -10.5 -30.5t-1.5 -28.5q0 -1 1 -2q0 -1 0.5 -1.5t-0.5 -2.5q-4 -4 -6 -3q-2 0 -5.5 5.5t-8 13t-9 14.5t-7.5 11l-6 9q1 0 4 10t14 32q2 3 3.5 6.5t3.5 7.5l-31 -17
q-15 -9 -27 -18q-11 -8 -20 -17t-12 -17q0 -1 -1 -2q-2 -2 -4 -3q-5 -2 -5 1q-1 1 0.5 8.5t4 16.5t4.5 18.5t2 14.5l4 12q-1 -1 8.5 6.5t30.5 20.5l16 9h-10q-15 0 -29 -2q-12 -2 -24 -5t-19 -9l-2 -2q-1 -1 -5 -1q-3 1 -3 4q0 1 5.5 7.5t12.5 14l14 15t10 12.5l10 10
q-1 -1 9.5 1t33.5 2q8 0 21 -1t27 -3l-2 18q-2 12 -4.5 26.5t-7 27.5t-12 23t-17.5 13q-1 -1 -2 0q-2 0 -2 4q2 5 3 5q1 -1 8.5 -1h16.5t18 -0.5t13 -2.5q3 -1 6.5 -1t5.5 -1l6 -2v0z" />
    <glyph glyph-name="plus" unicode="+" horiz-adv-x="346" 
d="M293 280q-2 -13 -7 -26.5t-11 -27.5q-7 -14 -14 -26.5t-15 -25.5h12q13 0 28.5 1t31.5 4t29.5 8.5t21.5 14.5l1 1q2 2 5 2q5 0 3 -4q0 2 -3.5 -4.5t-8.5 -16t-11 -19t-10 -12.5q-2 -3 -4.5 -6t-4.5 -5q-3 -3 -4 -5q-13 -4 -27.5 -5.5t-28.5 -1.5t-27.5 0.5t-27.5 1.5
q-8 -13 -15.5 -27t-14.5 -28q-8 -15 -12 -28q-4 -11 -6.5 -23.5t0.5 -19.5q0 -1 1 -2q0 -1 0.5 -1.5t-0.5 -2.5q-4 -4 -6 -3q-2 0 -5.5 5.5t-8 13t-9 14.5t-7.5 11l-6 9q1 0 4 10t14 32q4 8 10.5 19.5t14.5 25.5q-14 1 -28.5 1.5t-29.5 0.5t-29 -2q-12 -2 -24 -5t-19 -9
l-2 -2q-1 -1 -5 -1q-3 1 -3 4q0 1 5.5 7.5t12.5 14l14 15t10 12.5l10 10q-1 -1 9.5 1t33.5 2q11 0 29.5 -2t39.5 -4q5 9 9.5 18t9.5 18q6 12 12.5 27.5t11 30.5t5 28t-4.5 22q-1 0 -1 1q-2 2 0 5q1 3 4 3q0 -1 5.5 -5.5t12.5 -9.5t12.5 -10.5t7.5 -9.5q3 -3 7 -9q2 -3 3 -5z
" />
    <glyph glyph-name="comma" unicode="," horiz-adv-x="121" 
d="M4 -56q11 3 21 13t17.5 22t12.5 23t6 16t-1 6t-5 1t-5.5 1t-0.5 7q1 4 9 4t7 0q27 0 35.5 -8t2.5 -34q-2 -10 -6 -21t-14 -20t-28 -14.5t-46 -5.5h-7t-3 4q1 6 5 6z" />
    <glyph glyph-name="hyphen" unicode="-" horiz-adv-x="460" 
d="M389 133q-13 -4 -27.5 -5.5t-28.5 -1.5q-38 0 -76 4.5t-83 4.5q-15 0 -29 -2q-12 -2 -24 -5t-19 -9l-2 -2q-1 -1 -5 -1q-3 1 -3 4q0 1 5.5 7.5t12.5 14l14 15t10 12.5l10 10q-1 -1 9.5 1t33.5 2q20 0 55 -4t73 -4q13 0 28.5 1t31.5 4t29.5 8.5t21.5 14.5l1 1q2 2 5 2
q5 0 3 -4q0 2 -3.5 -4.5t-8.5 -16t-11 -19t-10 -12.5q-2 -3 -4.5 -6t-4.5 -5q-3 -3 -4 -5z" />
    <glyph glyph-name="period" unicode="." horiz-adv-x="119" 
d="M6 -34q6 1 12 6t10.5 11.5t8.5 13.5t6 11v2q1 1 1 3t1 4t5 3t14 1q11 0 22.5 -5t7.5 -21q-5 -26 -18.5 -35t-20.5 -9q-22 0 -38 2t-15 9q0 1 2 3q1 0 2 1z" />
    <glyph glyph-name="slash" unicode="/" horiz-adv-x="190" 
d="M283 487q-2 -12 -7 -26t-11 -28q-6 -12 -20.5 -39.5t-33 -63t-39 -74.5t-39.5 -75t-33.5 -65l-21.5 -43q-8 -15 -12 -28q-4 -11 -6.5 -23.5t0.5 -19.5q0 -1 1 -2q0 -1 0.5 -1.5t-0.5 -2.5q-4 -4 -6 -3q-2 0 -5.5 5.5t-8 13t-9 14.5t-7.5 10l-6 10q1 -1 3.5 9.5t13.5 32.5
q3 6 15.5 29.5t29.5 56t37 70.5t38 72.5t32 62t20 40.5q6 12 12.5 27.5t10.5 30.5t5 28.5t-5 21.5q-1 0 -1 1q-2 2 0 5q1 3 5 3q-2 0 3 -3.5t12 -9.5l14 -12t9 -10q2 -2 3.5 -4.5t3.5 -4.5q2 -3 3 -5z" />
    <glyph glyph-name="zero" unicode="0" horiz-adv-x="435" 
d="M433 513q29 -3 47 -21q15 -16 20.5 -50t-15.5 -97q-23 -69 -56.5 -128.5t-69.5 -104.5q-36 -44 -67 -69q-13 -10 -24.5 -16.5t-23.5 -12.5q-20 -9 -43 -15.5t-49 -6.5q-8 0 -14.5 0.5t-13.5 1.5q-2 0 -12.5 2.5t-24.5 12.5q-12 9 -24.5 28.5t-14.5 54.5q1 5 0.5 11
t0.5 11v10t2 10v1v1q0 4 1.5 7.5t1.5 6.5q5 21 18.5 52t39.5 73q25 40 59.5 79.5t73 71.5t79.5 54.5t79 29.5q13 3 28 3h2zM411 298q31 65 35 101.5t-3 53.5q-9 20 -29 23q-22 0 -50.5 -12.5t-62.5 -40.5t-72.5 -73t-79.5 -109q-22 -34 -34 -61.5t-16.5 -48.5t-3 -37
t6.5 -28q11 -27 40 -39q28 -6 62 10t69.5 52t70.5 89t67 120z" />
    <glyph glyph-name="one" unicode="1" horiz-adv-x="441" 
d="M338 76q5 0 3.5 -4t-3.5 -9q-1 -2 -5.5 -10t-10.5 -17q-7 -11 -15 -24l-5 -5q-6 -6 -17 -10q-11 -5 -27 -7.5t-39 -1.5q-7 0 -14 0.5t-14 1.5q-5 1 -10 1.5t-10 1.5q-17 2 -36 3t-39 1q-14 0 -27 -2q-11 -2 -22.5 -6t-18.5 -11l-2 -2q-2 -2 -5 -1q-4 1 -2 4.5t4 8.5
q1 2 7 9.5t13 15.5l18 22l2 2q1 1 2 1.5t2 1.5q8 5 27 9t54 -3q0 1 1 1.5t1 1.5q2 3 3 6t3 8q10 25 31 60t47 73.5t55 77t55 69.5q11 14 25.5 31.5t28.5 34.5q-14 -6 -25 -6q-7 -1 -11 -0.5t-7 1.5q-4 1 -6 2q-9 9 -17 16q-7 6 -12.5 11.5t-6.5 7.5q-2 3 -3.5 6.5t3.5 5.5
q1 1 4 1q1 0 2 -1q6 -5 17.5 -5t22.5 2q13 3 28 7q20 7 36 14.5t36 18.5q9 6 15.5 10t13.5 9q-1 0 3 2l3 2q6 3 11 3q1 -1 3 -1q4 -1 8.5 -2t9.5 -2t11 -2q2 -1 4 -3q3 -3 -1 -9q-3 -5 -7 -9.5t-6 -6.5q0 -1 -1 -1t-1 -1q-1 -1 -1 -2q-9 -10 -33 -37.5t-56 -64.5t-67.5 -80
t-65.5 -84q-6 -9 -18.5 -27.5t-27 -41t-28 -46t-21.5 -41.5q-2 -5 -4.5 -10t-4.5 -10q17 2 34 3.5t34 4.5q14 3 27 7q11 4 22 9t17 13l2 2q2 2 4 2z" />
    <glyph glyph-name="two" unicode="2" horiz-adv-x="407" 
d="M443 509q30 -9 42.5 -33.5t5 -58.5t-36 -74.5t-81.5 -81.5v-1h-1q-44 -33 -91.5 -70.5t-90.5 -71t-77 -61t-49 -40.5q45 1 94 6t103 16q26 6 49 15q19 8 37 20t23 30q0 6 4 6t4.5 -1t1.5 -2l-4 -71q-1 -6 -4 -11q-2 -5 -6.5 -10.5t-12.5 -9.5q-2 -1 -2.5 -1t-2.5 -1
q-1 0 -1.5 -0.5t-1.5 -0.5q-21 -9 -54.5 -14t-74.5 -7t-87.5 -1t-93.5 4q-5 0 -6 1q-4 0 -4 1q-1 0 0 1l-3 13q-2 3 -3 7.5t-3 9.5q0 6 -2 8q-2 5 3 12.5t10 11.5l8 8q3 3 6 5q11 11 32 28t45 35t47 35t38 29q24 19 55 42.5t66 49.5q23 19 48 45t44.5 52.5t29.5 49.5t3 35
q-6 10 -21.5 9t-36.5 -9t-43.5 -20.5t-41.5 -24.5t-32.5 -21.5t-15.5 -10.5q-20 -15 -37 -35t-14 -40q0 -7 -3 -8q-4 -2 -5 -1l-2 2l-25 61q-2 5 -1 11q1 5 3.5 11t8.5 13l3 3l3 2q5 5 13 11t17 12q43 29 84 49q18 9 36.5 16.5t37 12.5t35.5 6t31 -3z" />
    <glyph glyph-name="three" unicode="3" horiz-adv-x="417" 
d="M448 509q28 -9 41 -32t8 -55t-30 -70.5t-71 -77.5q12 -8 22.5 -24t10.5 -44q1 -30 -19.5 -70t-58 -74t-90.5 -54.5t-116 -12.5q-23 3 -42 14q-17 10 -32.5 29t-21.5 54q0 5 -1 10.5t-1 11.5q-2 17 1 32v18h1v5q3 17 7 24q1 1 1 3q3 3 4 5q2 4 5.5 5.5t5.5 3.5q3 1 5 2
l39 9h1q3 0 4 -1l2 -2q0 -2 -2 -4l-2 -2q-4 -2 -6 -4.5t-4 -4.5q-2 -3 -3 -6q-1 -8 -2 -14.5t-1 -12.5q-1 -5 -1 -10.5t-1 -12.5q0 -8 2 -26.5t12 -39t30.5 -36.5t58.5 -17q28 -1 57 13.5t52.5 37.5t39.5 51t19.5 54t-9.5 45.5t-46 26.5q-4 0 -7 2q-2 1 -3.5 3t0.5 4
q4 4 15.5 12t12.5 9q23 19 47 45t42.5 51t28 47t2.5 34q-6 10 -22 9t-36.5 -9t-43 -20.5t-42 -24.5t-33 -21.5t-15.5 -10.5q-19 -15 -36 -35t-14 -40q-1 -2 -1 -4.5t-2 -3.5q-7 -2 -7 1l-25 61q-2 5 -1 11q1 5 3 11t9 13q1 1 1 1.5t1 1.5l4 2h-1q11 10 31 23q43 29 84 49
q18 9 36.5 16.5t36.5 12.5t35 6t31 -3z" />
    <glyph glyph-name="four" unicode="4" horiz-adv-x="486" 
d="M579 509q2 -1 4 -3q4 -4 -1 -9q-3 -5 -7 -9.5t-6 -6.5q0 -2 -2 -2q-1 -1 -1 -2q-8 -9 -29 -33t-49.5 -57t-61 -72t-62.5 -78h8q10 1 15.5 1t11 1t12 2l19.5 3q9 2 18 4.5t17 5.5q2 1 5 3q5 3 8 9q0 1 1 3t3 2q1 0 2 -1t1 -4q-1 -5 -1 -11t-1 -12l-2 -14q-1 -2 -2 -6
q-2 -3 -3.5 -6.5t-6.5 -6.5l-2 -2q-9 -5 -20 -8q-5 -2 -12 -3q-26 -6 -52.5 -8.5t-55.5 -2.5q-9 -13 -19.5 -30t-21.5 -34.5t-21 -35t-16 -31.5q-5 -10 -8.5 -19.5t-8.5 -20.5q-1 -3 -1 -6q0 -2 0.5 -5t3.5 -5l2 -2q1 -2 -1 -4q0 -1 -0.5 -1t-0.5 -1q-5 -2 -5 0q-13 4 -23 8
q-6 3 -13 5q-3 1 -5 4q-2 2 -3 5.5t-1 9.5q2 2 0 2q1 10 7 24l7 14q9 23 28 56.5t45 69.5q-10 1 -19.5 1.5t-19.5 2.5q-8 1 -18 1.5t-21 2.5q-35 2 -64 5.5t-46 8.5q-23 7 -23.5 22.5t5.5 29.5q1 1 4.5 8t14.5 18q14 16 44.5 40t84 53t134 63t194.5 70q2 1 5 1q1 -1 3 -1
q4 -1 8.5 -2t9.5 -2t11 -2zM441 409q8 9 15.5 18t15.5 17q-26 -9 -67 -24t-86 -35q-42 -18 -83.5 -37t-72 -36t-46.5 -30t-7 -19q5 -2 11 -3.5t13 -2.5q32 -5 77.5 -10.5t92.5 -7.5h1q20 28 41 54.5t40 49.5z" />
    <glyph glyph-name="five" unicode="5" horiz-adv-x="570" 
d="M633 477q-3 -2 -7 -5q-4 -2 -10.5 -5t-15.5 -5q-16 -5 -39.5 -7.5t-59.5 -1.5q-11 0 -22 0.5t-22 1.5q-8 1 -14.5 1.5t-14.5 1.5q-17 2 -33.5 2.5t-33.5 1.5q-12 -14 -28.5 -33t-35.5 -40.5t-39 -45.5t-39 -46q32 2 71.5 0.5t77.5 -12.5q1 0 2 -0.5t2 -0.5h1
q11 -4 20 -10q12 -8 22 -24t11 -44q1 -30 -19.5 -70t-58 -74t-90.5 -54.5t-116 -12.5q-23 3 -42 14q-17 10 -32.5 29t-21.5 54q-1 5 -1.5 10.5t-0.5 11.5q-2 15 0 32q0 4 0.5 7.5t0.5 5.5v5q1 2 1 5q2 8 3 13.5t4 10.5q0 1 0.5 1.5t0.5 1.5q2 2 2 2.5t1 2.5q3 4 6 5.5t5 3.5
l6 2l39 9q4 0 5 -1l2 -2q0 -2 -2 -4l-2 -2q-4 -2 -6 -4.5t-4 -4.5q-2 -3 -3 -6q-3 -15 -3 -27q-2 -5 -2 -10.5v-12.5q0 -8 2 -26.5t11.5 -39t30.5 -36.5t58 -17q26 -1 53 11.5t49.5 33t39.5 46t23.5 50.5t0.5 46t-28 33q-1 0 -7 2.5t-17 5.5h-1h-1q-2 0 -3 1q-18 5 -46 8.5
t-67 3.5h-18t-20 -1q-2 0 -2 1l-10 14v3q0 1 1 1q1 1 1.5 2t2.5 3q6 7 20 24t30.5 36.5t31.5 37t22 26.5q11 12 21 23.5t19 22.5q-9 -1 -21 -2t-24 -3.5t-22.5 -5.5t-16.5 -8q-1 -1 -3 -2t-7 -1q-6 2 -3.5 5t5.5 8q1 2 9 9t17 15t16.5 15t9.5 8l11 11q5 1 12 2q6 1 15 1
t21 1h29l1 1l4 2q2 2 3 2q4 3 11 3q0 -1 2 -1q4 -1 8.5 -2t9.5 -2t11 -2q2 0 3 -1q2 -2 3 -4q21 -2 45.5 -3t49 -1.5t47.5 0.5t42 4q9 1 20.5 3.5t23 5.5t21.5 7.5t16 10.5q1 0 2 1q2 2 5 2q7 0 6 -4t-3 -8q-1 -2 -7 -10.5t-14 -17.5l-20 -24v0z" />
    <glyph glyph-name="six" unicode="6" horiz-adv-x="415" 
d="M492 399q-2 -16 -6 -28.5t-9 -23.5v1q0 -3 -1 -4t-1 -1.5t-1 -1.5q0 -2 -1 -2.5t-1 -1.5q-5 -7 -10 -11t-10 -6q-5 -3 -10 -4l-35 -4l-39 -5q-1 1 -2.5 1.5t-1.5 4.5q0 3 7 5q20 7 34 27t22 40q4 8 5 15.5t2 12.5q2 23 -2 36t-10 19q-7 7 -18 8q-21 0 -49.5 -12
t-61.5 -39t-71 -70.5t-78 -105.5q8 7 20.5 16.5t30 17.5t41 14t53.5 6q38 1 60 -13t33 -31q7 -13 7.5 -29.5t-2.5 -31.5l-1 -1v-2q-3 -14 -9 -28t-16.5 -33.5t-27.5 -39.5q-8 -11 -18.5 -22t-23.5 -21q-2 -2 -4.5 -4t-4.5 -4q-14 -10 -25 -16.5t-23 -12.5
q-20 -9 -43.5 -15.5t-49.5 -6.5q-7 0 -13.5 0.5t-13.5 1.5q-2 1 -12.5 3t-24.5 12q-12 9 -24.5 28.5t-14.5 54.5v11t1 12v9.5t2 9.5l-1 1v1l1 1q0 3 1 6.5t2 6.5q5 21 18.5 52t39.5 73q25 40 59.5 79.5t73 71.5t79.5 54.5t79 29.5q13 3 27 3h3q24 -1 42 -13q15 -11 25 -34
t2 -67zM286 262q-30 1 -62 -7q-27 -7 -58.5 -24t-59.5 -51q-21 -48 -20 -77.5t11 -46.5q11 -19 34 -29q32 -7 72.5 13.5t80.5 65.5q5 6 14 19.5t18 30t15 34t4.5 32.5t-13 26t-36.5 14z" />
    <glyph glyph-name="seven" unicode="7" horiz-adv-x="469" 
d="M432 261q-1 -2 -5 -5l-7.5 -5t-10.5 -5q-11 -5 -27 -7.5t-39 -1.5q-7 0 -13.5 0.5t-14.5 1.5q-5 0 -15 2q-12 -14 -24 -26.5t-23 -24.5q-7 -8 -20 -24t-28 -35.5t-29.5 -40t-24.5 -38.5q-6 -9 -11.5 -18.5t-10.5 -19.5q-1 -3 -1 -7q0 -8 3 -10q0 -1 0.5 -3t-1.5 -4l-2 -1
q-2 -2 -5 0q-5 2 -10 5l-10 6t-11 6q-2 1 -4 4q-4 6 -3 17v2q2 10 10 24q1 2 8 13q8 15 21.5 35t31 43.5t38.5 49.5t43 52h-17q-14 0 -27 -2q-11 -2 -22.5 -6t-18.5 -11l-2 -2q-2 -2 -5 -1q-4 1 -2 4.5t4 8.5q1 2 7 9.5t13 15.5l18 22l2 2q1 1 2 1.5t2 1.5q8 5 27.5 9.5
t54.5 -3.5q2 0 2.5 -0.5t2.5 -0.5q18 20 35 38.5t32 32.5q20 20 45 44t48 44h-35q-11 0 -21.5 0.5t-21.5 1.5l-30 3q-28 2 -57 3t-59 1q-22 0 -41 -2q-17 -2 -34 -6t-26 -11q-1 -1 -3 -2t-7 -1q-6 2 -3.5 5t5.5 8q1 2 9 9t17 15t17 15t9 8l11 11q5 1 12 2q6 1 15 1t21 1
q11 1 25 0.5t31 -2.5q21 -2 49 -4t57 -3t57 0t50 5q9 1 20.5 3.5t23 5.5t21.5 7.5t16 10.5q1 0 2 1q2 2 6 2q6 0 5 -4t-3 -8q-1 -2 -6 -8.5t-11.5 -14.5t-12.5 -15.5t-9 -10.5l-2 -2q-3 -4 -6.5 -7t-5.5 -5q-4 -3 -6 -6q-6 -6 -23.5 -23t-41 -40.5l-52 -52t-57.5 -58.5
q22 1 47 6q14 3 27 7q11 4 22 9t17 13l2 2q2 2 4 2q5 0 3.5 -4t-3.5 -9q-1 -2 -5.5 -10t-9.5 -17q-6 -11 -15 -24z" />
    <glyph glyph-name="eight" unicode="8" horiz-adv-x="429" 
d="M448 512q31 -9 44.5 -35t5.5 -61q-15 -70 -98 -141q19 -14 28 -37.5t2 -55.5q-5 -27 -22.5 -56.5t-42.5 -54.5q-12 -11 -29.5 -25t-41.5 -26.5t-54 -21t-65 -8.5h-15.5t-15.5 2q1 0 -15.5 2.5t-36.5 16t-35.5 42t-13.5 79.5l-1 2q1 4 1.5 8.5t1.5 8.5q6 29 24.5 51
t41.5 37.5t48 25t44 14.5q-7 11 -10 23t-3.5 22t0.5 16.5t1 7.5q9 41 37.5 70.5t61 49.5t62 30.5t40.5 13.5h3q15 4 30 4q6 0 12 -1t11 -3zM363 161q1 3 2 6.5t1 6.5q14 60 -43 77q-14 -3 -25 -4t-22 -1q-20 0 -33 4q-61 -8 -94.5 -34.5t-41.5 -63.5q-3 -12 -1 -32t12 -39.5
t30.5 -34t55.5 -15.5q24 0 49 11.5t46.5 29.5t38.5 41.5t25 47.5zM411 371q17 21 28 41.5t15 34.5q6 31 -22 31q-16 0 -37.5 -7.5t-43.5 -19.5t-42 -26t-33 -26l-1 -1q-29 -22 -35 -48q-3 -12 0 -23t7.5 -19t9 -13t5.5 -6q13 -5 25 -5q20 0 39.5 10t36 24t29.5 29t19 24z
" />
    <glyph glyph-name="nine" unicode="9" horiz-adv-x="426" 
d="M488 369q-1 -3 -1.5 -6.5t-2.5 -7.5q-2 -11 -8 -26.5t-14 -34.5q-20 -45 -47 -90q-23 -38 -57 -81t-77 -77q-27 -21 -52 -32.5t-47.5 -16.5t-41.5 -5.5t-33 1.5h-1h-7q-7 0 -16 3q-2 1 -3.5 1t-3.5 1q-2 0 -3 1l1 1q-9 4 -18 11.5t-15 20.5t-8 31t3 44q4 16 7 28.5
t8 23.5v-1q2 2 2 4q0 1 2 3l2 4q5 6 10 10.5t10 6.5q5 3 11 4l34 4l40 4q3 0 3 -5q-2 -3 -8 -5q-20 -7 -33.5 -27.5t-21.5 -40.5q-4 -8 -5 -15.5t-2 -12.5q-2 -18 0 -29t7 -18q5 -8 15 -13q8 -4 15.5 -5t15.5 -1t17 1q30 4 58 22t52 42.5t43.5 52.5t34 52.5t22.5 41t9 19.5
h1q-8 -7 -20.5 -17t-30.5 -19t-41.5 -15t-53.5 -6q-38 0 -60 13.5t-33 30.5q-7 13 -7 31t3 33v1l1 2q3 15 9 28q6 14 16 33.5t27 39.5q9 11 19.5 22t23.5 21q6 6 10 8q13 10 24 16.5t23 12.5q20 9 43.5 15t49.5 6h13.5t13.5 -2q1 0 12 -2t24 -12q13 -9 25 -28.5t14 -55.5
q1 -5 0.5 -10.5t0.5 -11.5q-2 -5 -2 -9.5v-9.5l-1 -2v-1zM418 323q22 52 22 83t-10 47q-11 18 -33 25q-32 8 -72.5 -12.5t-79.5 -65.5q-5 -6 -14.5 -19.5t-18.5 -30.5t-15 -35t-4.5 -34t12.5 -27t37 -14q29 -1 60 7q26 7 56.5 24t59.5 52z" />
    <glyph glyph-name="colon" unicode=":" horiz-adv-x="139" 
d="M32 89q6 1 12 6t10.5 11.5t8.5 13.5t6 11v2q2 2 2 4v1q1 1 1.5 2t1.5 2l10 1.5t20 -1t15.5 -10.5t-3.5 -26l-7 -14q-5 -7 -10.5 -11t-9.5 -6q-1 -1 -2 -1h-6q-7 0 -22.5 1t-18.5 2q-5 1 -9 2t-2 6q0 2 1 3q1 0 2 1zM72 180q6 1 11.5 6t10.5 11.5t8.5 13.5t6.5 11l-1 2
q2 2 2 4v1q3 3 3 4l10 1.5t20.5 -1t15.5 -10.5t-4 -26l-7 -14q-5 -7 -10.5 -11t-8.5 -6q-1 -1 -2 -1h-6q-3 0 -9.5 0.5t-13.5 1t-12.5 1t-6.5 0.5q-5 1 -8.5 2t-2.5 6q0 1 2 3q1 0 2 1z" />
    <glyph glyph-name="semicolon" unicode=";" horiz-adv-x="163" 
d="M96 180q6 1 11.5 6t10.5 11.5t8.5 13.5t6.5 11l-1 2q2 2 2 4v1q3 3 3 4l10 1.5t20.5 -1t15.5 -10.5t-4 -26l-7 -14q-5 -7 -10.5 -11t-8.5 -6q-1 -1 -2 -1h-6q-3 0 -9.5 0.5t-13.5 1t-12.5 1t-6.5 0.5q-5 1 -8.5 2t-2.5 6q0 1 2 3q1 0 2 1zM26 51q7 2 15 8t15 13t12.5 14
t8.5 12q0 1 1 1t2 1q0 1 0.5 2t0.5 2t1 1l4 4q3 5 6 11t3 11l-12 3q-1 2 -1 4q0 3 3 5q2 1 9 1h7h1q1 0 2 -0.5t3 -0.5q7 1 16.5 0t11.5 -5q3 -6 1 -22t-13 -32q-2 -5 -5 -8t-5 -6q-8 -8 -15 -12.5t-12 -7.5q-1 0 -2 -1q-4 -2 -7 -2q-4 -1 -11 -2t-14.5 -2t-13.5 -1.5
t-7 -0.5h-9t-2 5q1 2 2 2.5t2 1.5t2 1z" />
    <glyph glyph-name="less" unicode="&#x3c;" horiz-adv-x="378" 
d="M302 104v-12q1 -1 1 -2q0 -3 -1 -10.5l-2 -15t-2 -14t-1 -8.5q-2 -4 -3 -7.5t-4 -1.5q-4 0 -4 2q-1 1 0 2q-1 12 -13 22.5t-22 16.5q-21 13 -45 21t-49.5 15.5t-52 15t-51.5 18.5q-5 0 -5 9.5t2.5 21t6.5 20t7 5.5q28 11 56.5 18.5t57.5 15t57.5 16t57.5 21.5
q12 6 28.5 16.5t23.5 22.5q0 1 1 2t4 2q4 2 4 -1.5v-7.5q0 -2 -2.5 -8.5t-5 -14t-4.5 -15t-3 -10.5l-2 -2q-2 -4 -2.5 -7t-2.5 -5q-2 -3 -3 -6q-22 -14 -52 -23t-59 -16l-24 -4q-19 -5 -39.5 -10t-40.5 -12q34 -11 71 -21l22 -4q26 -7 52.5 -16t42.5 -23v-6z" />
    <glyph glyph-name="equal" unicode="=" horiz-adv-x="354" 
d="M346 180q-24 -8 -53.5 -7t-57.5 3q-5 1 -11 1.5t-11 1.5q-39 3 -82 3q-15 0 -29 -2q-12 -2 -24 -5t-19 -9l-2 -2q-1 -1 -5 -1q-5 2 1 11q1 2 7 8.5t12.5 13.5t12.5 13t6 7l10 10q3 0 8 1q4 1 10.5 1t15.5 1q8 1 17.5 0.5t21.5 -1.5q15 -2 34.5 -3.5t40 -2.5t40.5 -0.5
t36 4.5q13 2 31.5 7.5t26.5 15.5l1 1q2 2 5 2q5 0 4 -3.5t-3 -6.5q-1 -2 -5 -8t-8.5 -13t-9 -13.5t-6.5 -9.5l-2 -2q-2 -3 -4.5 -6t-4.5 -5q-3 -3 -4 -5zM325 82q-24 -8 -53.5 -7t-57.5 3q-5 1 -10.5 1.5t-11.5 1.5q-39 3 -82 3q-15 0 -29 -2q-12 -2 -24 -5t-19 -9l-2 -2
q-1 -1 -5 -1q-4 2 -2 4.5t4 6.5q1 2 6.5 8.5t12.5 13.5t12.5 13t6.5 7l9 10q3 0 8 1q4 1 10.5 1t15.5 1q8 1 17.5 0.5t21.5 -1.5q15 -2 34.5 -3.5t40 -2.5t40.5 -0.5t36 4.5q13 2 31.5 7.5t27.5 15.5l1 1q2 2 4 2q5 0 4 -3.5t-3 -6.5q-1 -2 -5 -8t-8.5 -13t-9 -13.5
t-6.5 -9.5q0 -1 -2 -2l-4 -6t-4 -5z" />
    <glyph glyph-name="greater" unicode="&#x3e;" horiz-adv-x="369" 
d="M113 110q22 14 52 23t59 16l24 4q19 5 39 10t40 11q-17 7 -35 12t-35 10l-22 4q-26 7 -52.5 16t-42.5 23v6q0 2 -0.5 5t0.5 7q-1 1 0 2q0 3 0.5 10.5t1.5 15t2 14t1 8.5q2 4 3 7.5t5 1.5q3 -3 3 -2v-2q1 -12 13 -22.5t23 -16.5q22 -13 47.5 -21.5t51 -16t50.5 -15
t48 -18.5q5 3 5.5 -5.5t-1.5 -20t-6 -21t-9 -9.5q-31 -11 -60.5 -18.5t-58 -15t-55.5 -15.5t-54 -21q-13 -6 -29.5 -16.5t-23.5 -22.5q-1 -1 -1 -2q-2 -2 -3 -2q-5 -2 -5 1.5v7.5q0 2 2.5 8.5t5 14l5 15l3.5 10.5q0 1 1 2q2 7 5 12q2 3 3 6z" />
    <glyph glyph-name="question" unicode="?" horiz-adv-x="446" 
d="M443 509q30 -9 42.5 -33.5t5 -58.5t-36 -74.5t-81.5 -81.5v-1h-1q-44 -33 -86.5 -62.5t-77 -54.5t-58 -46.5t-27.5 -39.5q1 -2 1.5 -8.5t-0.5 -14t-2 -13t-2 -4.5q-1 2 -3 -1t-3 -2q-2 -2 -4 -2h-1l-12 6q-2 1 -7 3t-9 4q-7 3 -8 2q-5 3 -6 10.5t1 13.5v4.5t1 5.5
q1 4 2 7q6 29 34.5 57.5t67 55t79.5 52t72 48.5q23 19 48 45t44.5 52.5t29.5 49.5t3 35q-6 10 -21.5 9t-36.5 -9t-43.5 -20.5t-41.5 -24.5t-32.5 -21.5t-15.5 -10.5q-20 -15 -37 -35t-14 -40q0 -7 -3 -8q-4 -2 -5 -1l-2 2l-25 61q-2 5 -1 11q1 5 3.5 11t8.5 13l3 3l3 2
q5 5 13 11t17 12q43 29 84 49q18 9 36.5 16.5t37 12.5t35.5 6t31 -3zM-2 -83q11 3 21 13t17.5 22t12.5 23t6 16t-1.5 6t-5.5 1t-5 1t-1 7q1 3 4.5 3.5t6.5 0.5q7 0 6.5 0.5t5.5 -1.5h7q19 0 24.5 -10t0.5 -31q-2 -10 -6.5 -21t-14.5 -20t-27.5 -14.5t-45.5 -5.5h-7t-3 4
q1 6 5 6z" />
    <glyph glyph-name="at" unicode="@" horiz-adv-x="510" 
d="M278 -46q-6 3 -12.5 13t-2.5 27q6 28 15 42.5t7 14.5q-3 -5 -21 -22t-39.5 -35t-41.5 -32t-26 -14q-5 0 -11 10t2 42q5 25 25.5 65.5t68.5 97.5q10 9 20 17q8 7 18 12.5t20 5.5q3 0 9 -2q10 -5 19.5 -10t17.5 -10q9 -5 18 -11q4 4 13 13.5t17 9.5q10 0 19 -11t7 -21
q-1 -4 -6.5 -9t-17.5 -18.5t-31.5 -40.5t-49.5 -75q-2 -2 -3 -5q-3 -5 -3 -8q-1 -1 0 -1q3 0 15 12q16 15 29.5 30t27.5 29q44 53 70 101t33 84.5t-3.5 57.5t-39 19.5t-74.5 -29.5t-109 -90q-25 -24 -53.5 -59.5t-54 -73.5t-44 -75.5t-23.5 -67.5t10 -45t40.5 -19.5t58 0
t63 14.5t54.5 23.5t33 27.5l2 3q3 2 3.5 5.5t2.5 6.5h5l1 -1q5 -17 6.5 -28t-5.5 -20q-6 -6 -14 -12q-4 -4 -8 -6q-53 -30 -101.5 -39.5t-86.5 -7t-62.5 13t-28.5 20.5q-15 19 -18 42.5t2 51.5q10 45 39 95t66.5 97.5t77.5 87t70 62.5t71 41.5t78.5 22.5t63.5 -12.5
t26 -62.5q0 -19 -11.5 -48.5t-30 -63t-43 -68.5t-50 -66t-51.5 -55t-47 -36q-5 -3 -8 -6.5t-6 -3.5q-4 0 -7 3zM178 -21q3 1 12.5 8.5t22 19.5t27.5 27.5t30 30.5q35 36 78 82q-16 14 -27 14q-14 0 -30 -15.5t-42 -47.5q-20 -24 -33.5 -45.5t-21.5 -38.5q-10 -19 -16 -35z
" />
    <glyph glyph-name="A" unicode="A" horiz-adv-x="609" 
d="M34 134v1q0 1 -0.5 2t0.5 3q4 21 35 36t79.5 26t109.5 18t126 11q55 33 112 65.5t111.5 62.5t105.5 56t93 46q1 0 3 1q2 0 3 0.5t3 0.5q3 0 8 -3t9.5 -8t7.5 -12t1 -15q-3 -13 -56 -60t-141 -138q1 0 7.5 -0.5t13 -2.5t11.5 -6t4 -13q-1 -3 -3 -5q-4 -4 -12 -4
q-14 3 -46 6q-8 -10 -17 -19.5t-18 -19.5q-11 -13 -32 -39.5t-42.5 -55.5t-38 -55.5t-19.5 -39.5q-2 -5 1 -10t2 -8q0 -4 -6 -4q-2 0 -3 1q-11 6 -19 9t-13 6.5t-6.5 8.5t0.5 16q2 10 14.5 32t33 51t47 62.5t56.5 68.5q-10 1 -20 1h-21q-22 0 -45.5 -1t-48.5 -3
q-113 -73 -183 -122t-109.5 -81t-54.5 -50t-18 -29q-1 -1 -1 -4v-3q0 -2 -3 -2q-5 0 -6 3q-8 10 -13 17t-7.5 11.5t-2.5 8.5t1 9q2 8 17.5 25t32.5 33l-1 -1q36 34 99 78t140 93q-38 -8 -79 -18t-84 -24q-26 -9 -47 -20q-18 -10 -34 -24t-20 -31q-2 -9 -7 -9q-3 0 -3.5 1
t-1.5 1zM472 235l-1 -1h32q21 0 41 -0.5t38 -1.5q20 22 53 54.5t65.5 63t57.5 53t29 24.5q-12 -6 -31.5 -18t-44 -26.5t-51.5 -31.5t-54 -33q-62 -39 -134 -83z" />
    <glyph glyph-name="B" unicode="B" horiz-adv-x="498" 
d="M73 115q-17 6 -23 24t-1 44q6 26 24.5 58t51.5 65t81 64t112 55q27 10 56 19q25 8 55 14t61 6q43 0 78 -17.5t46 -64.5q0 -2 0.5 -6.5t-1.5 -9.5q-3 -14 -17.5 -31.5t-35.5 -35.5t-44 -35.5t-42.5 -31.5t-32 -22.5t-11.5 -8.5q4 -4 16 -8.5t23.5 -10t19.5 -12.5t6 -17
q-1 -5 -4 -10t-10 -8q-5 -2 -38 -21.5t-85 -58.5t-117 -98.5t-132 -143.5q-1 -1 -2 -3q-2 -4 -2 -6q-1 -4 0.5 -6.5t0.5 -6.5q0 -4 -6 -4q-2 0 -2 2q-18 16 -24.5 22t-3.5 20q1 5 4.5 12.5t11.5 16.5q12 15 46 49.5t83 78t110 90.5t128 87q-5 1 -18 8.5t-26 17.5t-23 19
t-9 14q0 1 9 5.5t29.5 18.5t55 43t87.5 80q3 4 7 8q6 7 9 20q7 30 -45 30h-14.5t-16.5 -2q-13 -2 -44.5 -9.5t-73 -21t-88 -34t-89.5 -48t-77.5 -62.5t-51.5 -79q0 -1 -1 -3t-1 -4q-2 -10 2 -16t24 -6q13 1 45 12t66.5 27.5t62 36.5t31.5 39q0 3 -2.5 5.5t-1.5 7.5q2 2 4 2
q4 0 7 -4q3 -2 6 -6q4 -6 9 -18q43 53 72 82.5t49 29.5q14 0 23 -9.5t13 -16.5l6 -9v-2q0 -4 -4 -4q-3 0 -4 3t-6 3h-2q-14 -8 -35 -28t-41 -41q-24 -25 -49 -54q-42 -51 -69.5 -86t-44.5 -58t-24.5 -35.5t-8.5 -18.5q-1 -4 0.5 -6t0.5 -6q0 -2 -2 -2t-3 1q-16 10 -22 14
t-3 18q0 2 1 5l2 4t3 4q16 29 36 59.5t43 62.5q-37 -19 -79.5 -32.5t-74.5 -13.5q-16 0 -29 5z" />
    <glyph glyph-name="C" unicode="C" horiz-adv-x="364" 
d="M12 -48q-21 36 -4 94q14 45 49 95t77.5 97.5t86 87t76.5 62.5q51 36 84 49t53 13q12 0 23 -4t17.5 -12.5t8 -22.5t-4.5 -34q-7 -20 -24 -47t-49 -62q0 -2 -2 -4h1q-24 -26 -40.5 -42t-28 -24t-19 -10.5t-12.5 -2.5q-7 0 -8 1.5t-2 1.5q-1 1 -5.5 4t-9.5 7t-9 8t-4 6
q1 1 3 2.5t4 1.5t2.5 -0.5t2.5 -0.5q5 0 10 3q3 1 5 3q21 18 46 44t48.5 53t41 51.5t22.5 39.5q4 12 -7 12q-21 0 -72 -35t-120 -95q-28 -24 -59.5 -59.5t-61 -73.5t-52 -75.5t-32.5 -67.5q-9 -26 -4 -45t28 -19q17 0 38.5 11t44.5 28t46 38t41.5 41t31 36.5t15.5 24.5
q2 5 -0.5 8t-0.5 7q0 2 2 3t4 1q1 0 1.5 -0.5t1.5 -0.5q19 -14 26 -18.5t6 -17.5q-4 -8 -6.5 -15t-10.5 -16q-43 -53 -78 -84t-63.5 -48t-50.5 -22t-40 -5t-30.5 4.5t-20.5 9.5q-10 6 -16 15z" />
    <glyph glyph-name="D" unicode="D" horiz-adv-x="491" 
d="M71 115q-26 9 -27 45.5t27.5 83t88.5 96t155 85.5q7 2 16 6q8 3 17.5 6.5t22.5 7.5h1q29 9 55.5 12.5t46.5 3.5q23 0 42 -3q27 -4 44.5 -15.5t27 -27t12.5 -33.5t3 -36q-1 -29 -15 -60t-41 -60l-27 -27t-31 -28q-35 -31 -68 -59t-61 -51q-24 -20 -41.5 -34.5t-22.5 -18.5
q-43 -37 -91 -85t-98 -110q-2 -2 -3 -6q-1 -3 -1.5 -6.5t1.5 -5.5v-2q0 -3 -1 -4q-5 -4 -7 0q-4 3 -8.5 7t-8.5 8t-9 10q-4 5 -4 11q0 5 3.5 13.5t14.5 21.5q8 10 27 30.5t47 47t63 57t75 62.5q0 1 1 1q8 7 19 15.5t21 16.5q59 48 99.5 83.5t66.5 60t38.5 38.5t16.5 19
q14 21 18 36t3 21q1 13 -2.5 22.5t-8.5 17.5q-15 19 -41 24t-52.5 3.5t-47.5 -6t-24 -5.5q-42 -12 -92 -32t-97 -48.5t-85.5 -66t-56.5 -84.5q-2 -3 -3 -12t5 -13q5 -4 22 -4q9 1 27 6.5t41 14.5t46.5 20.5t43.5 24.5t32.5 26.5t13.5 26.5l-2 4q-2 5 0 6q2 2 7 -1
q1 -1 1.5 -1t1.5 -1l2 -1q2 -2 6.5 -7.5t6.5 -15.5q23 30 44.5 54t36.5 38q16 16 29 19t22.5 -1t15.5 -11.5t9 -12.5l5 -9q1 -1 1 -2t-2 -3q-5 -3 -5 2q-2 1 -3.5 3t-5.5 0q-14 -8 -35.5 -28t-41.5 -41q-24 -25 -49 -54q-50 -62 -81 -104t-45 -61h1q-3 -4 -5.5 -7.5
t-4.5 -7.5l-1 -1q-2 -4 -8 -12q-1 -2 -2 -5q-2 -5 1 -8q1 -1 1 -2t-2 -3l-1 -1q-3 0 -4 1q-3 2 -6.5 5t-6.5 5l-8 6q-2 0 -3 3q-3 5 0 13v2q2 4 3 7q1 1 1 1.5t2 2.5q16 29 36 59.5t43 62.5q-23 -12 -49 -22t-51 -16t-47 -7.5t-36 4.5z" />
    <glyph glyph-name="E" unicode="E" horiz-adv-x="440" 
d="M67 167q8 12 20.5 17t20.5 7h7h3q9 0 24.5 1t30.5 2q8 1 15 1t12 1q6 0 11 1q-2 3 -5 7l-5 7.5t-5 11.5q-5 14 -5.5 34.5t13.5 47.5q14 28 47 61q29 29 62 50q28 18 62.5 32t69.5 12q12 -1 21 -5t14 -9q7 -6 11.5 -19t0.5 -33.5t-19.5 -49.5t-47.5 -66q-2 -2 -2 -2.5
t-2 -1.5q-6 -8 -14 -16l-16 -16q-9 -9 -18 -17q-4 -5 -9 -9q-9 -11 -20 -16q-1 0 -2 -0.5t-2 -0.5q-10 -5 -17 -3q-4 1 -6 2q-2 2 -11.5 8.5t-16.5 11.5q-2 3 -1 5v2q2 2 5 2h2q5 -3 12 1l6 4q1 0 1 1q8 7 15 13.5t15 13.5q8 9 16 17t12 13q18 21 36.5 45t32 44.5t19 34.5
t-0.5 17q-1 0 -2 0.5t-3 0.5h-1q-3 0 -12 -0.5t-22.5 -3.5t-31 -10t-36.5 -19q-19 -14 -37 -31q-15 -14 -30 -33.5t-24 -41.5q-10 -20 -10 -41.5t14 -41.5q3 -2 5 -5q4 -7 0 -11q-5 -4 -17 -8q-11 -3 -32 -7t-56 -6q-14 -1 -22 -2t-13 -3q-1 0 -6 -5l-6 -9
q-19 -28 -28.5 -51t-13 -41.5t-1 -33t7.5 -24.5q12 -25 40 -37q15 -6 32 -4q15 1 30.5 7.5t28.5 14t23 15t15 11.5q18 15 36 32t32 32q8 9 15.5 18.5t12.5 15.5q9 14 17 25q1 2 2 6q2 8 0 12q-1 0 -1.5 2t1.5 4q0 1 2 1q4 2 4 0h1q7 -6 18 -13l10 -8q2 -1 3 -3q2 -4 2 -12
q0 -4 -1 -6v-2q-4 -10 -13 -23q0 -2 -1.5 -3t-2.5 -2q-5 -6 -9 -12q-4 -5 -9.5 -12t-10.5 -12q-11 -13 -21.5 -23.5l-18.5 -18.5q-10 -10 -18 -17q-7 -6 -13.5 -10.5t-13.5 -9.5q-42 -26 -77.5 -32t-52.5 -5h-13q-39 4 -62 16.5t-35 30t-14 37.5t2 41q9 48 45 107z" />
    <glyph glyph-name="F" unicode="F" horiz-adv-x="382" 
d="M168 320q-17 -5 -29 -5t-20.5 3.5t-13 10t-7.5 13.5q-6 17 -4 42q1 3 1.5 5.5t4.5 3.5q4 0 6 -3q1 -2 1 -4q-1 -4 2 -8.5t12.5 -7t26.5 -0.5t44 10q84 25 152.5 43.5t126.5 32t106.5 21.5t92.5 13q27 3 43 0.5t24 -6.5q10 -4 14 -11q3 -12 6 -23q2 -9 4 -17t2 -10
q1 -4 1 -8t-5 -4q-2 -1 -4 1q-1 1 -1 2q-3 8 -12 12t-19 7q-11 3 -25 5q-63 6 -121 -1t-100 -16q1 0 2 -1q3 0 5 -2q3 -3 -1 -9q-3 -4 -6.5 -7.5t-5.5 -6.5q-3 -4 -5 -6q-9 -11 -36.5 -41t-63.5 -72q27 3 43 0.5t24 -6.5q10 -4 14 -11q3 -12 6 -23q2 -9 4.5 -17t2.5 -10
q0 -5 -0.5 -8.5t-4.5 -3.5q-2 -1 -4 1q-1 1 -1 2q-3 8 -12.5 12t-19.5 7q-11 3 -25 5q-17 2 -34.5 2.5t-34.5 -0.5q-41 -48 -78 -98q-6 -9 -18.5 -27.5t-27 -41t-28 -45.5t-21.5 -41q-5 -10 -9 -20t-9 -20v-7q0 -7 4 -10q1 0 1.5 -2t-1.5 -4q0 -1 -0.5 -1t-0.5 -1
q-3 -1 -5 0q-5 2 -11 4t-11 4q-6 3 -12 5q-3 1 -5 4q-5 5 -5 15v3l2 10t4 13q2 2 2 3.5t2 3.5l-1 -1l3.5 7l3.5 7q1 3 5 11q22 47 32.5 82.5t14 60.5t2.5 39.5t-2 19.5q0 4 1 5l2 2l46 40q1 2 3 3l9 3q20 5 39 8l38 6q12 14 26 30l28 32t27 30t23 25q2 4 6 8l6.5 6.5
t6.5 7.5q-19 -6 -48.5 -16.5t-63.5 -22.5t-69.5 -24.5t-66.5 -21.5zM175 110q19 28 39.5 56.5t40.5 54.5q-20 -3 -37.5 -6t-34.5 -7q-4 0 -2 -3q4 -17 1.5 -43.5t-7.5 -51.5z" />
    <glyph glyph-name="G" unicode="G" horiz-adv-x="420" 
d="M18 -44q-17 27 -10.5 64.5t28.5 79t55 84.5t70.5 82.5t74.5 72t66 52.5q43 30 73 44t50 17t31.5 -2t18.5 -11t10.5 -19t-1.5 -34t-22 -49.5t-51 -66.5l-3 -3q-14 -16 -32 -32q-10 -9 -19 -18q-2 -2 -4.5 -4t-3.5 -4q-15 -12 -23 -16q-2 -1 -3 -1q-10 -5 -18 -3q-4 1 -5 2
h-1q-2 2 -11 8.5t-16 11.5q0 2 -2 4q0 1 3 3q1 2 3 2h3q5 -3 12 1l6 4l1 1q8 7 15.5 13.5t15.5 13.5q10 8 18 16.5t13 13.5q19 21 38.5 44.5t33.5 44t21 35t1 16.5q-8 3 -26 -4t-44 -24t-58.5 -42.5t-69.5 -58.5q-25 -22 -53 -52.5t-55 -64t-49.5 -68t-36.5 -64.5t-16 -52.5
t12 -32.5q19 -13 46 -9.5t58 19.5t63 41.5t61 56.5q10 9 17.5 18t12.5 16q5 5 8.5 10.5t7.5 10.5q-37 -7 -77.5 -18.5t-85.5 -29.5q-14 -6 -26 -13q-11 -6 -20.5 -14.5t-14.5 -16.5q-1 -2 -2 -3q-2 -2 -4 -2q-5 -1 -5 10q0 2 3 11t8 19q5 11 12 25q4 8 15 16q9 7 26.5 15
t46.5 15q45 11 103.5 14t118.5 1q1 0 2.5 -1t-0.5 -4l-9 -12q-2 -2 -6 -3h-13t-15 -1q-2 -5 -9.5 -18.5t-19.5 -28.5q-1 -1 -1.5 -2t-2.5 -3l-10 -12q-5 -5 -10 -11.5t-10 -12.5q-11 -12 -22 -22.5t-20 -18.5q-11 -10 -20 -17q-34 -25 -62.5 -39t-52 -21t-42.5 -7t-34 3
q-34 8 -55 35z" />
    <glyph glyph-name="H" unicode="H" horiz-adv-x="556" 
d="M117 443q-1 13 -2 24q-1 9 -1.5 18t0.5 11q1 5 1 8.5t5 3.5q2 0 4 -2q1 -1 1 -2q1 -8 8.5 -14.5t16.5 -11.5q11 -5 23 -9q37 -11 73.5 -16t69.5 -6.5t60.5 -0.5t46.5 3h3q5 0 16 3l2 1h5q1 0 1.5 -0.5t1.5 -0.5q3 -1 7.5 -2t9.5 -2t11 -2q3 0 5 -2q3 -3 -1 -10
q-5 -5 -9 -10t-6 -8q-1 -1 -2 -1t-1 -1q-5 -6 -17.5 -20.5t-29.5 -34.5t-38.5 -44t-43.5 -51q42 1 84.5 0.5t82.5 -2.5q5 5 8 9.5t7 9.5q12 14 26.5 31.5t29.5 35.5t29 34t25 27l2 2q5 5 14 15.5t11 13.5q2 2 6 5t7 5q8 4 11 3q1 0 1.5 -0.5t1.5 -0.5q3 -1 7.5 -2t9.5 -2
t11 -2q3 0 5 -2q4 -4 0 -10q-5 -5 -9 -10t-7 -8q0 -1 -1 -1t-1 -1q-5 -6 -18 -21t-31 -35.5t-40 -46t-45 -53.5q5 0 10.5 -0.5t10.5 -1.5q2 -1 3 -1q1 -1 1.5 -1t1.5 -2l7 -21q1 0 0.5 -2.5t-3.5 -4.5q-9 -10 -36 -37t-59 -63.5t-63 -79.5t-50 -85q1 -2 -1 -4q0 -1 -0.5 -1
t-0.5 -1q-4 -1 -5 0q-13 4 -23 8q-6 3 -13 5q-3 1 -5 4q-2 2 -3 5.5t-1 9.5q1 1 1 3q0 8 6 23q2 3 3.5 6.5t3.5 7.5q17 42 51.5 96t81.5 114q-40 0 -84.5 -2.5t-94.5 -9.5q-15 -19 -29.5 -38t-28.5 -37q-6 -9 -18.5 -27.5t-27 -41t-28 -45.5t-21.5 -41q-5 -10 -9 -20t-7 -20
q-1 -3 -1 -7q0 -8 3 -10q4 0 2 -6q-2 -1 -3 -2q-2 -2 -5 0q-5 2 -11 4t-11 4q-6 3 -12 5q-3 1 -5 4q-5 5 -5 15q0 2 1 3q0 5 1 10t6 13q0 3 2 6.5t4 7.5q7 19 21 43.5t31 52t37.5 56.5t41.5 57q-32 -6 -63 -15q-27 -7 -49 -18q-19 -9 -36 -22.5t-21 -31.5q0 -2 -1 -4t-3 -2
q-5 -1 -5 3l-2 70q0 6 3 11q2 5 6 10.5t12 10.5q2 0 4 2q1 0 1.5 0.5t1.5 0.5q28 14 78.5 22.5t113.5 13.5q4 5 8 10.5t8 10.5l27 31.5t30 35.5t28.5 34t24.5 27q0 1 1 1t2 1q2 2 5.5 6t7.5 9q-63 -5 -120.5 -12t-101.5 -4q-27 2 -41.5 7t-22.5 11q-9 7 -10 15zM543 232
q-17 -21 -34 -42.5t-32 -41.5q-10 -14 -25.5 -38t-35.5 -59q29 40 64.5 82.5t88.5 96.5q-6 1 -12.5 1t-13.5 1z" />
    <glyph glyph-name="I" unicode="I" horiz-adv-x="309" 
d="M123 -37q1 4 2 8.5t4 10.5v1q-1 -1 1 3.5t6 13t9.5 19.5t12.5 23l39 65q5 5 8 11t8 12l26 38q6 8 12 15.5t11 15.5l28 37q14 18 26.5 33t26.5 32l20 23q5 5 9.5 10t9.5 10l50 55l1.5 1.5t3.5 4.5l6 7q0 1 1 1l10 8l-120 -18q-35 -5 -72.5 -11t-66.5 -6q-20 0 -30.5 7
t-15 17t-4 21.5t2.5 20.5q0 3 1 6t2 5q1 3 2 5v2q1 1 2 3q3 3 5 3h1q4 0 4 -5v-4l-1 -4q0 -7 9.5 -14.5t40.5 -7.5q6 0 13.5 0.5t16.5 1.5l191 15q65 5 130 7.5t147 -9.5q31 0 47 -11t17 -11l2 -3q5 -6 5 -9t2 -5l2 -31q-2 -4 -1.5 -10t1.5 -7v-2q-2 -4 -2.5 -6.5t-2.5 -4.5
l-5 -1q-4 0 -1 3v1l-1 1q1 7 -6.5 13.5t-17 12t-17 8t-6.5 2.5l-8 2q-51 17 -100.5 22t-89.5 5q-12 0 -23 -0.5t-19 -0.5h-8q0 -1 8.5 -3t10.5 -2h2q1 0 3.5 -2.5t1.5 -4.5q0 -2 -3 -5l-12 -15l-3 -3l-60 -67q-20 -22 -44 -49.5t-47 -56.5l-56 -72q-5 -7 -14.5 -20.5
t-20.5 -30.5q0 -3 -3 -4l-30 -50q-17 -27 -27 -51v1l-1 -2l-9 -21q0 -1 -1 -2l-1 -3q-3 -3 -3 -7q17 1 33.5 2.5t34.5 4.5q14 3 27 7q11 4 22 9t16 13l2 2q2 2 5 2q4 0 2 -5v1q-1 0 -4.5 -8t-8 -18.5t-10 -20t-9.5 -13.5q-6 -7 -17 -12q-9 -5 -24 -8.5t-38 -3.5h-19t-19 2
l-19 3q-19 3 -38 3t-39 1q-14 0 -27 -2q-11 -2 -22.5 -6t-18.5 -11q0 -1 -1 -2t-4 -1t-3 3l4.5 7.5t10.5 17t13.5 19t13.5 13.5l7 5q9 7 45 7q8 0 16.5 -0.5t19.5 -1.5h1z" />
    <glyph glyph-name="J" unicode="J" horiz-adv-x="425" 
d="M109 338q-34 -6 -47.5 4.5t-16.5 26.5q-4 18 2 44q2 3 2.5 6t5.5 2q2 0 4 -4q1 -2 1 -4q-1 -5 1.5 -10t11 -8t25 -3.5t44.5 4.5q136 22 234 33.5t175 14.5q2 2 5 0q4 -2 9.5 -5.5t10.5 -5.5q6 -4 12 -6q2 -1 4 -4q3 -5 3 -16l-1 -3q-2 -10 -9 -23l-7 -14
q-8 -13 -18 -29.5t-24 -34.5v-1q-14 -20 -30.5 -41t-34.5 -42q-22 -27 -49 -59t-57.5 -64.5t-63.5 -64t-66 -57.5q-11 -9 -21.5 -17t-21.5 -15l-11 -7q-7 -4 -14.5 -7.5t-15.5 -5.5h-1q-26 -8 -48 -5q-31 6 -50 26q-8 9 -14.5 21.5t-9 29.5t0 40t12.5 52q4 10 9 21
q5 10 10.5 22.5t13.5 26.5q3 7 7 13.5t8 11.5q4 6 9 12l4 5q7 13 18 20l2 1q1 1 6 4q7 3 12 3q3 0 5 -1q7 -2 13 -5q5 -2 11 -4t11 -4q2 -2 3 -4l-1 -2q-1 -2 -3 -2.5t-3 -0.5q-6 0 -12 -4q-3 -2 -5 -5q-11 -12 -18 -24q-5 -6 -11 -15.5t-12 -19.5q-13 -24 -25.5 -53.5
t-19 -56t-4 -47t19.5 -27.5q11 -5 27 -2t31 12h1q-1 0 3 2q3 2 11.5 7.5t17.5 13.5l21 19q48 43 109 106t126 144l10 11q20 26 44.5 58.5t38.5 57.5l21 38h-1q-24 1 -50 -1t-49.5 -4.5t-43 -5.5t-29.5 -4q-17 -3 -48 -11t-69 -18t-78 -20t-73 -16z" />
    <glyph glyph-name="K" unicode="K" horiz-adv-x="457" 
d="M-41 328q-34 -6 -47.5 4.5t-16.5 26.5q-4 18 2 44q2 3 2.5 6t5.5 2q2 0 4 -4q1 -2 1 -4q-1 -5 1.5 -10t11 -8t25 -3.5t44.5 4.5q138 23 236.5 34.5t175.5 13.5l21 -26q4 -6 4 -12q0 -5 -4 -12.5t-16 -14.5q-65 -45 -127 -104q-54 -51 -114 -121.5t-106 -159.5
q37 54 99 114q53 51 136.5 115.5t206.5 130.5q10 4 20 5q8 1 17.5 -2t17.5 -11q7 -8 12 -15.5t9 -12.5q4 -6 7 -12q-1 -3 -3 -6q-4 -7 -6 -2q-1 2 -10 7.5t-32 3t-64.5 -19.5t-108.5 -59l-36 -24q12 -68 31.5 -120t43.5 -91t49 -66t47 -45q20 -16 35 -22t26 -8q12 -2 22 1
q-18 -19 -37 -24t-35 -3q-18 2 -36 9q-34 18 -61 46t-48 61t-37 68t-26.5 66t-17 55t-9.5 36q-43 -32 -76 -62.5t-60 -61t-50 -61t-46 -63.5q-10 3 -18 10q-7 6 -11.5 16t-0.5 27q5 21 25 64.5t62.5 103.5t111 131.5t169.5 147.5l-2 -1q-51 1 -103 -7.5t-104.5 -21.5
t-105.5 -27.5t-106 -25.5z" />
    <glyph glyph-name="L" unicode="L" horiz-adv-x="517" 
d="M22 -52q-33 -8 -46.5 2.5t-16.5 25.5q-4 18 3 43q0 8 6 9q4 0 6 -4q1 -2 0 -4q-2 -7 4 -13.5t30 -7.5q25 1 40 1t28 1q-15 5 -28 13q-4 2 -2 5q0 2 2 3q3 3 5.5 3h4.5v-1h1q6 -2 16 -3.5t24 0t32 7t39 18.5q16 9 26.5 16t22.5 17.5t28 26.5l45 45h-1q-44 21 -70.5 49.5
t-40 55t-18 46t-4.5 23.5q-2 8 0 14v2q1 6 3 10t4 7q3 3 6 5t15.5 9.5t20.5 12.5q5 2 6 1q1 0 1 -1q2 -2 0.5 -4t-1.5 -3q-5 -4 -6 -8.5t0 -6.5l-1 -2q1 -2 1 -10.5t2 -20.5q2 -15 8 -34.5t17.5 -41t30.5 -43t47 -39.5q38 39 76 80.5t74 81.5q48 52 81 83.5t54.5 47
t34.5 18.5t22 0q9 -4 18.5 -10.5t16 -18t7.5 -27.5t-8 -38q-5 -13 -20.5 -37t-40 -52.5t-55.5 -58.5t-67.5 -53.5t-76 -37.5t-80.5 -11q-21 -23 -43.5 -44t-42.5 -37.5t-36.5 -27.5t-26.5 -14q57 6 104 8t89 1q27 -1 41.5 -5t22.5 -9q9 -6 11 -14q1 -13 3 -24q2 -10 3 -18.5
t1 -10.5q-1 -4 -1.5 -8t-5.5 -4q-4 0 -4 2q-1 1 0 2q-2 8 -10.5 14t-17.5 10q-11 4 -23 8q-42 10 -82.5 13t-76.5 2t-64.5 -4t-44.5 -6q-17 -3 -29.5 -5t-26 -5t-29 -6.5t-37.5 -8.5zM392 186l-6 -6t-6 -7q21 7 46.5 21t56.5 37q54 42 90 80t57 69t28 51.5t2 26.5
q-4 4 -19.5 -8.5t-38.5 -35.5t-50.5 -53.5t-56 -62t-55.5 -61t-48 -51.5z" />
    <glyph glyph-name="M" unicode="M" horiz-adv-x="752" 
d="M96 374q0 5 3 11q2 5 6.5 10.5t12.5 10.5q1 1 1.5 1t1.5 1l4 2q31 15 91 24.5t131.5 13t146.5 2t136 -7.5q1 0 2 -1q2 -2 3 -4l8 -20q5 -14 2 -25.5t-10 -23t-17 -22t-19 -21.5q-5 -6 -19.5 -20.5t-35 -36t-44.5 -48t-47 -55t-44 -57.5t-34 -55q65 75 134 146
q29 30 62 63t67 65.5t68.5 62.5t67.5 56q0 1 2 1q4 0 6 -1l20 -13q3 -5 4 -10q0 -5 -2.5 -12t-11.5 -16l-24 -24t-42 -43.5t-51.5 -56.5t-53 -63.5t-46.5 -63.5t-31 -57q74 80 146 152q31 31 64.5 63t66.5 62.5t65 56.5t60 45l2 1q1 0 3 0.5t4 -0.5l25 -12q3 -2 4 -6
q0 -4 -2.5 -11t-12.5 -18v-1q-2 -1 -2.5 -2t-1.5 -2l-1 -1l-2 -3q-2 -2 -3 -3.5t-2 -2.5t-2 -1t-1 -1q-42 -51 -86 -101t-85.5 -101.5t-79 -105.5t-65.5 -113q-10 -21 -17 -40q-1 -3 -1 -7q0 -7 4 -10q1 0 2 -2t-1 -4l-2 -2q-2 -2 -5 0q-5 2 -11 4t-11 4q-6 3 -12 5
q-2 1 -5 4q-2 2 -4 5.5t-1 9.5v3l2 10t5 13q2 4 6 14q10 25 31 60.5t47.5 74t55 76.5t55.5 70q11 14 25.5 31t28.5 34q-11 -11 -39 -37t-69.5 -67t-95 -95.5t-115.5 -121.5q-4 -3 -8 -4q-10 -2 -15 6q-4 5 -6.5 15t-4.5 20q-2 11 -3 25q19 31 39 63q17 26 39 56.5t45 55.5
q-35 -35 -73 -75q-32 -34 -71 -76t-77 -85q-13 -14 -18.5 -23.5t-7.5 -17.5v-1q0 -1 -0.5 -1.5t-0.5 -2.5v-1q-1 -1 -1 -1.5t-1 -1.5q-2 -1 -5 3l-7 7q-5 7 -9.5 13.5t-6.5 8.5q-2 3 -2 10t2 15q5 25 21.5 56.5t40.5 66t53 70.5t59.5 70.5t60.5 66t55 56.5l1 1q1 1 1 3
q-1 2 -3 3t-4 1q-72 6 -172 1t-219 -38q-27 -7 -49 -18q-19 -9 -35.5 -22.5t-20.5 -30.5q-2 -7 -5 -7q-4 0 -4.5 1t-1.5 2z" />
    <glyph glyph-name="N" unicode="N" horiz-adv-x="684" 
d="M606 416q-72 6 -172 1t-219 -38q-27 -7 -49 -18q-19 -9 -35.5 -22.5t-20.5 -30.5q-2 -7 -5 -7q-4 -1 -4.5 0.5t-1.5 2.5l-1 70q0 5 3 11q2 5 6.5 10.5t12.5 10.5q1 0 3 2q1 0 1.5 0.5t1.5 0.5q31 16 91.5 25t132 13t146 2t135.5 -8q2 -1 3 -1q1 -1 1.5 -1t1.5 -2l7 -20
q5 -14 2.5 -26t-9.5 -23t-17 -22t-19 -21q-5 -6 -22.5 -24t-42 -44.5t-53 -58.5t-56 -65.5t-51 -66t-37.5 -58.5v1l3 3q10 11 48.5 53t100 101t142.5 127.5t174 132.5q14 10 29 19.5t29 18.5q2 2 4 2l2 1q1 0 3 0.5t4 -0.5l25 -12q4 -2 4 -7t-4 -13t-16 -21q-2 -3 -4 -5
t-3 -4q-1 -1 -2 -1t-1 -1q-8 -10 -32 -37.5t-56 -64.5t-67.5 -80t-65.5 -84q-6 -9 -18.5 -27.5t-26.5 -41t-28 -46t-22 -41.5q-5 -10 -9 -19.5t-8 -20.5q-1 -3 -1 -6q0 -2 1 -5t4 -5q1 -1 1 -2q0 -3 -1 -4l-2 -2q-2 -2 -5 0q-5 2 -11 4t-11 4q-6 3 -12 5q-3 1 -5 4
q-5 5 -5 15v2q1 5 2 10.5t5 13.5q2 3 3 6t3 8q10 25 31 60t47.5 73.5t55 77t55.5 69.5q9 11 19 23.5t22 26.5q14 18 30 35.5t29 31.5q-29 -18 -70.5 -49.5t-97.5 -80t-127 -117.5t-157 -162q-4 -3 -7 -7q-13 -14 -18.5 -23.5t-7.5 -17.5v-1q0 -2 -1 -5q0 -2 -2 -3t-5 3l-2 2
q-2 2 -4 5q-5 7 -10 13.5t-7 8.5q-2 3 -1.5 10t2.5 15q1 10 5 19v1q0 1 0.5 1.5t0.5 1.5v1q6 20 18 44t31 50q13 20 34.5 46.5t46 56t52 60.5t53 59t48 51.5t38.5 38.5q0 1 1 2t1 3q-1 2 -3 3t-4 1z" />
    <glyph glyph-name="O" unicode="O" horiz-adv-x="585" 
d="M285 -67q-45 -15 -78 -19.5t-56 -2t-37 10.5t-22 19q-18 26 -12 67q4 22 11.5 41t16.5 36q-28 14 -41.5 40t-8.5 67q6 43 35.5 88t77.5 83t112 65t138 36q75 9 122.5 -2t72.5 -35t30 -58.5t-5 -73.5q-6 -28 -21.5 -62t-39.5 -70q11 1 26 2.5t20 1.5h3q2 0 3 -1t3 -2
q2 -2 5 -5.5t5 -5.5v-2t-4 -1q-11 0 -34 -3t-43 -8q-47 -63 -115.5 -119t-163.5 -87zM267 -23q83 32 140 70t93 77q-34 -9 -74.5 -18.5t-88.5 -20.5q-59 -13 -110.5 -16.5t-90.5 6.5q-12 -20 -19.5 -39t-6.5 -39q0 -15 7 -23.5t18 -12.5t25 -4.5t29 1.5q34 4 78 19zM87 161
q1 -10 8 -22.5t32 -21.5q22 30 46.5 53t46.5 39q25 18 50 32q42 21 75 31q31 10 55.5 13t39.5 4q5 0 8 -0.5t5 -0.5h5h6q11 0 19 -4q1 -1 3 -1q1 -1 1.5 -2t1.5 -2q5 -5 5 -9v-5q-1 -8 -2 -15q-1 -6 -2 -13t-1 -12q0 -2 -1 -3t-2 -3q-2 0 -2 -1q-2 0 -2.5 2t-1.5 2
q0 6 -6 10q-3 2 -5 2h-6q-32 0 -61.5 -5.5t-52.5 -11.5q-27 -8 -51 -17q-4 -2 -8.5 -3.5t-8.5 -3.5q-25 -11 -55 -30q-16 -11 -31 -24t-29 -28q23 -1 52 1t69 10q75 13 137.5 21.5t107.5 13.5q22 26 36.5 50t23.5 43.5t13.5 33t5.5 19.5q2 7 5 21t1.5 30.5t-11 32t-33.5 25
t-65 10.5t-106 -12q-64 -13 -112.5 -34t-83.5 -45.5t-58 -50.5t-36.5 -49.5t-19 -42t-5.5 -27.5z" />
    <glyph glyph-name="P" unicode="P" horiz-adv-x="755" 
d="M742 445q17 13 34 23q14 8 30.5 14t30.5 2q11 -3 24 -11t20 -26.5t4 -50t-23 -79.5q-12 -27 -30 -53q-15 -23 -38 -50t-54 -51q-57 -44 -101 -54.5t-73 9.5q-3 2 -5.5 4t-4.5 4q-1 1 -1 2q-4 4 -4.5 8t-0.5 7q0 4 2 7t8 16t10 22l4 4h3q2 0 2 -3v-2q-1 -5 1 -8.5t4 -5.5
q12 -10 33 -8q18 2 46.5 15.5t73.5 49.5q55 51 78 92t28 70q6 33 -5 60l-1 1q-4 7 -12 7q-4 0 -7 -1q-7 -3 -19.5 -9t-30 -19t-40.5 -33.5t-51 -52.5q-23 -25 -53.5 -64t-63.5 -82.5t-66 -88.5t-61 -84t-48.5 -67t-28.5 -38q-13 -15 -23 -17t-18 1q-9 4 -16 13l-1 1l-1 1
q0 1 -1 2q-3 3 -4 6q-5 6 -10 13t-7 9q-2 3 -2 9.5t2 14.5q2 6 2.5 11t2.5 9q1 2 1 4v1q7 19 19.5 43t29.5 50q21 30 57.5 74t76.5 89.5t78 86t61 63.5l1 1q1 1 1 4q-2 2 -3.5 2.5t-3.5 1.5q-72 6 -172 0.5t-219 -37.5q-27 -7 -49 -18q-19 -9 -36 -22.5t-21 -31.5
q0 -6 -4 -6q-3 -1 -5 1l-1 1l-2 70q1 5 4 11q2 5 6 10.5t12 10.5q2 2 4 2q1 1 1.5 1t1.5 1q32 16 92 25t131.5 13t146 2t136.5 -8q2 -1 3 -1q1 -1 1.5 -1t1.5 -2l6 -21q5 -14 2.5 -25.5t-9.5 -23t-17 -22t-19 -20.5q-5 -6 -22.5 -24t-42 -44.5t-53.5 -58.5t-56.5 -65.5
t-51 -66t-36.5 -58.5q-2 -5 -3.5 -8t-3.5 -9q-2 -5 -4 -11t-4 -13q-1 -2 1.5 -3t10.5 7q4 4 28 35t60.5 76.5t81 100t89.5 106t85.5 94t69.5 64.5zM330 5h1h-1z" />
    <glyph glyph-name="Q" unicode="Q" horiz-adv-x="641" 
d="M626 153q-49 -61 -124 -116.5t-180 -86.5q-9 -3 -18 -5.5t-17 -4.5q7 0 13.5 -0.5t13.5 -1.5q32 -2 58 -4.5t41 -6.5q13 -3 17.5 -10t4 -15t-4.5 -16t-7 -12l-5 -8q0 -1 -1 -1h-2q-3 1 -1 5q3 3 1 7q-6 5 -19 8t-27 6q-28 4 -69 8t-84 6h-44h-16q-22 -1 -51 -3t-49 -7
q-8 -2 -15.5 -4t-15.5 -4q-2 0 -4 -2l-4 -4t-3 -4q-1 -1 -1 -2q-1 -1 -2 -1h-2q-1 1 -1 1.5t-1 1.5q0 4 0.5 8.5t1.5 9.5t2 11q0 2 1 5q1 4 9 10q1 0 1 0.5t1 0.5q7 4 17 7q3 1 5.5 1t5.5 1q30 8 76 11q-18 10 -26 24.5t-10 27.5q-3 15 1 31q4 21 11 40t17 36
q-32 14 -47.5 39.5t-10.5 65.5q6 43 38 87.5t84.5 82t122.5 64.5t153 36q82 9 135.5 -1.5t82 -34.5t35 -58t-3.5 -73q-7 -28 -23 -61.5t-42 -70.5q25 3 35 3h3q2 0 3.5 -1t3.5 -2q2 -3 5.5 -6t5.5 -6q1 0 1 -1.5t-5 -1.5q-22 1 -70 -9zM141 133q23 30 50.5 52.5t50.5 38.5
q27 18 55 31q22 11 42.5 18.5t39.5 12.5q35 9 62 12.5t44 3.5h15h5h6q14 0 22 -5q2 0 2 -1q2 -1 2.5 -1.5t2.5 -1.5q4 -3 6 -10v-5l-2 -14q-1 -6 -2 -13t-1 -12q0 -2 -3 -5q-1 0 -2 -1q-2 0 -3 1.5t-2 2.5q0 5 -6 9q-3 2 -6 2h-7q-36 0 -68.5 -5.5t-58.5 -11.5
q-30 -7 -56 -16q-5 -2 -9.5 -3.5t-9.5 -3.5q-32 -13 -60 -31q-33 -20 -66 -50q50 -3 136 10q82 12 151.5 21t118.5 14q48 52 65 92t20 53q1 6 4.5 20t1 30t-13.5 31.5t-38 25t-72.5 10.5t-117.5 -12q-107 -19 -174.5 -54.5t-105 -73.5t-51 -71t-13.5 -47q1 -10 9 -22.5
t37 -20.5zM125 14q1 -15 9 -23.5t20.5 -12.5t28 -4.5t31.5 1.5q38 4 86 19q89 32 151.5 69.5t104.5 75.5q-37 -8 -82 -18t-99 -21q-65 -13 -122 -16t-100 7q-29 -40 -28 -77z" />
    <glyph glyph-name="R" unicode="R" horiz-adv-x="749" 
d="M290 -64q-5 6 -10 13t-7 9q-3 3 -2.5 9.5t2.5 14.5q1 11 5 20q0 2 0.5 2.5t0.5 1.5v1q6 19 19 43t30 50q21 30 57 74t76 89.5t78 86t61 63.5q1 0 2 1t0 4q-1 1 -6 4q-72 6 -172.5 0.5t-219.5 -37.5q-27 -7 -49 -18q-19 -9 -35.5 -22.5t-20.5 -31.5q-2 -6 -4 -6
q-3 -1 -5 1l-1 1l-2 70q0 5 3 11q2 5 6.5 10.5t12.5 10.5q2 2 3 2l4 2q32 16 92 25t131.5 13t146 2t136.5 -8q2 -1 3 -1q1 -1 1.5 -1t1.5 -2l6 -21q5 -14 2.5 -25.5t-9.5 -23t-17 -22t-19 -20.5q-5 -6 -22.5 -24t-42 -44.5t-53.5 -58.5t-56.5 -65.5t-51 -66t-37.5 -58.5
q-2 -5 -3 -8l-3 -9q-3 -5 -4.5 -11t-3.5 -13q-1 -2 1 -3t11 7q4 3 23 27t48 61t65 82.5t75 91.5l24 28l24 28q45 52 85.5 94t69.5 64q16 13 33 23q14 8 31 14t31 2q11 -3 24 -11t20 -26.5t4 -50t-23 -79.5q-13 -27 -31 -53q-15 -23 -38 -50t-53 -51q-73 -56 -125 -58
q16 -66 40 -111t47 -73q16 -20 29.5 -29t23.5 -12q11 -4 21 -2q-20 -17 -39 -19t-34 2q-18 4 -33 16q-27 22 -47 53.5t-34.5 66t-23.5 71t-15 69.5v3q-1 3 1 7q1 2 1 3q2 3 8 16t10 22l4 4h3q2 0 2 -3v-2q-2 -5 0.5 -8.5t4.5 -5.5q1 -1 4 -3q6 -4 14 -4q8 -1 20 0.5t28.5 8
t38 20t48.5 35.5q55 51 77.5 92t27.5 70q5 33 -5 60l-1 1q-4 7 -11 7q-4 0 -7 -1q-7 -3 -19.5 -9t-30 -19t-40.5 -33.5t-51 -52.5q-17 -18 -37.5 -44t-43.5 -56q-12 -16 -25 -33t-26 -35q-32 -42 -62.5 -83.5t-56 -77t-44.5 -61t-27 -34.5q-12 -15 -22 -17t-18 1
q-9 4 -16 13l-1 1l-1 1q0 1 -1 2q-3 3 -4 6zM327 13h1h-1z" />
    <glyph glyph-name="S" unicode="S" horiz-adv-x="456" 
d="M478 330q-29 -14 -52 -33t-23 -40l4 -4q1 0 1 -1t-2 -3q-2 -4 -5 -1q-2 1 -3 2.5t-2 1.5q-2 2 -7 11.5t1 28.5q4 13 23.5 33.5t49.5 40.5q2 1 3 2q6 4 11.5 7.5t12.5 7.5q4 2 7 4t8 4q-29 6 -67 5t-70 -16q-26 -13 -33.5 -29t-5.5 -32.5t9.5 -31.5t13.5 -26q4 -7 17 -29
q34 -4 60 -11.5t43.5 -15.5t27.5 -14.5t12 -8.5l1 -1v-2l-5 -7l-1 -1q-2 -2 -2 -1q-32 9 -60 15t-55 8q9 -21 15 -45t3.5 -51t-16 -55t-42.5 -56q-48 -45 -101 -61.5t-100 -12t-82 25.5t-45 51t1.5 69.5t42.5 76.5t80 64.5t115 33.5q20 2 38.5 2.5t34.5 -0.5l-7.5 15
t-8.5 14q-13 19 -17 35.5t-4 29.5q0 15 4 27q12 29 38.5 48t57.5 30t62 14.5t52 1.5q20 -2 28 -13.5t10 -24.5q23 7 35 5q6 -1 10 -4q9 -8 17 -15q7 -6 12 -11.5t7 -7.5q2 -3 3.5 -6.5t-1.5 -5.5q-4 -1 -5 0q-1 0 -1 1q-8 5 -19.5 4t-22.5 -3q-13 -3 -27 -7
q-20 -8 -40.5 -15.5t-38.5 -16.5zM354 195q-72 1 -128 -16.5t-94.5 -42.5t-59.5 -52t-24 -45q-2 -18 2.5 -32.5t18.5 -25t40 -16t67 -3.5t74.5 16.5t57.5 35.5t38.5 44t19.5 43q5 23 1 46.5t-13 47.5z" />
    <glyph glyph-name="T" unicode="T" horiz-adv-x="265" 
d="M690 396q12 -5 23 -10q9 -5 16 -12t9 -15v-2q0 -2 3 -2q5 0 5.5 3.5t2.5 8.5v10.5t-1 18.5q-1 11 -1 24q-2 8 -10 15q-7 6 -22 12t-41 9q-41 4 -88 5.5t-103.5 0t-125 -6t-151.5 -12.5q-28 -3 -44.5 -1t-24.5 6t-10 9.5t0 9.5v4q0 5 -4 5t-5 -3t-3 -5q-8 -26 -6 -44
q2 -16 14 -28.5t46 -8.5q30 3 65.5 8t69 10t63 9.5t49.5 6.5q-6 -4 -10 -8q-2 -2 -4 -4.5t-4 -4.5q-3 -3 -4 -5q-11 -11 -25 -26.5t-28.5 -32l-29 -33t-26.5 -30.5q-26 -32 -55 -70.5t-55 -77t-46.5 -73.5t-30.5 -60q-3 -5 -4 -8t-3 -6q-5 -14 -7 -23v-3q0 -6 1 -9.5t3 -5.5
q2 -3 5 -4q7 -2 13 -5q5 -2 11 -4t11 -4q2 -2 5 0l2 2v4q-1 1 -1 2q-4 2 -4 10q0 4 1 7q7 19 17 40v-1q8 18 21.5 41.5t28 46t27 41t18.5 27.5q30 41 63 80.5t62 72.5t51 57t30 34q2 2 5 6q2 3 5.5 6.5t6.5 7.5q4 6 1 9q-2 2 -5 2q-3 1 -7 2q-3 1 -6.5 1.5t-6.5 1.5
q19 1 46.5 1.5t60 -2t69 -9t72.5 -18.5zM690 396q12 -5 23 -10q9 -5 16 -12t9 -15v-2q0 -2 3 -2q5 0 5.5 3.5t2.5 8.5v10.5t-1 18.5q-1 11 -1 24q-2 8 -10 15q-7 6 -22 12t-41 9q-41 4 -88 5.5t-103.5 0t-125 -6t-151.5 -12.5q-28 -3 -44.5 -1t-24.5 6t-10 9.5t0 9.5v4
q0 5 -4 5t-5 -3t-3 -5q-8 -26 -6 -44q2 -16 14 -28.5t46 -8.5q30 3 65.5 8t69 10t63 9.5t49.5 6.5q-6 -4 -10 -8q-2 -2 -4 -4.5t-4 -4.5q-3 -3 -4 -5q-11 -11 -25 -26.5t-28.5 -32l-29 -33t-26.5 -30.5q-26 -32 -55 -70.5t-55 -77t-46.5 -73.5t-30.5 -60q-3 -5 -4 -8t-3 -6
q-5 -14 -7 -23v-3q0 -6 1 -9.5t3 -5.5q2 -3 5 -4q7 -2 13 -5q5 -2 11 -4t11 -4q2 -2 5 0l2 2v4q-1 1 -1 2q-4 2 -4 10q0 4 1 7q7 19 17 40v-1q8 18 21.5 41.5t28 46t27 41t18.5 27.5q30 41 63 80.5t62 72.5t51 57t30 34q2 2 5 6q2 3 5.5 6.5t6.5 7.5q4 6 1 9q-2 2 -5 2
q-3 1 -7 2q-3 1 -6.5 1.5t-6.5 1.5q19 1 46.5 1.5t60 -2t69 -9t72.5 -18.5z" />
    <glyph glyph-name="U" unicode="U" horiz-adv-x="556" 
d="M394 393q-55 -36 -114.5 -84t-118.5 -108q-20 -21 -34 -41q-12 -17 -19.5 -36.5t0.5 -33.5q2 -5 0 -8q-4 -2 -5 -2t-2 1l-46 46q-3 5 -4 10t-0.5 11t5.5 14q0 1 2 3q1 1 1 1.5t1 1.5h-1q13 18 37 41.5t56.5 49.5t71.5 54t81 55q5 3 10 7q5 3 11.5 7t14.5 9q17 10 39 22.5
t44.5 23t42.5 17t34 4.5q2 -1 4 -1t3 -1q6 -2 11 -5q11 -7 17 -17q5 -9 4 -24t-17 -36q-2 -2 -4 -5l-4 -6h-1q-30 -33 -75 -85t-89 -110h1q-37 -56 -51.5 -93.5t-16.5 -60t5 -31.5t13 -9t25.5 19.5t40.5 42.5q25 27 55 62q66 78 112 130q14 18 27.5 35t26.5 32
q12 15 26.5 31.5l29 33t28 32t24.5 26.5q6 8 12 14q5 5 9.5 10t6.5 7q4 5 11 10t13 3q2 -1 7.5 -2t10.5 -2q6 -2 13 -3q3 0 5 -2q3 -3 -1 -10q-3 -4 -6 -7l-6 -6q-4 -4 -6 -7l-32 -36t-55.5 -63t-67 -78.5t-65.5 -82.5q-6 -9 -18.5 -27.5t-26.5 -41t-27.5 -46t-21.5 -41.5
q-5 -10 -9 -19.5t-9 -20.5q-1 -3 -1 -6q0 -2 1 -5t4 -5q0 -1 1 -2.5t0 -3.5q-2 -2 -3 -2q-1 -1 -5 -1q-5 2 -11 4.5t-11 4.5q-6 3 -12 5q-3 0 -5 3q-2 2 -3.5 6t-1.5 10l1 2q0 10 7 24q2 3 3 6t3 8q3 8 7 16l9 18q-35 -42 -64 -73.5t-41 -34.5q-13 -4 -23 -1t-18 8
q-9 6 -17 15q-9 13 -12 24q-8 22 -4.5 47t12.5 49.5t20.5 46t21.5 36.5l6 10t5 8q3 4 5 6l1 1q20 26 39 51.5t37 46.5q46 55 87 99v1q5 7 9 13q3 5 3.5 11.5t-4.5 11.5q-5 4 -16 2t-23.5 -8t-25 -13.5t-20.5 -12.5z" />
    <glyph glyph-name="V" unicode="V" horiz-adv-x="502" 
d="M192 1q2 3 3 6t4 8q14 32 43 79t64 97q2 2 2 2.5t1 2.5q20 26 39.5 51.5t37.5 47.5q20 23 43.5 49.5t43.5 49.5q5 5 8.5 14t-4.5 17q-5 4 -16 2t-23.5 -8t-25 -13.5t-20.5 -12.5q-55 -36 -114.5 -84t-118.5 -108q-20 -21 -34 -41q-12 -17 -19.5 -36.5t0.5 -33.5
q2 -5 0 -8q-4 -2 -5 -2t-2 1l-46 46q-3 5 -4 10t-0.5 11t5.5 14q0 1 2 3q1 1 1 1.5t1 1.5h-1q13 18 37 41.5t56.5 49.5t71 54t80.5 55h1q5 3 10 7q5 3 11 7t14 9q17 10 39 22.5t44.5 23t43 17t34.5 4.5q2 -1 4 -1t3 -1q2 -1 5 -2l5 -2.5t6 -3.5l6 -6t6 -8q5 -9 4.5 -23
t-14.5 -34q-2 -1 -2 -1.5t-1 -1.5q-3 -3 -9 -11q-31 -33 -75.5 -85t-88.5 -110q-1 -1 -1.5 -2t-2.5 -3q-6 -9 -18.5 -27.5t-27 -41t-28 -46t-21.5 -41.5q-5 -10 -9 -19.5t-7 -19.5q121 123 229 230q46 46 94 92.5t92 88.5t81.5 76.5t63.5 55.5q22 19 39.5 20t29.5 -6
q14 -8 25 -24q1 -2 2 -4.5t-2 -5.5q-4 -3 -7 -1q-2 1 -3 2q-4 5 -17 3t-42 -27q-2 -2 -25 -22t-60 -51.5t-84 -72.5t-97 -85t-100 -88.5t-93 -84t-75.5 -71t-47.5 -48.5q0 -1 -1 -1t-1 -1q-2 -1 -5 -1q-5 2 -11 4.5t-11 4.5q-6 3 -12 5q-3 0 -5 3q-5 5 -5 16l1 2q0 9 6 24z
" />
    <glyph glyph-name="W" unicode="W" horiz-adv-x="618" 
d="M502 456q2 -1 5 -2l5 -2.5t6 -3.5l6 -6t6 -8q5 -9 4.5 -23t-14.5 -34l-3 -3q-2 -2 -4 -5l-4 -6q-30 -33 -75.5 -85t-89.5 -110q-1 -1 -1.5 -2t-2.5 -3q-6 -9 -18.5 -27.5t-27 -41t-28 -46t-21.5 -41.5q0 -2 -2 -4h1l-8 -18l-8 -18v-1q60 75 114.5 136.5t97 107t70.5 73.5
t35 34q7 8 13 14.5t11 11.5l5 5q2 2 4 4.5t4 4.5q5 5 12 10t12 3q2 -1 8 -1.5t11 -2.5q6 -2 13 -3q2 0 4 -2q3 -3 -1 -9q-3 -4 -6 -7.5t-5 -6.5q-3 -4 -6 -6q-6 -8 -21 -24.5t-35.5 -39.5t-45 -51t-49.5 -59q-17 -22 -30.5 -40.5t-21.5 -31.5q-14 -21 -26 -42t-19 -38
q-3 -7 -6 -13.5t-6 -14.5q17 17 56 56.5t89.5 90.5t108.5 108t113.5 110t103 97.5t78.5 69.5q22 19 39.5 20t29.5 -6q14 -8 25 -24q1 -2 2 -4.5t-3 -5.5q-3 -3 -6 -1q-2 1 -3 2q-2 3 -6 4t-11 -1t-17 -8.5t-25 -18.5q-3 -2 -25.5 -21.5t-58.5 -50.5t-82.5 -71t-96 -84
t-99.5 -88t-93 -83.5t-76 -71t-49 -50.5q0 -1 -2 -3l-3 -2q-3 -2 -6 -2h-2l-21 8q-6 3 -8.5 9.5t-3.5 9.5q0 2 -0.5 3t0.5 3q0 1 -0.5 1.5t-0.5 1.5q1 5 2.5 10.5t5.5 13.5q2 7 6 13q7 17 18.5 38t26.5 45v1q14 24 29 43q2 2 3.5 5l2.5 5q-36 -40 -67.5 -77t-54.5 -66
q-27 -33 -50 -63q-1 0 -1.5 -0.5t-1.5 -0.5q-1 -1 -5 -1q-5 2 -11 4.5t-11 4.5q-6 3 -12 5q-3 0 -5 3q-5 5 -5 15q0 2 1 3q0 3 1 5q0 7 6 19q1 4 6 14q14 32 43 79t64 97q3 3 3 5q20 26 39.5 51.5t38.5 47.5q19 23 42.5 49.5t43.5 49.5q5 5 8.5 14t-4.5 17q-5 4 -15.5 2
t-23.5 -8t-25.5 -13.5t-20.5 -12.5q-55 -36 -114.5 -84t-118.5 -108q-20 -21 -34 -41q-12 -17 -19 -36.5t1 -33.5q0 -2 0.5 -4t-1.5 -4q-4 -2 -5 -2t-2 1l-46 46q-3 5 -4 10t-0.5 11t5.5 14q0 1 2 3q1 1 1 1.5t1 1.5q12 18 36.5 41.5t56.5 49.5t71 54t81 55q5 3 10 7
q5 3 11.5 7t14.5 9q17 10 39 22.5t44.5 23t42.5 17t34 4.5q2 -1 4 -1t3 -1z" />
    <glyph glyph-name="X" unicode="X" horiz-adv-x="637" 
d="M719 323q-45 -30 -96 -69q-4 -36 -10.5 -77t-15.5 -80t-19.5 -73t-20.5 -57q-4 -10 -5 -14q-8 -15 -13 -22q-1 -1 -3 -2q-5 -5 -8.5 -7t-6.5 -3q-4 -1 -7 -1q-8 0 -15 1q-6 1 -12 1t-11 1q-5 2 -5 3l1 2q0 2 2.5 3t2.5 2q5 0 11 6q3 3 4 6q5 10 9.5 20t8.5 20
q8 18 15.5 43t13.5 49.5t10 45t6 29.5q2 14 4.5 27.5t4.5 27.5q-45 -38 -72.5 -61.5t-45.5 -40t-31 -29t-29 -28.5l-8 -8t-8 -9q-3 -2 -6 -5l-5 -5t-3 -4q-3 -5 -2 -9q3 -3 -1 -5q-1 0 -2 -1q-2 0 -4 2t-4.5 6t-4.5 8q-3 4 -5 8q-1 2 -1 5v5t2 8q1 0 2 1q2 4 4 7q1 1 2 1.5
t2 1.5q20 22 39 41.5t43.5 42.5t59 53t85.5 74q6 57 8 98.5t4 56.5v1q0 1 -0.5 1.5t0.5 2.5q-72 5 -169 -0.5t-210 -36.5q-27 -7 -49 -18q-19 -9 -36 -23t-21 -31q0 -5 -4 -7q-6 0 -6 3l-2 70q0 5 3 11q2 5 6.5 10.5t12.5 10.5q2 2 4 2q1 1 1.5 1t1.5 1q31 15 91.5 24.5
t132 13t146.5 2t136 -7.5q3 -1 6 -3q6 -4 9 -12q2 -8 1 -12v-17q-1 -20 -3 -43.5t-4 -48.5q52 43 99.5 76.5t85.5 52.5q20 10 32.5 9.5t19.5 -5.5t10 -13t4 -14l1 -11v-2q0 -2 -2 -2q-3 -1 -5 3l-2 4t-5 2q-15 -4 -40 -18.5t-49 -30.5q-28 -18 -60 -41z" />
    <glyph glyph-name="Y" unicode="Y" horiz-adv-x="557" 
d="M759 418q-9 -11 -40 -45.5t-70 -80.5q-2 -2 -20.5 -25.5t-46.5 -61.5t-62 -86t-67 -98q-12 -19 -25 -37.5t-27 -37.5q-23 -30 -49 -57t-55 -45t-61 -25t-66 2q-3 1 -3 5q0 2 1 3q2 3 4.5 3.5t4.5 0.5h1q6 0 17 1t25 6t30.5 14.5t34.5 26.5q19 18 42.5 48.5t50.5 70.5
q2 3 11 15.5t14 19.5q-15 -17 -30.5 -34t-29 -31t-23.5 -23.5t-15 -10.5q-13 -4 -23.5 -1t-18.5 8q-9 6 -16 15q-9 13 -12 24q-8 22 -4.5 47t12.5 49.5t20.5 46t21.5 36.5l6 10t5 8q3 4 5 6l1 1q19 26 38.5 51.5t37.5 46.5q23 28 44.5 52.5t42.5 46.5l-1 1q6 7 10 13
q3 5 3.5 11.5t-4.5 11.5q-5 4 -16 2t-23.5 -8t-25 -13.5t-20.5 -12.5q-55 -36 -114.5 -84t-118.5 -108q-20 -21 -34 -41q-12 -17 -19.5 -36.5t0.5 -33.5q2 -5 0 -8q-7 -4 -7 -1l-46 46q-3 5 -4 10t-0.5 11t5.5 14q0 1 2 3q0 1 2 3h-1q13 18 37 41.5t56.5 49.5t71 54t80.5 55
q5 3 10 7q5 3 11.5 7t14.5 9q17 10 39 22.5t44.5 23t43 17t34.5 4.5q2 -1 4 -1t3 -1l10 -5q5 -3 9.5 -7t8.5 -10q5 -9 4 -24t-17 -36q-2 -3 -4.5 -5.5t-4.5 -5.5h-1q-15 -17 -34 -38.5t-40.5 -46.5t-44 -53t-44.5 -57h1q-37 -56 -51.5 -93.5t-16.5 -60t5 -31.5t13 -9
t25.5 19.5t40.5 42.5q25 27 55 62q29 34 54.5 65t47.5 57q2 2 9 10.5t10 12.5q12 15 22.5 27t21.5 25q12 15 27 31.5t29.5 33t28 32t24.5 26.5l12 14q5 5 9 10t6 7q4 5 11.5 10t13.5 3q2 -1 7.5 -2t10.5 -2q6 -2 13 -3q3 0 5 -2q3 -3 -1 -10q-3 -4 -6 -7l-6 -6q-4 -4 -6 -7z
" />
    <glyph glyph-name="Z" unicode="Z" horiz-adv-x="425" 
d="M675 401q0 -1 -1 -1t-1 -1q-2 -2 -4 -1t-3 1q-3 4 -10 4q-4 0 -6 -1q-11 -5 -21 -9t-20 -9q-18 -9 -42 -23t-46.5 -28.5t-41 -27t-26.5 -18.5q-25 -19 -60.5 -47.5t-74.5 -61.5t-79 -68t-75 -65.5t-62 -54.5t-41 -36q45 1 94 6t102 16q27 5 50 14q20 8 37 20.5t22 30.5
q2 2 2.5 4t2.5 2q6 0 6 -3l-4 -71q-1 -6 -4 -11q-2 -5 -7 -10.5t-13 -9.5q-1 -1 -1.5 -1t-1.5 -1q-1 0 -1.5 -0.5t-1.5 -0.5q-21 -9 -54.5 -14t-75 -7t-88 -1t-93.5 4h-6q-2 0 -2.5 0.5t-1.5 0.5t-1 1l-3 13q-1 4 -2 8.5t-2 9.5q-1 4 -3 8q-2 5 3 12.5t10 11.5l13 13
q11 11 30.5 28.5t41 36t42 37t35.5 30.5q28 24 72.5 61.5t95.5 78.5t105 79t102 64q-46 -2 -96 -8t-104 -18q-27 -6 -49 -16q-19 -8 -36 -21t-22 -31q-2 -2 -3 -4t-3 -2q-5 0 -5 3l2 71q1 6 4 11q2 5 6.5 10t12.5 10q1 1 1.5 1t1.5 1q1 0 1.5 0.5t1.5 0.5q23 10 61.5 16.5
t86 9.5t100.5 2t105 -4h3q1 0 1.5 -0.5t1.5 -0.5l17 -1h4q4 -2 6 -5q2 -5 4 -9t3.5 -8t3.5 -9q2 -2 2.5 -3.5t1.5 -3.5v-5z" />
    <glyph glyph-name="backslash" unicode="\" horiz-adv-x="190" 
d="M188 41l-5 -5q-3 -3 -11 -9q-3 -4 -12 -9.5t-18 -10.5t-16 -9.5t-7 -5.5q-3 0 -4 3q0 2 2 4l2 2q9 8 14 21.5t7 28.5t2.5 30.5t-0.5 27.5t-3.5 40t-5.5 62.5t-7 72.5t-7 70.5t-5.5 56t-2.5 29.5q-2 22 0 32.5t1 9.5l10 10q5 3 12.5 10t15 14.5l13 13t7.5 5.5q2 1 5 -3
q0 -3 -2 -5q-1 -1 -2 -1q-6 -8 -8.5 -20t-3.5 -23q-1 -13 0 -28q1 -14 3.5 -43t6 -65t7.5 -75t7.5 -74.5t6 -63t3.5 -39.5q0 -14 -1 -28t-4 -26z" />
    <glyph glyph-name="underscore" unicode="_" horiz-adv-x="691" 
d="M20 -364q-33 -2 -45 10.5t-13 29.5q-1 19 9 44q2 3 3 5.5t5 2.5q4 -2 4 -5v-4q-2 -4 -0.5 -9.5t9 -10t23.5 -7.5t43 -1q83 4 151 5.5t124 1t102.5 -4.5t87.5 -10q26 -4 40 -10.5t21 -12.5q8 -7 9 -15v-25v-18.5t-1 -10.5q-1 -5 -2 -9t-6 -2q-3 -2 -3 2v2q-1 8 -8.5 15.5
t-15.5 12.5q-10 6 -22 11q-64 24 -124 30.5t-121.5 4.5t-127.5 -10t-142 -12z" />
    <glyph glyph-name="grave" unicode="`" horiz-adv-x="142" 
d="M104 342q0 -7 7.5 -14.5t18 -13.5t22.5 -9.5t21 -3.5q5 0 7 4t10 4q6 0 6 -2q-1 -2 -1.5 -3.5t-1.5 -3.5t-3 -3q-10 -14 -17 -19.5t-30 -5.5q-21 0 -34.5 4.5t-20.5 10.5t-9.5 12t-1.5 9q5 15 10.5 26.5t10.5 11.5q3 0 5 -2q1 -1 1 -2z" />
    <glyph glyph-name="a" unicode="a" 
d="M106 3q-6 3 -12 13t-2 27q6 28 15 42.5t7 14.5q-3 -5 -21 -22t-39.5 -35t-41 -32t-25.5 -14q-5 0 -11 10t1 42q5 25 25 65.5t69 97.5q9 9 19 17q8 7 18 12.5t20 5.5q4 0 10 -2q9 -5 18.5 -10t17.5 -10q9 -5 18 -11l13.5 13.5t17.5 9.5q10 0 18.5 -11t6.5 -21
q-1 -4 -6.5 -9t-17.5 -18.5t-31.5 -40.5t-48.5 -75q-1 -2 -3 -5q-4 -6 -4 -8q0 -1 1 -1q2 0 14 12q19 19 32 32.5t21 21.5t12.5 11.5t7.5 3.5q9 0 7 -8q-1 -3 -3.5 -6t-3.5 -5q-26 -26 -46 -47q-17 -18 -33 -34t-18 -19q-10 -10 -14 -10t-8 3zM6 28q4 1 13 8.5t21.5 19.5
t27.5 27.5t30 30.5q35 36 78 82q-16 14 -27 14q-14 0 -29.5 -15.5t-41.5 -47.5q-20 -24 -34 -45.5t-22 -38.5q-11 -19 -16 -35z" />
    <glyph glyph-name="b" unicode="b" horiz-adv-x="190" 
d="M234 341q-15 -17 -36 -39.5t-42.5 -46.5t-41.5 -48t-35 -45q24 19 45 35q17 14 33.5 26.5t21.5 15.5q10 6 17 6q1 0 5 -1t7.5 -6t5 -16t-2.5 -31q-5 -26 -28 -62.5t-76 -82.5q-17 -13 -34 -23q-14 -9 -31 -16t-32 -7q-11 0 -14.5 3.5t-2.5 7.5q1 6 11.5 13.5t27 19
t38 29.5t45.5 45q0 1 8 10t18.5 21.5t20 27.5t12.5 29q2 4 -2 4t-12 -7q-6 -5 -26 -20.5t-46 -38.5t-52.5 -52t-44.5 -60q-3 -3 -6.5 -11.5t-7.5 -17.5t-7 -15.5t-4 -6.5q-3 0 -8 2t-8.5 6t-5.5 11t0 18q1 2 1.5 5.5t2.5 6.5q7 19 28 53t49.5 74t60.5 81.5t59.5 76.5t47 59
t23.5 29q6 7 5.5 10.5t-2.5 8.5q0 2 -1 3.5t4 3.5q2 1 3.5 0t3.5 -2q24 -13 29.5 -20t1.5 -25q-2 -9 -8 -17.5t-18 -23.5z" />
    <glyph glyph-name="c" unicode="c" horiz-adv-x="154" 
d="M126 138q-2 1 -3 4q-2 5 4 12q6 5 10.5 10t7.5 9q4 4 6 8q5 7 7 12.5t0 7.5q-2 1 -5 1q-2 -1 -3.5 -1t-2.5 -1q-2 -1 -2 -2q-20 -16 -40 -37.5t-39 -43.5q-6 -8 -11.5 -14.5t-11.5 -13.5q-18 -26 -30 -46q-2 -3 -4.5 -8.5t-4 -11.5t0.5 -10t9 -3q16 2 39.5 15t46 30.5
t41.5 34.5t28 27l1 1q1 0 1 1q2 2 6.5 5t9.5 0q1 -1 2 -3q2 -4 -4 -12q-23 -26 -51 -49.5t-55 -40t-50 -25t-34 -4.5q-19 3 -24 15t-4 19q0 19 10.5 42.5t24.5 44.5q16 25 36 49q40 47 69.5 66t46.5 21q13 2 18 -3q6 -5 8 -11.5t3 -12.5q0 -7 -1 -15q-6 -20 -17 -36.5
t-25 -28.5v-1q-2 -1 -6.5 -2.5t-7.5 1.5z" />
    <glyph glyph-name="d" unicode="d" horiz-adv-x="215" 
d="M131 67q-2 -2 -2.5 -4t-2.5 -4q-5 -8 -6 -12q-1 -3 1 -2.5t12 11.5t21 22l20 20l21 21q2 3 6 5q7 4 12 0t0.5 -9.5t-6.5 -7.5q-26 -26 -46 -47q-17 -18 -32.5 -34.5t-18.5 -19.5q-8 -8 -14 -9q-2 0 -8 2q-9 5 -11.5 13.5t-1.5 18t5 19.5t8 19q2 5 4.5 8.5t4.5 5.5
q-9 -8 -20.5 -19.5t-24 -22.5t-24 -21t-19.5 -15q-22 -14 -28 -11t-9 14q-1 5 -0.5 20t9 39.5t28.5 60t58 81.5q12 12 24 21q10 8 21.5 12.5t21.5 -0.5q17 -8 32.5 -17t20.5 -13q18 23 36 46.5t30 39.5q12 15 23 29t20 25l2 1q6 8 11 14.5t9 11.5q13 14 23 29q2 2 3 6
q1 3 1.5 6.5t-1.5 6.5q-1 1 -1 2q0 2 3 4q0 1 2 1q1 1 5 -1l16 -16q4 -4 10 -9l1 -1q5 -3 4 -11t-3 -13q-3 -9 -14 -23q-2 -2 -4.5 -5t-6.5 -7q-2 -2 -4.5 -5t-4.5 -5q-32 -34 -70.5 -80t-73.5 -89q-1 -1 -2 -3t-2 -3.5t-3 -3.5q-11 -14 -30 -40t-35 -52zM140 158
q5 7 13.5 16t17.5 20q-11 10 -20.5 12t-20 -4t-23.5 -20t-32 -38q-20 -24 -33 -45.5t-22 -38.5q-11 -19 -17 -35q5 1 21.5 14.5t37.5 33t42 42.5t36 43z" />
    <glyph glyph-name="e" unicode="e" horiz-adv-x="157" 
d="M79 102q-8 -4 -18 -7.5t-21 -5.5q-14 -19 -24 -35.5t-15 -27.5v-1v-1q-1 -4 -0.5 -10t10.5 -4q17 2 39.5 15.5t44.5 31.5t41 35.5t28 27.5v1l1 1q3 2 7 5t8 0q2 -1 3 -3q2 -4 -4 -12q-22 -26 -47.5 -49.5t-51 -41t-48.5 -26t-39 -5.5q-20 3 -24.5 15t-5.5 19
q0 19 11 42.5t25 44.5q16 25 36 49q26 31 48 50t39 28t28.5 9.5t16.5 -3.5q6 -5 8.5 -11.5t3.5 -12.5q1 -7 -1 -15q-8 -29 -27 -49.5t-36 -33.5q-1 0 -10 -6t-25 -14h-1zM61 117q9 2 18.5 6t19.5 11q12 8 21 16.5t15 15.5q7 8 12 15t7 12.5t-1 7.5q-4 2 -8 0q-3 -1 -4 -3
q-20 -17 -40 -38t-40 -43z" />
    <glyph glyph-name="f" unicode="f" horiz-adv-x="132" 
d="M-91 -95q-10 13 -6 39q4 23 23 61.5t68 98.5q14 18 29 36.5t30 35.5q-9 3 -16 8t-4 16q0 2 3 2q5 0 14.5 -1t23.5 -1q54 61 98.5 110.5t64.5 78.5q-46 -10 -94 -25t-84 -20q-27 -3 -43.5 -1t-24.5 7q-10 4 -13 12q-4 12 -7 23q-2 9 -4 16.5t-2 9.5q1 5 2 8.5t5 4.5
q2 0 4 -2l1 -1q4 -6 13 -10.5t18 -7.5q11 -4 23 -6q26 -4 60.5 -2.5t70 5.5t67 9.5t51.5 11.5q5 0 7 -2q2 -4 5.5 -12t1.5 -19q-1 -5 -6 -13q-3 -4 -17 -19.5t-35 -39t-47 -52.5t-54 -61q20 3 34 11h1q2 0 2 -2q0 -3 -2.5 -8t-8.5 -10.5t-16.5 -10t-28.5 -7.5q3 -9 3 -25.5
t-13 -50.5q-11 -26 -37 -63t-57 -69.5t-59.5 -52t-43.5 -10.5zM94 155q-23 -27 -44.5 -54t-39.5 -51t-31.5 -44.5t-20.5 -35.5q-5 -9 -7 -16q-2 -6 -2 -10.5t5 -2.5q4 1 17 13t29.5 30t34.5 40.5t32 46t22 45.5t5 39z" />
    <glyph glyph-name="g" unicode="g" 
d="M106 -1q-4 2 -8 7.5t-6 14.5q-10 -12 -20 -23t-18 -21q11 -2 21.5 -3t18.5 -3q16 -3 24 -7t12 -8t5 -9v-15q0 -6 -0.5 -11t-0.5 -7q-1 -2 -1.5 -4.5t-3.5 -2.5q-2 0 -2 2v1q-1 10 -14 17q-6 4 -13 7q-16 8 -32.5 12.5t-32.5 7.5q-8 -9 -15.5 -18t-16.5 -19q-3 -4 -11 -13
t-17.5 -17.5t-19.5 -13t-18 0.5l-18 10t-17 12q-2 2 -2.5 4t-1.5 4q-1 3 -1 6q0 12 7 19q3 4 7 6q9 6 19.5 12.5t20 13t17.5 11.5t12 8q1 0 3 1q2 0 3.5 0.5t3.5 0.5t4 -0.5t4 -0.5q12 14 25.5 27.5t27.5 28.5q-11 -11 -21 -19t-17 -13q-22 -14 -28 -11.5t-8 13.5
q-2 6 -1.5 21t9 39.5t28.5 60t58 81.5q12 12 24 21q10 8 21.5 12t21.5 0q10 -5 19.5 -10t17.5 -10q9 -5 17 -11l1 1q1 1 3.5 3t7.5 7q17 19 33 7q8 -6 11.5 -16t-2.5 -17q-11 -13 -34 -38.5t-51 -57.5q-2 -2 -6 -8t-8.5 -13t-8 -14t-4.5 -13q-1 -2 -1 -5t2 -3.5t6 2t11 10.5
q10 11 21 22l20 20l21 21q2 3 6 5q7 4 11 0q5 -4 0.5 -10t-6.5 -8q-26 -26 -46 -47q-17 -18 -33 -34t-18 -19q-12 -13 -22 -7zM-44 -64q3 3 6 6.5t8 8.5l-51 -32q0 -1 -2.5 -4t0.5 -7l2 -2q1 -1 4.5 -0.5t8.5 5.5q6 6 12 12.5t12 12.5zM7 25q3 1 12.5 8.5t22 19.5t27.5 27.5
t30 30.5q35 36 78 82q-12 10 -21.5 12.5t-20 -3.5t-24 -20t-32.5 -38q-20 -24 -33 -45.5t-22 -38.5q-11 -19 -17 -35z" />
    <glyph glyph-name="h" unicode="h" horiz-adv-x="208" 
d="M131 54q-3 -6 -3 -9t14 11l72 63q2 3 6 5q7 4 11 0q5 -4 0.5 -10t-6.5 -8q-28 -26 -51 -47q-20 -18 -37 -34t-19 -19q-12 -13 -22 -7q-5 4 -11 13.5t-3 26.5q0 1 1 10.5t10 29.5t29.5 50t60.5 72l1 1q1 1 1 2q0 2 -2 0q-1 0 -15.5 -8.5t-35.5 -22t-44 -31.5t-41 -37
q-20 -24 -33.5 -42t-19.5 -29q-3 -3 -5.5 -6.5t-4.5 -7.5v-1l-9 -12q-1 -2 -2 -5q-2 -5 1 -8q1 -1 1 -2q0 -2 -1 -3q-1 0 -1 -0.5t-1 -0.5q-2 0 -4 1q-3 2 -6.5 5t-6.5 5q-4 3 -7 6q-2 0 -3 3q-1 2 -2 5t1 8v2q2 4 3 7q1 1 1 1.5t2 2.5q16 29 36 59.5t42 62.5q0 1 2 3
q1 1 1 2q7 9 14.5 18.5t15.5 18.5q2 2 3.5 4t2.5 4t2 3l1 1q17 20 32.5 37.5t27.5 32.5q10 13 21 25q10 11 21.5 23.5t23.5 25.5l6 8l6 8l24 30q2 2 3 6q2 7 -1 12q-1 1 -1 2q0 2 3 4q0 2 2 2q3 0 5 -1q3 -4 7.5 -8t9.5 -8t10 -9l2 -4q1 -3 1 -11q1 -2 -1 -8q-1 -1 -1 -3
q-2 -7 -14 -22q-2 -3 -4.5 -6t-5.5 -7q-4 -2 -8 -9l-2 -1q-18 -20 -42 -47t-47 -53q-5 -6 -9.5 -11.5t-9.5 -11.5q-2 -2 -8 -9.5t-17 -19.5q24 17 58 37.5t63 31.5q7 2 13 -2q1 -1 2 -1t3 -1q8 -7 12 -17.5t-3 -17.5q-3 -5 -15 -18q-24 -29 -44 -55q-17 -23 -34.5 -45
t-26.5 -35h-1z" />
    <glyph glyph-name="i" unicode="i" horiz-adv-x="91" 
d="M110 242q5 3 14 -1q2 -1 2 -1.5t2 -1.5q8 -6 13 -16.5t-2 -18.5l-6 -6t-11 -12q-25 -28 -48 -54q-20 -22 -39 -45t-28 -36q-2 -5 1.5 -8t19.5 11q10 8 24 20t26 23q14 12 29 25q2 2 6 4q7 3 12 1q5 -5 0.5 -10.5t-6.5 -7.5l-56 -50q-21 -19 -39.5 -35.5t-21.5 -19.5
q-5 -6 -13.5 -8.5t-15.5 1.5q-5 4 -11.5 13.5t-2.5 26.5q0 1 1.5 8t8 20.5t20 34.5t37.5 50q11 14 22 27.5t21 24.5q6 6 10.5 11.5t8.5 9.5t7 8l5 5q3 3 9 7h1zM242 319q-7 0 -14.5 -4.5t-15 -10.5t-14 -12t-10.5 -10l-1 -1q-1 -2 -3 -4l-1 -1q-2 -2 -2 -3q-5 -5 -9 -10.5
t-4 -10.5l4 -2q2 -1 3.5 -2t3.5 -2q-1 -2 -1 -4q-1 -2 -1 -3.5t-2 -1.5q-2 -1 -9 1q-3 1 -5 2h-2l-4 2q-7 2 -15.5 5t-8.5 8q-2 7 1.5 23.5t15.5 30.5q9 9 13 12q8 6 15 9t12 5h3q2 0 3 0.5t3 0.5q4 0 10.5 -1t13 -1.5t12 -1.5t7.5 -2q4 -1 7.5 -2t0.5 -5q-2 -4 -4 -4
q-1 -1 -2 0z" />
    <glyph glyph-name="j" unicode="j" horiz-adv-x="99" 
d="M-21 -3q-3 1 -9 9q-7 -8 -13 -14.5t-11 -13.5q11 -1 21 -2t19 -3q15 -3 22.5 -7.5t11.5 -8.5t5 -9v-32q-2 -3 -2.5 -5t-3.5 -2q-1 0 -1 1v2q-2 9 -13 17q-5 4 -13 7q-34 14 -66 20q-12 -14 -20 -23.5t-12 -13.5v-1q-2 -2 -4 -5t-4 -5q-4 -4 -6.5 -7t-5.5 -5
q-5 -6 -10.5 -10.5t-9.5 -6.5q-1 -1 -2 -1q-3 -2 -5 -2.5t-4 -1.5q-6 -2 -9.5 -1t-5.5 2q-1 0 -1 1q-6 3 -11 7l-10 6l-10 6l-1 1v1l-2 1q-2 2 -2.5 4t-1.5 4q-1 3 -1 6q-1 6 1.5 10.5t4.5 7.5q3 4 7 6q19 11 40 26t31 20q1 1 2 1h6h8q13 15 32 37.5t38.5 45t37 42.5
t26.5 31q6 4 9 11q7 8 13 15t13 15q-1 0 -6 2t-11 4l-1 8q-3 1 2 4q2 1 5 1q14 5 22 8.5t24 12.5q2 2 3.5 4t3.5 4q1 2 2 2l5 5q6 6 8 7q1 0 1 0.5t1 0.5q7 2 14 -2q2 0 4 -2q8 -7 12.5 -17t-2.5 -18q-2 -2 -6 -6.5t-10 -11.5q-25 -29 -48 -55q-20 -23 -39 -45t-28 -35h-1
q-2 -6 7.5 -7t23.5 14q9 11 20 22l20 20l21 21q3 3 7 5q7 3 10 0q5 -4 1 -9.5t-6 -7.5q-24 -25 -44 -46q-17 -18 -32.5 -34t-20.5 -20q-6 -6 -20 -11.5t-20 -0.5zM-154 -62l6.5 6.5l8.5 8.5l-52 -33q-2 -1 -3 -3q-2 -4 1 -8q1 0 1 -0.5t1 -0.5q2 -1 5 -0.5t8 5.5
q7 6 12.5 12t11.5 13zM253 322q-14 -2 -30.5 -15.5t-24.5 -22.5l-1 -1q-2 -2 -2 -2.5t-1 -1.5l-1 -1q-2 -1 -2 -1.5t-1 -1.5q-4 -5 -8 -10.5t-5 -10.5l4 -2q2 -1 3.5 -2t3.5 -2v-4q0 -5 -3 -5h-4.5t-4.5 1q-3 1 -5 2q-1 1 -2 1q-3 0 -5 1q-6 2 -14 5t-10 8q-2 7 2 23.5
t16 30.5q9 9 13 12q8 6 15 9t11 5h1q0 1 2 1h6q4 0 10.5 -1t13.5 -1.5t12.5 -1.5t7.5 -1q4 -2 7.5 -3t1.5 -5q-3 -3 -4 -3h-2z" />
    <glyph glyph-name="k" unicode="k" horiz-adv-x="205" 
d="M190 154q-2 -2 -5 -2q-6 0 -4 4v2q0 1 1 1l11 9q5 23 0 28.5t-8 5.5l-2.5 -0.5t-12 -5.5t-28 -17t-49.5 -34q-1 -21 2.5 -40t8 -33.5t9 -22.5t5.5 -8q2 1 5 3t11 8q42 41 64.5 59.5t25.5 18.5q8 0 6 -8q-1 -4 -3.5 -7t-3.5 -4l-54 -52q-21 -20 -39 -37t-21 -20
q-8 -9 -18 -9q-11 0 -19 13.5t-13.5 31.5t-9 36t-4.5 28q-20 -24 -33.5 -42t-20.5 -29q-4 -6 -11 -14t-9 -19q-1 -3 1 -5.5t1 -5.5l-3 -3q-3 0 -4 1q-15 11 -21 14t-3 16q3 12 11 29t20 35t25.5 37t26.5 36q39 48 79.5 96.5t88.5 101.5q3 4 9 10.5t12.5 14t11.5 15.5t6 14
q1 4 -0.5 6.5t-0.5 7.5q1 1 1.5 2t2.5 2q4 0 5 -1q17 -14 25 -20t7 -19q-4 -13 -18.5 -32.5t-37.5 -45.5t-52.5 -59t-62.5 -72q25 17 58.5 37.5t62.5 31.5q14 0 21.5 -8.5t2.5 -27.5q-3 -13 -12 -21h-1zM231 399q-18 -5 -31.5 -8.5t-26 -7t-26.5 -6t-34 -3.5q-19 -2 -30 1
t-17 6q-7 4 -10 9q-5 11 -9 21q-4 8 -7 16t-2 10v7q2 5 4 6q-1 0 6 -3.5t17 -8t20 -8.5t16 -5q16 -3 29 -5.5t27.5 -4t32.5 0t45 6.5q6 0 12.5 -5t11.5 -12t7.5 -13.5t2.5 -10.5l-7 3.5t-11 5t-12 4.5t-8 2l-1 1q0 1 0.5 1t0.5 1z" />
    <glyph glyph-name="l" unicode="l" horiz-adv-x="108" 
d="M74 357q-8 -1 -14 -1.5t-12 -0.5q-18 0 -29 3t-16 7q-6 4 -8 10q-4 11 -7 22q-2 8 -4 16.5t-1 10.5q-1 2 0 3.5t1 3.5q2 5 4 6q-1 0 5.5 -4.5t15.5 -10.5t18 -10.5t15 -4.5q18 -4 41.5 -4t50.5 2.5t55 7t55 9.5q6 0 13 -5t13 -11.5t10 -13t4 -10.5q-6 -14 -24 -36.5
t-43.5 -51t-56 -63t-62.5 -73.5q-34 -39 -55 -66.5t-26 -40.5v-5t2 -3t9 4t15 12q41 36 57 52.5t22 16.5q9 0 7 -8q-1 -4 -3.5 -6.5t-3.5 -4.5q-27 -26 -49 -47q-19 -18 -35.5 -34t-19.5 -19q-4 -5 -13.5 -9.5t-13.5 -5.5q-9 0 -13.5 5t-6 12.5t-1 15.5t2.5 15
q6 23 14.5 37.5t10.5 17.5v1l10 15q5 7 8 11.5t5.5 8.5t6 9.5t10.5 14.5q20 25 32.5 40.5t23 28t21.5 25t26.5 30.5t38.5 45.5t59 69.5v1t0.5 1t0.5 1q-43 -10 -88 -24t-78 -18z" />
    <glyph glyph-name="m" unicode="m" horiz-adv-x="325" 
d="M238 51q-2 -6 9.5 -7t25.5 15q10 11 20.5 22t19.5 20l21 21q3 2 7 4q7 3 10 0q5 -4 1 -9.5t-6 -7.5q-26 -26 -46 -47q-17 -18 -32.5 -34t-18.5 -19t-9 -6.5t-13 -5.5t-13.5 -2t-9.5 2q-5 3 -11.5 12.5t-3.5 26.5q0 1 2.5 10.5t13.5 29.5t33.5 50t62.5 72q1 0 1 1v2
q0 1 -2 1q-1 0 -12.5 -7t-29 -18t-38 -26t-38.5 -31q-7 -8 -14.5 -16.5t-13.5 -16.5q-18 -23 -30 -39q-4 -5 -7 -9t-5 -7q-3 -4 -5.5 -7.5t-4.5 -6.5v-1q-2 -3 -4.5 -6t-4.5 -7q-1 -2 -1 -3v-5q-1 -2 1 -5v-2v-3q-1 0 -3 -1q-2 0 -3 1q-4 3 -8.5 7t-9.5 6l-3 3q-2 0 -3 3
q-2 5 -1 13q1 1 1 2q0 2 1 3.5t1 3.5h1q0 2 2 4q3 5 6 10.5t7 10.5q5 9 10.5 18.5t11.5 18.5q16 23 30.5 44t33.5 43q5 5 10 10.5t11 11.5v1q0 1 0.5 1t0.5 1q-1 1 -3 1q-1 0 -15.5 -8.5t-35.5 -22.5t-44 -32t-41 -37q-38 -47 -53 -70q-2 -4 -4.5 -7.5t-5.5 -6.5v-1
q-2 -3 -4.5 -6t-4.5 -7q-1 -2 -1 -5q0 -2 -0.5 -4t1.5 -4q1 0 1.5 -1.5t-1.5 -3.5l-2 -1q-3 0 -3 1q-5 3 -9.5 7t-9.5 6l-2 2q-1 0 -1 1q-2 0 -3 3q-2 5 -1 13l2 2q0 1 2 7q0 1 1 2t1 2q14 26 32 53.5t37 56.5q17 23 29.5 40.5t15.5 21.5q3 5 6 8.5t6 7.5q2 2 3 6
q1 3 1.5 6.5t-1.5 6.5q-1 0 -1.5 2t1.5 4q2 1 4 1q1 1 4 -1q4 -3 8 -7.5t9 -8.5q4 -4 10 -9q8 -4 2 -25q-2 -5 -5.5 -10t-8.5 -12q12 9 27 19t31.5 20t33 18.5t31.5 13.5q7 2 14 -1q2 -1 4 -3q9 -6 13.5 -16.5t-2.5 -18.5l-6 -6t-9 -10q23 16 50 31.5t50 23.5q6 2 14 -1
q1 -1 2 -1.5t2 -1.5q9 -6 13 -16.5t-3 -18.5q-2 -2 -6 -6.5t-10 -11.5q-25 -28 -48 -54q-20 -22 -39 -45t-28 -36h-1z" />
    <glyph glyph-name="n" unicode="n" horiz-adv-x="189" 
d="M106 7q-14 -11 -20 -11t-11 4q-6 4 -12 13.5t-3 26.5q0 1 2 10.5t13 29.5t33.5 50t62.5 71l1 1q1 1 1 3q-1 0 -1 0.5t-2 -0.5q-1 0 -15.5 -8.5t-35.5 -22.5t-44 -32t-41 -37q-19 -24 -32.5 -41.5t-20.5 -28.5q-2 -4 -4.5 -7t-4.5 -7l-1 -1l-4 -6l-4 -6q-1 -2 -2 -5
q-2 -6 1 -9q1 0 1 -1t-2 -3q0 -1 -1 -1h-4q-4 3 -9 7t-8 7q-2 0 -2 0.5t-1 0.5t-1 1q-2 1 -3 4q-1 2 -1.5 4.5t1.5 7.5v2q1 2 1 3.5t2 3.5q0 2 1 2.5t1 1.5q14 26 32 54t37 56q17 23 29.5 40.5t14.5 21.5v1q7 7 13 16q2 2 3 6q2 8 0 12q-1 1 -1 2q0 3 2 4q0 2 2 2q3 0 5 -1
q3 -4 7.5 -8t9.5 -8t10 -9l2 -4q2 -6 2 -11t-2 -8q0 -2 -1 -3q-3 -10 -13 -21q24 17 58.5 38t64.5 32q5 3 14 -1q1 -1 2 -1.5t2 -1.5q8 -6 13 -16.5t-3 -18.5q-2 -2 -5.5 -6l-10.5 -12q-26 -28 -49 -54q-20 -22 -38.5 -45t-27.5 -36q-3 -5 2 -9t19 12q10 11 21 22l21 21
q11 11 23 22q2 2 6 4q6 4 11 1q5 -5 0.5 -10.5t-6.5 -7.5q-26 -26 -47 -48q-18 -19 -34 -35.5t-19 -18.5z" />
    <glyph glyph-name="o" unicode="o" horiz-adv-x="159" 
d="M-7 -2q-15 6 -22.5 18t-5 31t16.5 45t41 60q29 35 50 54t35 27q16 10 26 9q7 -1 14 -3q6 -2 11.5 -4.5t10.5 -4.5q8 -5 8.5 -13t0.5 -11q0 -2 -1 -4t-4 -3q-4 0 -4 2q-1 1 0 2q0 5 -4 7q-2 1 -3 1q-5 1 -12 -3t-15 -11q10 4 19 3.5t12 -2.5l5 -5t4.5 -8.5t-0.5 -14.5
t-10 -23q7 1 16 3.5t16.5 3.5t10.5 -1t-3 -10q-4 -6 -10.5 -8.5t-13.5 -3.5t-14 -1.5t-13 -2.5q-11 -20 -39 -52q-41 -48 -68.5 -63t-38.5 -16q-5 -1 -9.5 0t-6.5 2zM131 168q-5 -5 -4.5 -9.5t2.5 -6.5q3 -4 7 -5h5q13 23 7 27q-5 3 -11 -1q-4 -2 -6 -5zM79 138
q-22 -26 -35.5 -45t-20.5 -32.5t-9.5 -21t-2.5 -11.5t3 -5q9 -1 23 8t30 24t31.5 33t27.5 35q-13 2 -19.5 10.5t-3.5 23.5q1 5 5 13q-7 -6 -12 -11.5t-9 -10.5z" />
    <glyph glyph-name="p" unicode="p" horiz-adv-x="202" 
d="M14 29h7.5t19.5 6t32 21.5t45 46.5q15 21 23.5 32.5t14 19t8.5 13t8 14.5q-30 -23 -56 -44q-23 -18 -47 -37.5t-39 -32.5q-18 -21 -35.5 -41t-31.5 -36.5t-24 -28.5t-14 -18l-1 -1q-1 -1 -1 -2q-11 -14 -21 -27t-17 -24q-5 -8 -9.5 -16t-10.5 -16q-1 -3 -1 -6v-5t2 -5
q1 0 1.5 -1.5t-1.5 -3.5q0 -1 -1 -1q-4 -1 -5 0l-7.5 5t-8.5 6q-5 4 -10 7q-2 1 -3 4q-3 5 -2 14l2 2q0 9 8 20q2 3 6 11q7 10 15 22t19 25q29 39 65.5 84.5t69.5 86t58 70t31 37.5l1 1q13 19 31 10q10 -5 15 -14t0 -17l-14 -17v1q-9 -11 -18.5 -22.5t-20.5 -24.5
q15 13 32 28t32.5 28t26.5 22t13 11t5 3q4 1 8 0l12 -12l9 -9q1 -2 2 -5q1 -5 -3 -15q-3 -6 -14 -27t-28 -48t-40 -55t-50 -46q-16 -9 -30 -14q-12 -5 -25 -7t-22 3l-25 19q-1 1 -1.5 3t1.5 4q3 4 6 1q6 -2 8 -2z" />
    <glyph glyph-name="q" unicode="q" 
d="M236 239q10 -5 15.5 -13.5t0.5 -16.5l-1 -1l-13 -15q-2 -2 -2.5 -3t-2.5 -3q-8 -10 -16 -20.5t-19 -22.5q0 -1 -3 -4q-15 -18 -31 -37.5t-32 -38.5l-10 -12t-10 -11q-2 -5 3.5 -6t18.5 11q11 10 25 23.5t26 24.5q14 13 29 27q2 3 6 5q7 4 11 0q5 -4 1 -9.5t-6 -7.5
q-30 -30 -55 -54q-21 -20 -39.5 -38t-23.5 -20q-8 -4 -15.5 -8t-13.5 1l-6 4q-17 -21 -29.5 -36.5t-17.5 -21.5v-1q-1 -1 -2 -1v-1q-11 -14 -20 -27.5t-16 -24.5q-5 -8 -10 -16.5t-10 -16.5q-1 -3 -1 -6v-4.5t2 -4.5q0 -1 1 -2.5t-1 -3.5l-2 -1q-3 -1 -4 0q-4 2 -8 5t-9 5
l-10 6q-2 1 -3 4q-3 5 -2 14v2q1 7 9 21q1 2 3 4.5t4 6.5q6 10 14 22t19 26q19 26 41 55.5t45 58.5q-14 -14 -28 -26t-24 -18q-21 -14 -27 -11.5t-9 13.5q-2 5 -1.5 20t9 40t28.5 60t58 81q12 12 24 21q11 8 22.5 12.5t21.5 -0.5q18 -8 35 -18.5t21 -12.5q2 2 3.5 4t2.5 4
q2 1 2 3h1q8 11 14.5 13.5t16.5 -2.5zM175 192l3 3l3 3l-3 2q-11 10 -20.5 12.5t-20 -3.5t-24.5 -20.5t-33 -38.5q-20 -24 -33 -45.5t-22 -37.5q-11 -19 -17 -35q4 1 17.5 12t30.5 27.5t36.5 36t36.5 37t29.5 30.5t16.5 17z" />
    <glyph glyph-name="r" unicode="r" horiz-adv-x="168" 
d="M115 56q0 -2 -1 -6.5t-9 -2.5q-11 5 -15.5 9t-6.5 9q-11 19 2 46t34 53q-18 -12 -37 -27t-33 -31q-19 -24 -32.5 -41.5t-20.5 -28.5h1q-3 -4 -5.5 -7.5t-4.5 -7.5q-1 0 -1 -1l-4 -6l-4 -6q-1 -2 -2 -5q-2 -5 1 -8q1 -1 1 -2t-2 -3l-1 -1q-3 0 -4 1q-3 2 -8.5 6t-8.5 7
q-1 1 -1.5 1t-1.5 1q-1 0 -1 1q-2 0 -3 3q-3 5 0 13l1 2q0 1 2 7q1 1 1.5 2t1.5 2q14 26 31.5 53.5t37.5 56.5q16 23 28.5 40.5t14.5 20.5v1q5 4 8 8t5 8q2 2 3 6q2 8 0 12q0 1 -0.5 3t1.5 4q1 1 2 1q2 1 5 -1q4 -3 8 -7.5t9 -8.5q4 -4 10 -9q1 -1 2 -3t2 -4.5t1 -6.5v-1
q-1 -2 -1 -3.5t-1 -3.5q0 -1 -0.5 -1.5t-0.5 -1.5q-2 -5 -5 -10t-8 -12q10 7 21.5 15t24.5 16q3 2 12 8.5t18 14.5q3 2 5 4l4 4t4 3t3 2t3 1h1q6 0 15 -6q10 -5 13 -15v-4v-1q1 0 1 -1q-1 -2 -1.5 -4t-2.5 -4q-6 -9 -16 -19t-19 -18l-22 -20q-28 -27 -41.5 -49t-20.5 -36
q-2 -6 3 -8l5 -3v0z" />
    <glyph glyph-name="s" unicode="s" horiz-adv-x="192" 
d="M222 97q-2 -6 -6 -8.5t-8 -2.5q-12 0 -30 -0.5t-39 -2.5q-8 -26 -16 -43q-10 -20 -30 -30t-39 -15h-1q-11 -2 -20 -1.5t-13 1.5h-2q-2 0 -2 1q-2 1 -3.5 1.5t-3.5 1.5q-4 3 -6 9q-1 2 -1 4v42q0 4 4 9q3 4 9 9t18 10q11 4 26.5 8t36.5 7q4 11 9.5 30.5t8.5 30.5q0 3 2 7
q1 2 1 3q3 14 9 24.5t11 15.5q0 1 2 3l1 1q2 2 3.5 4t3.5 4q6 7 11.5 11t10.5 7q1 0 2 1q3 1 5 1.5t4 1.5q10 2 13 1t4 -2l12 -8q5 -3 10 -7t9 -6t2 -5v-2q-5 -5 -8 -2q-6 1 -13 -2q-4 -2 -6 -4q-3 -4 -6.5 -7t-6.5 -7q-15 -16 -25.5 -39.5t-19.5 -48.5q31 3 68 3
q1 0 5.5 -1.5t3.5 -7.5zM11 45h1h-1zM38 48q20 5 31 12.5t18 15.5q-32 -5 -55 -14q-5 -3 -9 -6q-7 -6 1 -8h3h11z" />
    <glyph glyph-name="t" unicode="t" horiz-adv-x="97" 
d="M91 153q-5 -6 -6 -6.5t-7 -8.5q-20 -26 -35.5 -44.5t-27.5 -36.5q-1 -1 -3 -5q-2 -9 0 -13q2 -3 8 -0.5t22 17.5q22 20 41 41q11 11 21 22l6 4q6 4 11 1q5 -4 0.5 -10t-6.5 -8q-26 -26 -46 -47q-17 -18 -33 -34t-18 -19q-4 -4 -18 -10t-18 -6q-5 0 -7 2q-1 1 -1.5 1
t-1.5 1q-10 7 -10.5 18.5t3.5 24.5q1 1 1 2q8 26 25 52t37 54q7 10 18.5 25t25 32t28 34.5t29.5 34.5l10 12q5 5 11 12.5t14 16.5q-8 -1 -9.5 -1.5l-4.5 -1.5q-1 0 -3 -2q-4 -4 -5 -8q0 -1 -1 -2t-3 -1h-2q0 1 -0.5 1.5t-0.5 1.5v18q0 5 1 11q0 2 1 5q2 5 8 10q2 1 3 1
q10 4 16 5.5t11.5 2.5t11.5 1.5t16 2.5q3 3 4 5l24 30q2 2 3 6q2 7 -1 12q0 1 -0.5 3t1.5 4q1 1 3 1q1 1 5 -1l7.5 -7.5t9.5 -8.5t10 -9q1 -1 2 -3q2 -4 2 -11l-1 -1q1 -2 -1 -8l-1 -2q0 -2 -2 -4q23 2 43.5 2h39.5q8 -1 16.5 -1h18.5q32 1 58 -0.5t42 -4.5q14 -2 19 -8.5
t5 -14.5t-3.5 -16t-6.5 -12l-5 -8l-1 -1h-2q-1 0 -1.5 1.5t1.5 2.5q0 2 1 3.5t-1 3.5q-7 4 -20 6.5t-27 4.5q-29 2 -70.5 3.5t-85.5 0.5q-38 -2 -52 -3q-19 -21 -43 -48t-47 -53q-5 -5 -9.5 -11t-8.5 -11q-3 -3 -13.5 -15t-24.5 -30z" />
    <glyph glyph-name="u" unicode="u" horiz-adv-x="202" 
d="M225 126q5 -4 0.5 -10t-6.5 -8q-25 -26 -45 -47q-17 -18 -32.5 -34t-18.5 -19t-9 -6t-12.5 -4.5t-13 -2t-9.5 1.5q-5 4 -11 13.5t-4 26.5q1 1 2 7t8 19q-18 -16 -37 -32.5t-30 -24.5q-21 -14 -27 -11.5t-9 13.5q-1 5 0 17t7 31t19.5 45.5t36.5 60.5q1 1 1 1.5t2 1.5
q10 15 17.5 25.5t9.5 12.5v1l6 8l6 8q2 2 3 6q2 8 0 12q-3 3 1 7q1 0 1.5 0.5t1.5 0.5q3 0 5 -1q3 -4 7.5 -8t8.5 -8t10 -9q1 -1 2 -3q2 -4 2 -11v-1q0 -2 -2 -8v-2q-3 -10 -14 -22q-3 -5 -7 -10t-8.5 -10.5t-9.5 -11.5q-19 -23 -32.5 -44t-23.5 -37q-11 -18 -20 -34
q5 1 21.5 16t37.5 35.5t43 43.5t39 41q9 11 18 21.5t17 19.5q5 6 9.5 11t8.5 9l8 8q1 2 4 5q2 2 4 3.5t4 3.5q1 0 2 1q9 2 14 -2q1 -1 2 -1t3 -1q8 -7 12 -17.5t-3 -17.5q-2 -2 -6 -6.5t-10 -11.5q-26 -29 -48 -55q-20 -23 -38.5 -45t-27.5 -35q-3 -6 7.5 -7.5t24.5 13.5
q10 11 20.5 22t19.5 20l21 21q3 3 7 5q7 3 10 0z" />
    <glyph glyph-name="v" unicode="v" horiz-adv-x="200" 
d="M238 191l-4 -6l-2 -2q-9 -9 -26.5 -24.5t-39.5 -33.5t-45.5 -36.5t-43.5 -33.5q-17 -14 -29.5 -23.5t-17.5 -13.5t-9 -7t-7 -5q-21 -14 -27 -11.5t-9 13.5q-1 5 -1 17t5 31t17 45.5t35 60.5q1 1 1 1.5t2 1.5q11 15 18 25.5t9 12.5v1l6 8l6 8q2 2 3 6q2 8 0 12q0 1 -0.5 3
t2.5 4l2 1q3 0 5 -1q3 -4 7.5 -8t8.5 -8t10 -9q1 -1 2 -3q2 -4 2 -11v-1q1 -3 -2 -8v-2q-3 -10 -14 -22q-3 -5 -7 -10t-8.5 -10.5t-9.5 -11.5q-19 -23 -32 -44t-21 -37q-10 -18 -16 -34q4 1 13 8.5t22 19.5t28 27t30 31q14 15 30.5 32.5t30.5 33.5t24 27t12 13q1 2 2 3t2 3
q2 2 3 6q1 3 1.5 6.5t-1.5 6.5q-1 1 -1 2q0 3 2 4q1 1 3 1q1 1 4 -1q2 -2 4 -3.5t4 -3.5l6.5 -6.5t6.5 -5.5l6 -6q1 -1 2 -3q2 -4 2 -11v-1q0 -4 -2 -7v-3q-1 -4 -4 -8z" />
    <glyph glyph-name="w" unicode="w" horiz-adv-x="307" 
d="M345 191q-2 -5 -3 -6l-2 -2q-9 -9 -27 -24.5t-39.5 -33.5t-45 -36.5t-43.5 -33.5q-17 -14 -29.5 -23.5t-17.5 -13.5t-9 -7t-7 -5q-22 -14 -28 -11.5t-9 13.5q-1 5 -1 19.5t7 37.5q-4 -3 -7 -5.5t-6 -4.5q-17 -14 -29.5 -23.5t-17.5 -13.5t-9 -7t-7 -5q-21 -14 -27 -11.5
t-9 13.5q-1 5 -1 17t5 31t17 45.5t35 60.5q1 1 1 1.5t2 1.5q11 15 18 25.5t9 12.5v1l6 8l6 8q2 2 3 6q2 8 0 12q0 1 -0.5 3t2.5 4l2 1q3 0 5 -1q3 -4 7.5 -8t8.5 -8t10 -9q1 -1 2 -3q2 -4 2 -11v-1q1 -3 -2 -8v-2q-3 -10 -14 -22q-3 -5 -7 -10t-8.5 -10.5t-9.5 -11.5
q-19 -23 -31.5 -44t-20.5 -37q-10 -18 -16 -34q5 3 16 11t24.5 19t28.5 24t29 26q4 8 8 15t9 15q4 6 8 12.5t9 13.5q1 1 1 1.5t2 1.5q10 15 17.5 25.5t9.5 12.5v1l6 8l6 8q2 2 3 6q2 8 0 12q-3 3 1 7q1 0 1.5 0.5t1.5 0.5q3 0 5 -1l11 -11l10 -10q3 -3 5 -4q1 -1 2 -3
q2 -4 2 -11v-1q0 -2 -2 -8v-2q-3 -10 -14 -22q-3 -5 -7 -10t-8.5 -10.5t-9.5 -11.5l-1 -1q-18 -23 -31 -43.5t-21 -36.5q-10 -18 -16 -34q3 1 12.5 8.5t22 19.5t28 27t30.5 31q14 15 30.5 32.5t30.5 33.5t24 27t12 13q1 2 2 3t2 3q2 2 3 6q2 6 0 13q-1 0 -1.5 2t1.5 4
q2 1 4 1q1 1 4 -1q2 -2 4 -3.5t4 -3.5l6.5 -6.5t6.5 -5.5l6 -6q1 -1 2 -3q2 -4 2 -11v-1q-1 -2 -1 -3.5t-1 -3.5v-3q-2 -2 -2.5 -4t-2.5 -4z" />
    <glyph glyph-name="x" unicode="x" horiz-adv-x="201" 
d="M162 6q0 -1 1 -1q1 -1 1 -2v-2t-4 -2l-12.5 -2.5l-12.5 -2.5q-2 -1 -4 -1h-1q-2 -1 -5 0q-6 0 -10 6v2q-1 2 -2 3t-1 3q-1 1 -1 4q-5 17 -8 39.5t-7 45.5q-10 -9 -25 -24t-31 -30.5t-30 -29t-21 -20.5h1q-4 -3 -7 -6t-6 -5q-5 -5 -8.5 -8t-5.5 -5q-2 -1 -4 -3t-4 -3
q-2 -2 -3 -2.5t-2 -1.5q-2 -1 -3 -1q-5 -2 -8 -2.5t-5 -0.5q-3 0 -4 1l-1 1q-1 0 -3 2q-4 2 -9.5 6t-9.5 6q-1 1 -1 3v2q1 1 5 1q5 -1 8.5 1.5t4.5 2.5v1q3 2 14.5 11t28.5 23q10 8 26.5 23t34.5 31.5t35.5 32t29.5 26.5q-2 2 0 4q-4 24 -7 45t-3 25l1 1q-1 5 -1.5 9t-0.5 9
q0 3 -2 6q-3 4 -9 6q-1 0 -3 1t-1 3q0 2 2 3q0 2 4 2q5 1 12 2l14 2t15 2h5q6 -2 10 -5v-1q2 -1 4 -5l1 -2q5 -8 5 -22q0 -6 1 -13q0 -6 0.5 -13.5t1.5 -15.5q4 4 7.5 7t6.5 6q23 22 41.5 34t33.5 17.5t26.5 6.5t20.5 1l4 -2q3 -3 2 -9q-2 -7 -9 -9.5t-11 -3.5
q-5 -2 -9 -3.5t-10 -3.5q-14 -5 -32.5 -15.5t-35.5 -26.5q-7 -6 -15 -13.5t-19 -16.5q2 -7 1 -10q2 -27 2 -52t1 -36q2 -10 3 -14v-2q1 -3 1 -6t1 -6q0 -2 2 -4q4 -4 8 -4z" />
    <glyph glyph-name="y" unicode="y" horiz-adv-x="209" 
d="M244 241q8 -6 12.5 -16.5t-2.5 -18.5q-2 -2 -5.5 -6t-11.5 -12q-26 -28 -48 -54q-20 -22 -38.5 -45t-27.5 -36q-2 -3 0.5 -5.5t7.5 -3t11.5 2t13.5 10.5q10 11 21 22l20 20l21 21q1 2 4 4q5 3 10 1q5 -5 0.5 -10.5t-6.5 -7.5q-26 -26 -46 -47q-17 -18 -32.5 -34
t-18.5 -19q-6 -6 -20.5 -9t-20.5 1q-2 2 -4.5 3.5t-4.5 4.5q-6 -7 -11 -13l-10 -12q11 -2 21 -3t18 -3q16 -3 24 -7t12 -8t5 -9v-15q0 -6 -0.5 -11t-0.5 -6q0 -8 -4 -7q-3 0 -3 1v1q-1 5 -4.5 9.5t-8.5 8.5t-13 7q-17 7 -33.5 11.5t-32.5 7.5q-12 -14 -20 -23t-12 -14
q-2 -2 -4 -5t-3 -5q-4 -4 -6.5 -7t-5.5 -5q-6 -7 -11 -11t-9 -6l-3 -2q-6 -2 -8 -3q-6 -2 -9.5 -1t-5.5 2h-1q-6 3 -11 7q-5 3 -10 6.5t-10 6.5h-1l-3 2q-4 3 -4 9v6q0 10 6 18q3 4 7 6q19 11 40 25.5t30 19.5q1 0 3 1t6 1h8q7 7 14 14.5t15 15.5q4 3 10 10q-15 -13 -25 -19
q-21 -14 -26.5 -11.5t-8.5 13.5q-1 5 -1.5 17t4.5 31t17 45.5t36 60.5q2 2 2 3q11 14 18 24.5l9 13.5v1q7 7 13 16q2 2 3 6q2 8 0 12q-1 1 -1 2q0 3 2 4l2 2q3 0 5 -1q3 -4 7.5 -8t9.5 -8t10 -9l2 -4q2 -6 2 -11q0 -2 -0.5 -4t-0.5 -4q0 -1 -1 -1.5t-1 -1.5q-3 -9 -12 -21
l-8 -10t-8 -10.5t-9 -11.5q-19 -23 -32.5 -44t-21.5 -37q-10 -18 -16 -34q5 1 21.5 15.5t37.5 35.5t43 44t39 41q8 11 17.5 21t17.5 19q5 6 9.5 11.5t8.5 9.5l8 8l5 5q5 5 8 7h1q6 2 13 -1q4 -2 5 -3zM-41 -59q3 3 6 6.5t8 8.5l-50 -32q-1 -1 -3.5 -4t0.5 -7q1 -1 2 -1
q2 -1 5 -1t8 5q7 7 12.5 13t11.5 12z" />
    <glyph glyph-name="z" unicode="z" horiz-adv-x="160" 
d="M160 178l-10.5 -5.5t-24.5 -13t-29.5 -17t-26.5 -17t-15 -12t6 -3.5q12 2 21.5 3t15.5 3q10 2 18.5 -2t3.5 -10l-16 -18q0 -1 -4 -5q-3 -4 -8.5 -10.5t-14.5 -19.5q-3 -6 6.5 -7t23.5 14q9 11 20 22l20 20l21 21q3 3 7 5q7 3 10 0q5 -4 1 -9.5t-6 -7.5q-24 -25 -44 -46
q-17 -18 -32.5 -34t-20.5 -20q-3 -3 -8.5 -6t-12 -5t-12 -2.5t-8.5 1.5q-3 1 -9 9q-7 -8 -13 -14.5t-11 -13.5q11 -1 21 -2t19 -3q15 -3 23 -7.5t12 -8.5t5 -9v-32q-2 -3 -2.5 -5t-3.5 -2q-1 0 -1 1v2q-2 10 -14 17q-6 4 -13 7q-33 14 -65 20q-12 -14 -20 -23.5t-12 -13.5
v-1l-8 -10q-4 -4 -6.5 -7t-5.5 -5q-5 -6 -10.5 -10.5t-9.5 -6.5q-1 -1 -2 -1l-9 -4q-6 -2 -9.5 -1t-5.5 2q-1 0 -1 1q-6 3 -11 7l-10 6l-10 6l-1 1v1l-2 1q-2 2 -2.5 4t-1.5 4q-1 3 -1 6q-1 6 1.5 10.5t4.5 7.5q3 4 7 6q19 11 40 26t31 20q1 1 2 1h6h8q16 19 25 29.5
t14 16.5l7.5 9t6.5 8t10.5 13.5t20.5 24.5l-15 -4q-16 -6 -20 6q0 7 2 19.5t14 26.5l10 9.5t26 23t36.5 29t43.5 27.5h1l2 2q1 0 0.5 0.5t-2.5 0.5q-13 2 -23.5 3t-19.5 3q-5 0 -5 2t2 4.5t4.5 4.5l2.5 2q6 0 19 -0.5t27 -1t27.5 -1.5t20.5 -2q6 -4 10 -15q2 -11 -2.5 -23.5
t-12.5 -14.5q-3 -1 -8.5 -3t-14.5 -4zM-76 -47l-52 -33q-2 -1 -3 -3q-2 -4 1 -8q1 0 1 -0.5t1 -0.5q2 -1 5 -0.5t8 5.5q7 6 12.5 12t11.5 13z" />
    <glyph glyph-name="exclamdown" unicode="&#xa1;" horiz-adv-x="246" 
d="M-34.9775 -63.9717q5 12 10.999 25.499q6 13.499 14.999 27.498q7 11.999 23.999 37.998q16.999 25.998 39.4971 59.4961q22.499 33.498 47.4971 70.9961q24.999 37.4971 47.4971 71.9951q22.499 34.498 40.998 61.9961q18.499 27.499 26.498 40.498q5 7.99902 9 15.999
q3.99902 6.99902 7.99902 15.499q4 8.49902 6 16.499q4 9.99902 3 16.499q-1 6.49902 1 11.499q0 2 1.99902 3q2 1 3 1t3.5 -5.5t5.5 -13.499q2.99902 -8 6.99902 -16.499q4 -8.5 8 -13.499l3.99902 -11q-0.999023 2 -4.49902 -8.49902t-17.499 -31.498
q-4 -6 -18.499 -28.498q-14.499 -22.499 -35.498 -53.4971q-20.998 -30.998 -44.9971 -66.9961q-23.999 -35.9971 -45.4971 -68.9951q-21.499 -32.998 -38.998 -59.4971q-17.499 -26.498 -24.498 -38.4971q-8 -13.999 -17.999 -31.498t-15.999 -34.498
q-3 -11.999 -4 -22.499q-1 -10.499 1 -18.499q1 0 1 -1t0.5 -1.49902q0.5 -0.5 -0.5 -2.5q-2 -4 -7 -4h1q1 1 -3.49902 6q-4.5 4.99902 -10.5 10.999q-5.99902 6 -10.999 12.499q-5 6.5 -7 10.499q-1.99902 3 -2.49902 6t-2.5 5q-1 3 -3 4.99902zM367.998 473.996
q-11 -1 -21.999 -10q-10.999 -8.99902 -19.999 -19.998q-8.99902 -11 -14.999 -21.999q-5.99902 -10.999 -7.99902 -15.999t0.5 -6.5q2.5 -1.49902 5.49902 -1.99902q3 -0.5 5 -1.5t0 -7q-1 -3 -4.5 -3h-6.49902q-7 2 -6.5 1.5t-5.49902 1.5q-2 0 -3.5 0.5t-3.5 0.5
q-17.999 2 -21.999 12.999q-3.99902 11 3 31.998q4 10 9.5 20.499q5.49902 10.499 15.999 17.999q10.499 7.49902 27.998 11.499t44.4971 0q4 0 8 -0.5q3.99902 -0.5 2.99902 -4.5q-1.99902 -5.99902 -5.99902 -5.99902z" />
    <glyph glyph-name="dieresis" unicode="&#xa8;" horiz-adv-x="139" 
d="M77 314q5 8 18 8q10 0 22 -6t10 -19q-4 -9 -11.5 -12.5t-21.5 2.5q-8 2 -11.5 5.5l-5.5 5.5q-2 3 -2 5q1 2 1 4q0 5 1 7zM137 292q8 8 18 8t22 -6t9 -19q-2 -10 -10 -13.5t-22 3.5q-8 2 -12 5.5t-6 5.5q-3 3 -2 5q0 2 1 4t1 3.5t1 3.5z" />
    <glyph glyph-name="guillemotleft" unicode="&#xab;" horiz-adv-x="594" 
d="M533 239q-22 -14 -52 -23t-59 -16l-24 -4q-19 -5 -39 -10t-40 -11q17 -7 35 -12t35 -10l22 -4q26 -7 52.5 -16t42.5 -23v-6v-12q1 -1 1 -2q0 -3 -1 -10.5l-2 -15t-2 -14t-1 -8.5q-2 -4 -3 -7.5t-4 -1.5q-4 0 -4 2q-1 1 0 2q-1 12 -13 22.5t-22 16.5q-23 13 -48 21.5
t-51 16t-51 15t-48 18.5q-5 -3 -5.5 5.5t1.5 20t6.5 21t9.5 9.5q30 11 59.5 18.5t58 15t56 15.5t54.5 21q12 6 28.5 16.5t23.5 22.5q0 1 1 2t4 2q4 2 4 -1.5v-7.5q0 -2 -2.5 -8.5t-5 -14t-4.5 -15t-3 -10.5l-2 -2q-2 -4 -2.5 -7t-2.5 -5q-2 -3 -3 -6zM327 239
q-22 -14 -52 -23t-59 -16l-24 -4q-19 -5 -39 -10t-40 -11q17 -7 35 -12t35 -10l22 -4q26 -7 52.5 -16t42.5 -23v-6v-12q1 -1 1 -2q0 -3 -1 -10.5l-2 -15t-2 -14t-1 -8.5q-2 -4 -3 -7.5t-4 -1.5q-4 0 -4 2q-1 1 0 2q-1 12 -13 22.5t-22 16.5q-23 13 -48 21.5t-51 16t-51 15
t-48 18.5q-5 -3 -5.5 5.5t1.5 20t6.5 21t9.5 9.5q30 11 59.5 18.5t58 15t56 15.5t54.5 21q12 6 28.5 16.5t23.5 22.5q0 1 1 2t4 2q4 2 4 -1.5v-7.5q0 -2 -2.5 -8.5t-5 -14t-4.5 -15t-3 -10.5l-2 -2q-2 -4 -2.5 -7t-2.5 -5q-2 -3 -3 -6z" />
    <glyph glyph-name="acute" unicode="&#xb4;" horiz-adv-x="142" 
d="M184 344q2 2 6 2q5 0 5.5 -11.5t-0.5 -26.5q-1 -3 -6 -9t-14.5 -12t-25 -10.5t-36.5 -4.5q-23 0 -27 5.5t-8 19.5q0 1 -1 3q-2 4 -1 7q0 2 6 2q8 0 8 -4t5 -4q9 0 22.5 3.5t27 9.5t24 13.5t13.5 14.5z" />
    <glyph glyph-name="guillemotright" unicode="&#xbb;" horiz-adv-x="568" 
d="M113 110q22 14 52 23t59 16l24 4q19 5 39 10t40 11q-17 7 -35 12t-35 10l-22 4q-26 7 -52.5 16t-42.5 23v6q0 2 -0.5 5t0.5 7q-1 1 0 2q0 3 0.5 10.5t1.5 15t2 14t1 8.5q2 4 3 7.5t5 1.5q3 -3 3 -2v-2q1 -12 13 -22.5t23 -16.5q22 -13 47.5 -21.5t51 -16t50.5 -15
t48 -18.5q5 3 5.5 -5.5t-1.5 -20t-6 -21t-9 -9.5q-31 -11 -60.5 -18.5t-58 -15t-55.5 -15.5t-54 -21q-13 -6 -29.5 -16.5t-23.5 -22.5q-1 -1 -1 -2q-2 -2 -3 -2q-5 -2 -5 1.5v7.5q0 2 2.5 8.5t5 14l5 15l3.5 10.5q0 1 1 2q2 7 5 12q2 3 3 6zM319 110q22 14 52 23t59 16l24 4
q19 5 39 10t40 11q-17 7 -35 12t-35 10l-22 4q-26 7 -52.5 16t-42.5 23v6q0 2 -0.5 5t0.5 7q-1 1 0 2q0 3 0.5 10.5t1.5 15t2 14t1 8.5q2 4 3 7.5t5 1.5q3 -3 3 -2v-2q1 -12 13 -22.5t23 -16.5q22 -13 47.5 -21.5t51 -16t50.5 -15t48 -18.5q5 3 5.5 -5.5t-1.5 -20t-6 -21
t-9 -9.5q-31 -11 -60.5 -18.5t-58 -15t-55.5 -15.5t-54 -21q-13 -6 -29.5 -16.5t-23.5 -22.5q-1 -1 -1 -2q-2 -2 -3 -2q-5 -2 -5 1.5v7.5q0 2 2.5 8.5t5 14l5 15l3.5 10.5q0 1 1 2q2 7 5 12q2 3 3 6z" />
    <glyph glyph-name="questiondown" unicode="&#xbf;" horiz-adv-x="446" 
d="M90.0273 -102.969q-29.998 8.99902 -42.498 33.498q-12.499 24.498 -4.99902 58.4961q7.49902 33.998 35.9971 74.4951q28.499 40.498 81.4951 81.4951v1h1q43.9971 32.998 86.4951 62.4961q42.4971 29.498 76.9951 54.4971q34.498 24.998 57.9961 46.4971
q23.499 21.499 27.499 39.498q-1 1.99902 -1.5 8.49902t0.5 13.999q1 7.5 2 12.999q1 5.5 2 4.5q0.999023 -2 2.99902 1t3 2q2 2 4 2h1l11.999 -6q2 -1 7 -3q4.99902 -2 8.99902 -3.99902q7 -3 8 -2q4.99902 -3 5.99902 -10.5q1 -7.49902 -1 -13.499v-4.5
q0 -2.49902 -1 -5.49902q-1 -4 -2 -7q-5.99902 -28.998 -34.4971 -57.4961q-28.499 -28.498 -66.9961 -54.9971q-38.498 -26.498 -79.4951 -51.9961q-40.998 -25.499 -71.9961 -48.4971q-22.998 -18.999 -47.9971 -44.998q-24.998 -25.998 -44.4971 -52.4961
q-19.499 -26.499 -29.498 -49.4971q-10 -22.999 -3 -34.998q6 -9.99902 21.499 -8.99902q15.499 0.999023 36.4971 8.99902q20.999 7.99902 43.498 20.499q22.498 12.499 41.4971 24.498t32.498 21.499q13.499 9.49902 15.499 10.499q19.999 14.999 36.998 34.998
t13.999 39.9971q0 7 3 8q3.99902 2 4.99902 1l2 -2l24.999 -60.9961q2 -5 1 -10.999q-1 -5 -3.5 -11q-2.5 -5.99902 -8.5 -12.999l-2.99902 -3l-3 -2q-5 -4.99902 -12.999 -10.999q-8 -6 -16.999 -11.999q-42.998 -28.998 -83.9951 -48.9971q-17.999 -9 -36.498 -16.499
q-18.499 -7.5 -36.9971 -12.499q-18.499 -5 -35.498 -6t-30.998 3zM535 488.995q-10.999 -3 -20.999 -12.999q-9.99902 -10 -17.499 -21.999q-7.49902 -11.999 -12.499 -22.999q-5 -10.999 -6 -15.999q-0.999023 -4.99902 1.5 -5.99902q2.5 -1 5.5 -1t5 -1t1 -7
q-1 -2.99902 -4.5 -3.49902t-6.5 -0.5q-6.99902 0 -6.49902 -0.5t-5.5 1.5h-7q-18.998 0 -24.498 9.99902t-0.5 30.998q2 9.99902 6.5 20.999q4.49902 10.999 14.499 19.998q9.99902 9 27.498 14.5q17.499 5.49902 45.4971 5.49902h7t3 -4q-1 -5.99902 -5 -5.99902z" />
    <glyph glyph-name="Agrave" unicode="&#xc0;" horiz-adv-x="622" 
d="M34 134v1q0 1 -0.5 2t0.5 3q4 21 35 36t79.5 26t109.5 18t126 11q55 33 112 65.5t111.5 62.5t105.5 56t93 46q1 0 3 1q2 0 3 0.5t3 0.5q3 0 8 -3t9.5 -8t7.5 -12t1 -15q-3 -13 -56 -60t-141 -138q1 0 7.5 -0.5t13 -2.5t11.5 -6t4 -13q-1 -3 -3 -5q-4 -4 -12 -4
q-14 3 -46 6q-8 -10 -17 -19.5t-18 -19.5q-11 -13 -32 -39.5t-42.5 -55.5t-38 -55.5t-19.5 -39.5q-2 -5 1 -10t2 -8q0 -4 -6 -4q-2 0 -3 1q-11 6 -19 9t-13 6.5t-6.5 8.5t0.5 16q2 10 14.5 32t33 51t47 62.5t56.5 68.5q-10 1 -20 1h-21q-22 0 -45.5 -1t-48.5 -3
q-113 -73 -183 -122t-109.5 -81t-54.5 -50t-18 -29q-1 -1 -1 -4v-3q0 -2 -3 -2q-5 0 -6 3q-8 10 -13 17t-7.5 11.5t-2.5 8.5t1 9q2 8 17.5 25t32.5 33l-1 -1q36 34 99 78t140 93q-38 -8 -79 -18t-84 -24q-26 -9 -47 -20q-18 -10 -34 -24t-20 -31q-2 -9 -7 -9q-3 0 -3.5 1
t-1.5 1zM472 235l-1 -1h32q21 0 41 -0.5t38 -1.5q20 22 53 54.5t65.5 63t57.5 53t29 24.5q-12 -6 -31.5 -18t-44 -26.5t-51.5 -31.5t-54 -33q-62 -39 -134 -83zM822 518q0 -7 7.5 -14.5t18 -13.5t22.5 -9.5t21 -3.5q5 0 7 4t10 4q6 0 6 -2q-1 -2 -1.5 -3.5t-1.5 -3.5t-3 -3
q-10 -14 -17 -19.5t-30 -5.5q-21 0 -34.5 4.5t-20.5 10.5t-9.5 12t-1.5 9q5 15 10.5 26.5t10.5 11.5q3 0 5 -2q1 -1 1 -2z" />
    <glyph glyph-name="Aacute" unicode="&#xc1;" horiz-adv-x="622" 
d="M34 134v1q0 1 -0.5 2t0.5 3q4 21 35 36t79.5 26t109.5 18t126 11q55 33 112 65.5t111.5 62.5t105.5 56t93 46q1 0 3 1q2 0 3 0.5t3 0.5q3 0 8 -3t9.5 -8t7.5 -12t1 -15q-3 -13 -56 -60t-141 -138q1 0 7.5 -0.5t13 -2.5t11.5 -6t4 -13q-1 -3 -3 -5q-4 -4 -12 -4
q-14 3 -46 6q-8 -10 -17 -19.5t-18 -19.5q-11 -13 -32 -39.5t-42.5 -55.5t-38 -55.5t-19.5 -39.5q-2 -5 1 -10t2 -8q0 -4 -6 -4q-2 0 -3 1q-11 6 -19 9t-13 6.5t-6.5 8.5t0.5 16q2 10 14.5 32t33 51t47 62.5t56.5 68.5q-10 1 -20 1h-21q-22 0 -45.5 -1t-48.5 -3
q-113 -73 -183 -122t-109.5 -81t-54.5 -50t-18 -29q-1 -1 -1 -4v-3q0 -2 -3 -2q-5 0 -6 3q-8 10 -13 17t-7.5 11.5t-2.5 8.5t1 9q2 8 17.5 25t32.5 33l-1 -1q36 34 99 78t140 93q-38 -8 -79 -18t-84 -24q-26 -9 -47 -20q-18 -10 -34 -24t-20 -31q-2 -9 -7 -9q-3 0 -3.5 1
t-1.5 1zM472 235l-1 -1h32q21 0 41 -0.5t38 -1.5q20 22 53 54.5t65.5 63t57.5 53t29 24.5q-12 -6 -31.5 -18t-44 -26.5t-51.5 -31.5t-54 -33q-62 -39 -134 -83zM903 522q2 2 6 2q5 0 5.5 -11.5t-0.5 -26.5q-1 -3 -6 -9t-14.5 -12t-25 -10.5t-36.5 -4.5q-23 0 -27 5.5
t-8 19.5q0 1 -1 3q-2 4 -1 7q0 2 6 2q8 0 8 -4t5 -4q9 0 22.5 3.5t27 9.5t24 13.5t13.5 14.5z" />
    <glyph glyph-name="Acircumflex" unicode="&#xc2;" horiz-adv-x="622" 
d="M34 134v1q0 1 -0.5 2t0.5 3q4 21 35 36t79.5 26t109.5 18t126 11q55 33 112 65.5t111.5 62.5t105.5 56t93 46q1 0 3 1q2 0 3 0.5t3 0.5q3 0 8 -3t9.5 -8t7.5 -12t1 -15q-3 -13 -56 -60t-141 -138q1 0 7.5 -0.5t13 -2.5t11.5 -6t4 -13q-1 -3 -3 -5q-4 -4 -12 -4
q-14 3 -46 6q-8 -10 -17 -19.5t-18 -19.5q-11 -13 -32 -39.5t-42.5 -55.5t-38 -55.5t-19.5 -39.5q-2 -5 1 -10t2 -8q0 -4 -6 -4q-2 0 -3 1q-11 6 -19 9t-13 6.5t-6.5 8.5t0.5 16q2 10 14.5 32t33 51t47 62.5t56.5 68.5q-10 1 -20 1h-21q-22 0 -45.5 -1t-48.5 -3
q-113 -73 -183 -122t-109.5 -81t-54.5 -50t-18 -29q-1 -1 -1 -4v-3q0 -2 -3 -2q-5 0 -6 3q-8 10 -13 17t-7.5 11.5t-2.5 8.5t1 9q2 8 17.5 25t32.5 33l-1 -1q36 34 99 78t140 93q-38 -8 -79 -18t-84 -24q-26 -9 -47 -20q-18 -10 -34 -24t-20 -31q-2 -9 -7 -9q-3 0 -3.5 1
t-1.5 1zM472 235l-1 -1h32q21 0 41 -0.5t38 -1.5q20 22 53 54.5t65.5 63t57.5 53t29 24.5q-12 -6 -31.5 -18t-44 -26.5t-51.5 -31.5t-54 -33q-62 -39 -134 -83zM872 525q3 3 7 3q4 -2 4 -3v-2v-2q-2 -7 2 -16t11 -17t15 -14.5t15 -8.5q3 0 5 2t7 2q1 0 4 -1t3 -3
q-5 -9 -17 -16t-18 -7q-23 0 -37.5 13t-18.5 21q-5 -2 -11 -3t-13 -1q-20 0 -31 4t-16 10.5t-5.5 15t1.5 17.5q2 4 3 4q7 0 8.5 -2.5l3 -5t5.5 -5t15 -2.5q15 0 31 3.5t24 10.5l3 3v0z" />
    <glyph glyph-name="Atilde" unicode="&#xc3;" horiz-adv-x="622" 
d="M34 134v1q0 1 -0.5 2t0.5 3q4 21 35 36t79.5 26t109.5 18t126 11q55 33 112 65.5t111.5 62.5t105.5 56t93 46q1 0 3 1q2 0 3 0.5t3 0.5q3 0 8 -3t9.5 -8t7.5 -12t1 -15q-3 -13 -56 -60t-141 -138q1 0 7.5 -0.5t13 -2.5t11.5 -6t4 -13q-1 -3 -3 -5q-4 -4 -12 -4
q-14 3 -46 6q-8 -10 -17 -19.5t-18 -19.5q-11 -13 -32 -39.5t-42.5 -55.5t-38 -55.5t-19.5 -39.5q-2 -5 1 -10t2 -8q0 -4 -6 -4q-2 0 -3 1q-11 6 -19 9t-13 6.5t-6.5 8.5t0.5 16q2 10 14.5 32t33 51t47 62.5t56.5 68.5q-10 1 -20 1h-21q-22 0 -45.5 -1t-48.5 -3
q-113 -73 -183 -122t-109.5 -81t-54.5 -50t-18 -29q-1 -1 -1 -4v-3q0 -2 -3 -2q-5 0 -6 3q-8 10 -13 17t-7.5 11.5t-2.5 8.5t1 9q2 8 17.5 25t32.5 33l-1 -1q36 34 99 78t140 93q-38 -8 -79 -18t-84 -24q-26 -9 -47 -20q-18 -10 -34 -24t-20 -31q-2 -9 -7 -9q-3 0 -3.5 1
t-1.5 1zM472 235l-1 -1h32q21 0 41 -0.5t38 -1.5q20 22 53 54.5t65.5 63t57.5 53t29 24.5q-12 -6 -31.5 -18t-44 -26.5t-51.5 -31.5t-54 -33q-62 -39 -134 -83zM906 485q10 -5 11 -15.5t-2 -21.5q-5 -27 -9.5 -30t-6.5 -3q-1 0 -1 3q0 2 1 4q2 4 2 7q2 8 -7 18t-32 18
q-2 1 -12 1.5t-20.5 5t-17.5 15t-3 30.5q3 15 8 26q3 6 5 11q2 4 4 4t1 -3q-2 -6 -2 -7t-1 -5q-2 -7 0.5 -14.5t16.5 -13.5l28.5 -13.5t15.5 -7t10 -4t11 -5.5z" />
    <glyph glyph-name="Adieresis" unicode="&#xc4;" horiz-adv-x="622" 
d="M34 134v1q0 1 -0.5 2t0.5 3q4 21 35 36t79.5 26t109.5 18t126 11q55 33 112 65.5t111.5 62.5t105.5 56t93 46q1 0 3 1q2 0 3 0.5t3 0.5q3 0 8 -3t9.5 -8t7.5 -12t1 -15q-3 -13 -56 -60t-141 -138q1 0 7.5 -0.5t13 -2.5t11.5 -6t4 -13q-1 -3 -3 -5q-4 -4 -12 -4
q-14 3 -46 6q-8 -10 -17 -19.5t-18 -19.5q-11 -13 -32 -39.5t-42.5 -55.5t-38 -55.5t-19.5 -39.5q-2 -5 1 -10t2 -8q0 -4 -6 -4q-2 0 -3 1q-11 6 -19 9t-13 6.5t-6.5 8.5t0.5 16q2 10 14.5 32t33 51t47 62.5t56.5 68.5q-10 1 -20 1h-21q-22 0 -45.5 -1t-48.5 -3
q-113 -73 -183 -122t-109.5 -81t-54.5 -50t-18 -29q-1 -1 -1 -4v-3q0 -2 -3 -2q-5 0 -6 3q-8 10 -13 17t-7.5 11.5t-2.5 8.5t1 9q2 8 17.5 25t32.5 33l-1 -1q36 34 99 78t140 93q-38 -8 -79 -18t-84 -24q-26 -9 -47 -20q-18 -10 -34 -24t-20 -31q-2 -9 -7 -9q-3 0 -3.5 1
t-1.5 1zM472 235l-1 -1h32q21 0 41 -0.5t38 -1.5q20 22 53 54.5t65.5 63t57.5 53t29 24.5q-12 -6 -31.5 -18t-44 -26.5t-51.5 -31.5t-54 -33q-62 -39 -134 -83zM824 504q5 8 18 8q10 0 22 -6t10 -19q-4 -9 -11.5 -12.5t-21.5 2.5q-8 2 -11.5 5.5l-5.5 5.5q-2 3 -2 5q1 2 1 4
q0 5 1 7zM884 482q8 8 18 8t22 -6t9 -19q-2 -10 -10 -13.5t-22 3.5q-8 2 -12 5.5t-6 5.5q-3 3 -2 5q0 2 1 4t1 3.5t1 3.5z" />
    <glyph glyph-name="Aring" unicode="&#xc5;" horiz-adv-x="622" 
d="M34 134v1q0 1 -0.5 2t0.5 3q4 21 35 36t79.5 26t109.5 18t126 11q55 33 112 65.5t111.5 62.5t105.5 56t93 46q1 0 3 1q2 0 3 0.5t3 0.5q3 0 8 -3t9.5 -8t7.5 -12t1 -15q-3 -13 -56 -60t-141 -138q1 0 7.5 -0.5t13 -2.5t11.5 -6t4 -13q-1 -3 -3 -5q-4 -4 -12 -4
q-14 3 -46 6q-8 -10 -17 -19.5t-18 -19.5q-11 -13 -32 -39.5t-42.5 -55.5t-38 -55.5t-19.5 -39.5q-2 -5 1 -10t2 -8q0 -4 -6 -4q-2 0 -3 1q-11 6 -19 9t-13 6.5t-6.5 8.5t0.5 16q2 10 14.5 32t33 51t47 62.5t56.5 68.5q-10 1 -20 1h-21q-22 0 -45.5 -1t-48.5 -3
q-113 -73 -183 -122t-109.5 -81t-54.5 -50t-18 -29q-1 -1 -1 -4v-3q0 -2 -3 -2q-5 0 -6 3q-8 10 -13 17t-7.5 11.5t-2.5 8.5t1 9q2 8 17.5 25t32.5 33l-1 -1q36 34 99 78t140 93q-38 -8 -79 -18t-84 -24q-26 -9 -47 -20q-18 -10 -34 -24t-20 -31q-2 -9 -7 -9q-3 0 -3.5 1
t-1.5 1zM472 235l-1 -1h32q21 0 41 -0.5t38 -1.5q20 22 53 54.5t65.5 63t57.5 53t29 24.5q-12 -6 -31.5 -18t-44 -26.5t-51.5 -31.5t-54 -33q-62 -39 -134 -83zM834 502q5 8 14 11.5t18 3.5t20 -3t20.5 -9t15 -15t2.5 -21q-4 -17 -18.5 -23.5t-41.5 4.5q-14 5 -21 11t-10 11
q-4 5 -3 11q0 3 1 7zM857 494q2 -5 7 -7.5l9 -4.5q22 -8 25 -3h1q1 5 -6.5 10.5t-15.5 7.5q-2 1 -10 0.5t-10 -3.5z" />
    <glyph glyph-name="AE" unicode="&#xc6;" horiz-adv-x="899" 
d="M25 93v1q0 3 1 5q4 21 35 36t79 26t109 18t126 11q55 33 112 65.5t112 62.5t106 56t93 46l2 1q1 0 2.5 0.5t3.5 0.5q4 0 11 -4.5t12 -12.5q19 8 38 12.5t39 2.5q13 -1 21.5 -5t14.5 -9q7 -6 12 -19t2 -33.5t-17 -49.5t-44 -66l-3 -4q-6 -8 -13.5 -16t-14.5 -16
q-8 -9 -17 -17q-3 -4 -8 -9q-6 -6 -11 -10t-9 -6q-1 0 -2 -0.5t-2 -0.5q-9 -5 -17 -3q-4 1 -6 2l-29 20q-2 4 -2 5l1 2q2 2 4 2h2q6 -3 12 1l6 4q1 0 2 1l27 27l28 30q17 21 34 45t29 44.5t17 34.5t-1 17q-1 0 -2 0.5t-3 0.5h-1q-6 0 -34 -4t-66 -29q-2 -2 -5 -4
q-2 -2 -5.5 -4.5t-6.5 -5.5l-11 -11t-13 -12q-14 -14 -26 -31.5t-20 -37.5t-7 -41.5t17 -41.5q3 -2 5 -5q4 -7 0 -11q-5 -4 -17 -8q-11 -3 -31 -7t-55 -6q-26 -1 -35 -5q-3 0 -6 -5l-5 -9q-17 -28 -25.5 -51t-11 -41.5t0.5 -33t9 -24.5q13 -25 42 -37q14 -6 31 -4
q15 1 30.5 7.5t28 14t22 15t14.5 11.5q18 15 34.5 32t30.5 32q8 9 14 18.5t11 15.5l16 25q1 2 2 6q2 7 -1 12q-1 0 -1 2t2 4q0 1 2 1q2 2 4 0h1l28 -21l3 -3q1 -2 2 -5t1 -7q1 -2 0.5 -3t-0.5 -3l-1 -2q-2 -5 -4.5 -10.5t-6.5 -12.5q-2 -4 -4 -5l-8 -12q-4 -5 -8.5 -12
t-9.5 -12q-11 -13 -20.5 -23.5t-17.5 -18.5q-10 -10 -18 -17q-6 -6 -13 -10.5t-13 -9.5q-39 -26 -75 -32t-53 -5h-13q-42 5 -67 19t-37 33.5t-13.5 42t3.5 44.5q-23 -31 -41.5 -59.5t-21.5 -42.5q-1 -5 1.5 -10t1.5 -8q0 -4 -6 -4q-2 0 -2 1q-11 6 -19.5 9t-13.5 6.5
t-6.5 8.5t0.5 16q2 10 14.5 32t33 51t47 62.5t57.5 68.5q-10 1 -20 1h-21q-22 0 -45.5 -1t-49.5 -3q-113 -73 -183 -122t-109.5 -81t-54.5 -50t-18 -29l-1 -4v-3q0 -2 -3 -2q-5 0 -5 3q-8 10 -13 17t-7.5 11.5t-3 8.5t0.5 9q2 8 17.5 25t32.5 33v-1q35 34 98 78t140 93
q-38 -8 -79 -18t-84 -24q-26 -9 -47 -20q-18 -10 -34 -24t-20 -31q-2 -9 -7 -9q-3 0 -3 1t-1 1zM464 194l-1 -1h32q21 0 40.5 -0.5t37.5 -1.5q19 21 51 52t63.5 61t56.5 53t32 28q-12 -7 -32 -18.5t-44 -26.5t-51 -31.5t-53 -32.5q-62 -38 -132 -82zM669 160q-4 -4 -8 -5
q6 0 10.5 0.5t8.5 0.5t7 1q-3 3 -6 7q-6 6 -12 19q-7 14 -7 31l-27 -28q1 0 7.5 -0.5t13 -2.5t11.5 -6t4 -13zM602 151q9 0 21.5 1t24.5 2q2 0 4 0.5t4 0.5q-8 2 -19.5 3t-25.5 3z" />
    <glyph glyph-name="Ccedilla" unicode="&#xc7;" horiz-adv-x="364" 
d="M32 -78q-15 19 -18 42.5t3 51.5q9 45 38.5 95t67 97.5t77 87t70.5 62.5q47 36 78.5 49t51.5 13q25 0 42.5 -16.5t8.5 -56.5q-4 -20 -18 -47t-42 -62q0 -1 -3 -4h1q-21 -26 -35.5 -42t-25 -24t-18 -10.5t-12.5 -2.5q-7 0 -8 1.5t-2 1.5q-1 1 -6 4t-10.5 7t-10 8t-4.5 6
l2.5 2.5t3.5 1.5t3 -0.5t3 -0.5q4 0 9 3q3 1 5 3q19 18 41.5 44t42.5 53t35 51.5t18 39.5q3 12 -7 12q-21 0 -69 -35t-110 -95q-25 -24 -53 -59.5t-53 -73.5t-43.5 -75.5t-24.5 -67.5q-6 -26 1 -45t30 -19q16 0 37 11t42 28t41.5 38t37 41t27 36.5t12.5 24.5q1 5 -1.5 8
t-1.5 7q2 4 6 4q1 0 1.5 -0.5t1.5 -0.5q21 -14 28.5 -18.5t6.5 -17.5q-2 -8 -4 -15t-8 -16q-37 -53 -68.5 -84t-58.5 -48t-48.5 -22t-39.5 -5q-8 0 -15 1t-13 3q-2 -2 -2 -3q-5 -4 -5 -7q0 -2 1 -2q2 0 4 -1t3.5 -1.5t3.5 -1.5l18 -8h1l1 -1q2 0 4.5 -2.5t1.5 -7.5
q-6 -17 -17 -28q-10 -10 -26.5 -16t-43.5 1h-1q-1 0 -1.5 0.5t-2.5 0.5q-5 2 -14.5 7t-14.5 16l-2 8q-1 2 -1 6q-1 3 -1 13l2 11q-1 0 0 1q0 2 1 4l2 4h1q1 2 2 2t2 1q1 0 2 1q2 1 5 1q7 0 9 1l2 -2h-1q1 -1 0 -1q-2 -1 -4 -3l-1 -1l-2 -8v-10v-11t2 -11q1 -3 4 -10t14 -11
q4 -3 10 -3q12 0 23 4q9 4 18.5 12t14.5 25v2v2v1q-4 0 -9 4q-11 5 -17 8t-8 5q-4 2 -3 3l4 2q2 0 3 1q1 2 3.5 3t4.5 3q-8 3 -14 7t-10 7z" />
    <glyph glyph-name="Egrave" unicode="&#xc8;" horiz-adv-x="440" 
d="M67 167q8 12 20.5 17t20.5 7h7h3q9 0 24.5 1t30.5 2q8 1 15 1t12 1q6 0 11 1q-2 3 -5 7l-5 7.5t-5 11.5q-5 14 -5.5 34.5t13.5 47.5q14 28 47 61q29 29 62 50q28 18 62.5 32t69.5 12q12 -1 21 -5t14 -9q7 -6 11.5 -19t0.5 -33.5t-19.5 -49.5t-47.5 -66q-2 -2 -2 -2.5
t-2 -1.5q-6 -8 -14 -16l-16 -16q-9 -9 -18 -17q-4 -5 -9 -9q-9 -11 -20 -16q-1 0 -2 -0.5t-2 -0.5q-10 -5 -17 -3q-4 1 -6 2q-2 2 -11.5 8.5t-16.5 11.5q-2 3 -1 5v2q2 2 5 2h2q5 -3 12 1l6 4q1 0 1 1q8 7 15 13.5t15 13.5q8 9 16 17t12 13q18 21 36.5 45t32 44.5t19 34.5
t-0.5 17q-1 0 -2 0.5t-3 0.5h-1q-3 0 -12 -0.5t-22.5 -3.5t-31 -10t-36.5 -19q-19 -14 -37 -31q-15 -14 -30 -33.5t-24 -41.5q-10 -20 -10 -41.5t14 -41.5q3 -2 5 -5q4 -7 0 -11q-5 -4 -17 -8q-11 -3 -32 -7t-56 -6q-14 -1 -22 -2t-13 -3q-1 0 -6 -5l-6 -9
q-19 -28 -28.5 -51t-13 -41.5t-1 -33t7.5 -24.5q12 -25 40 -37q15 -6 32 -4q15 1 30.5 7.5t28.5 14t23 15t15 11.5q18 15 36 32t32 32q8 9 15.5 18.5t12.5 15.5q9 14 17 25q1 2 2 6q2 8 0 12q-1 0 -1.5 2t1.5 4q0 1 2 1q4 2 4 0h1q7 -6 18 -13l10 -8q2 -1 3 -3q2 -4 2 -12
q0 -4 -1 -6v-2q-4 -10 -13 -23q0 -2 -1.5 -3t-2.5 -2q-5 -6 -9 -12q-4 -5 -9.5 -12t-10.5 -12q-11 -13 -21.5 -23.5l-18.5 -18.5q-10 -10 -18 -17q-7 -6 -13.5 -10.5t-13.5 -9.5q-42 -26 -77.5 -32t-52.5 -5h-13q-39 4 -62 16.5t-35 30t-14 37.5t2 41q9 48 45 107zM432 519
q0 -7 7.5 -14.5t18 -13.5t22.5 -9.5t21 -3.5q5 0 7 4t10 4q6 0 6 -2q-1 -2 -1.5 -3.5t-1.5 -3.5t-3 -3q-10 -14 -17 -19.5t-30 -5.5q-21 0 -34.5 4.5t-20.5 10.5t-9.5 12t-1.5 9q5 15 10.5 26.5t10.5 11.5q3 0 5 -2q1 -1 1 -2z" />
    <glyph glyph-name="Eacute" unicode="&#xc9;" horiz-adv-x="440" 
d="M67 167q8 12 20.5 17t20.5 7h7h3q9 0 24.5 1t30.5 2q8 1 15 1t12 1q6 0 11 1q-2 3 -5 7l-5 7.5t-5 11.5q-5 14 -5.5 34.5t13.5 47.5q14 28 47 61q29 29 62 50q28 18 62.5 32t69.5 12q12 -1 21 -5t14 -9q7 -6 11.5 -19t0.5 -33.5t-19.5 -49.5t-47.5 -66q-2 -2 -2 -2.5
t-2 -1.5q-6 -8 -14 -16l-16 -16q-9 -9 -18 -17q-4 -5 -9 -9q-9 -11 -20 -16q-1 0 -2 -0.5t-2 -0.5q-10 -5 -17 -3q-4 1 -6 2q-2 2 -11.5 8.5t-16.5 11.5q-2 3 -1 5v2q2 2 5 2h2q5 -3 12 1l6 4q1 0 1 1q8 7 15 13.5t15 13.5q8 9 16 17t12 13q18 21 36.5 45t32 44.5t19 34.5
t-0.5 17q-1 0 -2 0.5t-3 0.5h-1q-3 0 -12 -0.5t-22.5 -3.5t-31 -10t-36.5 -19q-19 -14 -37 -31q-15 -14 -30 -33.5t-24 -41.5q-10 -20 -10 -41.5t14 -41.5q3 -2 5 -5q4 -7 0 -11q-5 -4 -17 -8q-11 -3 -32 -7t-56 -6q-14 -1 -22 -2t-13 -3q-1 0 -6 -5l-6 -9
q-19 -28 -28.5 -51t-13 -41.5t-1 -33t7.5 -24.5q12 -25 40 -37q15 -6 32 -4q15 1 30.5 7.5t28.5 14t23 15t15 11.5q18 15 36 32t32 32q8 9 15.5 18.5t12.5 15.5q9 14 17 25q1 2 2 6q2 8 0 12q-1 0 -1.5 2t1.5 4q0 1 2 1q4 2 4 0h1q7 -6 18 -13l10 -8q2 -1 3 -3q2 -4 2 -12
q0 -4 -1 -6v-2q-4 -10 -13 -23q0 -2 -1.5 -3t-2.5 -2q-5 -6 -9 -12q-4 -5 -9.5 -12t-10.5 -12q-11 -13 -21.5 -23.5l-18.5 -18.5q-10 -10 -18 -17q-7 -6 -13.5 -10.5t-13.5 -9.5q-42 -26 -77.5 -32t-52.5 -5h-13q-39 4 -62 16.5t-35 30t-14 37.5t2 41q9 48 45 107zM508 520
q2 2 6 2q5 0 5.5 -11.5t-0.5 -26.5q-1 -3 -6 -9t-14.5 -12t-25 -10.5t-36.5 -4.5q-23 0 -27 5.5t-8 19.5q0 1 -1 3q-2 4 -1 7q0 2 6 2q8 0 8 -4t5 -4q9 0 22.5 3.5t27 9.5t24 13.5t13.5 14.5z" />
    <glyph glyph-name="Ecircumflex" unicode="&#xca;" horiz-adv-x="440" 
d="M67 167q8 12 20.5 17t20.5 7h7h3q9 0 24.5 1t30.5 2q8 1 15 1t12 1q6 0 11 1q-2 3 -5 7l-5 7.5t-5 11.5q-5 14 -5.5 34.5t13.5 47.5q14 28 47 61q29 29 62 50q28 18 62.5 32t69.5 12q12 -1 21 -5t14 -9q7 -6 11.5 -19t0.5 -33.5t-19.5 -49.5t-47.5 -66q-2 -2 -2 -2.5
t-2 -1.5q-6 -8 -14 -16l-16 -16q-9 -9 -18 -17q-4 -5 -9 -9q-9 -11 -20 -16q-1 0 -2 -0.5t-2 -0.5q-10 -5 -17 -3q-4 1 -6 2q-2 2 -11.5 8.5t-16.5 11.5q-2 3 -1 5v2q2 2 5 2h2q5 -3 12 1l6 4q1 0 1 1q8 7 15 13.5t15 13.5q8 9 16 17t12 13q18 21 36.5 45t32 44.5t19 34.5
t-0.5 17q-1 0 -2 0.5t-3 0.5h-1q-3 0 -12 -0.5t-22.5 -3.5t-31 -10t-36.5 -19q-19 -14 -37 -31q-15 -14 -30 -33.5t-24 -41.5q-10 -20 -10 -41.5t14 -41.5q3 -2 5 -5q4 -7 0 -11q-5 -4 -17 -8q-11 -3 -32 -7t-56 -6q-14 -1 -22 -2t-13 -3q-1 0 -6 -5l-6 -9
q-19 -28 -28.5 -51t-13 -41.5t-1 -33t7.5 -24.5q12 -25 40 -37q15 -6 32 -4q15 1 30.5 7.5t28.5 14t23 15t15 11.5q18 15 36 32t32 32q8 9 15.5 18.5t12.5 15.5q9 14 17 25q1 2 2 6q2 8 0 12q-1 0 -1.5 2t1.5 4q0 1 2 1q4 2 4 0h1q7 -6 18 -13l10 -8q2 -1 3 -3q2 -4 2 -12
q0 -4 -1 -6v-2q-4 -10 -13 -23q0 -2 -1.5 -3t-2.5 -2q-5 -6 -9 -12q-4 -5 -9.5 -12t-10.5 -12q-11 -13 -21.5 -23.5l-18.5 -18.5q-10 -10 -18 -17q-7 -6 -13.5 -10.5t-13.5 -9.5q-42 -26 -77.5 -32t-52.5 -5h-13q-39 4 -62 16.5t-35 30t-14 37.5t2 41q9 48 45 107zM491 525
q3 3 7 3q4 -2 4 -3v-2v-2q-2 -7 2 -16t11 -17t15 -14.5t15 -8.5q3 0 5 2t7 2q1 0 4 -1t3 -3q-5 -9 -17 -16t-18 -7q-23 0 -37.5 13t-18.5 21q-5 -2 -11 -3t-13 -1q-20 0 -31 4t-16 10.5t-5.5 15t1.5 17.5q2 4 3 4q7 0 8.5 -2.5l3 -5t5.5 -5t15 -2.5q15 0 31 3.5t24 10.5l3 3
v0z" />
    <glyph glyph-name="Edieresis" unicode="&#xcb;" horiz-adv-x="440" 
d="M67 167q8 12 20.5 17t20.5 7h7h3q9 0 24.5 1t30.5 2q8 1 15 1t12 1q6 0 11 1q-2 3 -5 7l-5 7.5t-5 11.5q-5 14 -5.5 34.5t13.5 47.5q14 28 47 61q29 29 62 50q28 18 62.5 32t69.5 12q12 -1 21 -5t14 -9q7 -6 11.5 -19t0.5 -33.5t-19.5 -49.5t-47.5 -66q-2 -2 -2 -2.5
t-2 -1.5q-6 -8 -14 -16l-16 -16q-9 -9 -18 -17q-4 -5 -9 -9q-9 -11 -20 -16q-1 0 -2 -0.5t-2 -0.5q-10 -5 -17 -3q-4 1 -6 2q-2 2 -11.5 8.5t-16.5 11.5q-2 3 -1 5v2q2 2 5 2h2q5 -3 12 1l6 4q1 0 1 1q8 7 15 13.5t15 13.5q8 9 16 17t12 13q18 21 36.5 45t32 44.5t19 34.5
t-0.5 17q-1 0 -2 0.5t-3 0.5h-1q-3 0 -12 -0.5t-22.5 -3.5t-31 -10t-36.5 -19q-19 -14 -37 -31q-15 -14 -30 -33.5t-24 -41.5q-10 -20 -10 -41.5t14 -41.5q3 -2 5 -5q4 -7 0 -11q-5 -4 -17 -8q-11 -3 -32 -7t-56 -6q-14 -1 -22 -2t-13 -3q-1 0 -6 -5l-6 -9
q-19 -28 -28.5 -51t-13 -41.5t-1 -33t7.5 -24.5q12 -25 40 -37q15 -6 32 -4q15 1 30.5 7.5t28.5 14t23 15t15 11.5q18 15 36 32t32 32q8 9 15.5 18.5t12.5 15.5q9 14 17 25q1 2 2 6q2 8 0 12q-1 0 -1.5 2t1.5 4q0 1 2 1q4 2 4 0h1q7 -6 18 -13l10 -8q2 -1 3 -3q2 -4 2 -12
q0 -4 -1 -6v-2q-4 -10 -13 -23q0 -2 -1.5 -3t-2.5 -2q-5 -6 -9 -12q-4 -5 -9.5 -12t-10.5 -12q-11 -13 -21.5 -23.5l-18.5 -18.5q-10 -10 -18 -17q-7 -6 -13.5 -10.5t-13.5 -9.5q-42 -26 -77.5 -32t-52.5 -5h-13q-39 4 -62 16.5t-35 30t-14 37.5t2 41q9 48 45 107zM443 501
q5 8 18 8q10 0 22 -6t10 -19q-4 -9 -11.5 -12.5t-21.5 2.5q-8 2 -11.5 5.5l-5.5 5.5q-2 3 -2 5q1 2 1 4q0 5 1 7zM503 479q8 8 18 8t22 -6t9 -19q-2 -10 -10 -13.5t-22 3.5q-8 2 -12 5.5t-6 5.5q-3 3 -2 5q0 2 1 4t1 3.5t1 3.5z" />
    <glyph glyph-name="Igrave" unicode="&#xcc;" horiz-adv-x="309" 
d="M123 -37q1 4 2 8.5t4 10.5v1q-1 -1 1 3.5t6 13t9.5 19.5t12.5 23l39 65q5 5 8 11t8 12l26 38q6 8 12 15.5t11 15.5l28 37q14 18 26.5 33t26.5 32l20 23q5 5 9.5 10t9.5 10l50 55l1.5 1.5t3.5 4.5l6 7q0 1 1 1l10 8l-120 -18q-35 -5 -72.5 -11t-66.5 -6q-20 0 -30.5 7
t-15 17t-4 21.5t2.5 20.5q0 3 1 6t2 5q1 3 2 5v2q1 1 2 3q3 3 5 3h1q4 0 4 -5v-4l-1 -4q0 -7 9.5 -14.5t40.5 -7.5q6 0 13.5 0.5t16.5 1.5l191 15q65 5 130 7.5t147 -9.5q31 0 47 -11t17 -11l2 -3q5 -6 5 -9t2 -5l2 -31q-2 -4 -1.5 -10t1.5 -7v-2q-2 -4 -2.5 -6.5t-2.5 -4.5
l-5 -1q-4 0 -1 3v1l-1 1q1 7 -6.5 13.5t-17 12t-17 8t-6.5 2.5l-8 2q-51 17 -100.5 22t-89.5 5q-12 0 -23 -0.5t-19 -0.5h-8q0 -1 8.5 -3t10.5 -2h2q1 0 3.5 -2.5t1.5 -4.5q0 -2 -3 -5l-12 -15l-3 -3l-60 -67q-20 -22 -44 -49.5t-47 -56.5l-56 -72q-5 -7 -14.5 -20.5
t-20.5 -30.5q0 -3 -3 -4l-30 -50q-17 -27 -27 -51v1l-1 -2l-9 -21q0 -1 -1 -2l-1 -3q-3 -3 -3 -7q17 1 33.5 2.5t34.5 4.5q14 3 27 7q11 4 22 9t16 13l2 2q2 2 5 2q4 0 2 -5v1q-1 0 -4.5 -8t-8 -18.5t-10 -20t-9.5 -13.5q-6 -7 -17 -12q-9 -5 -24 -8.5t-38 -3.5h-19t-19 2
l-19 3q-19 3 -38 3t-39 1q-14 0 -27 -2q-11 -2 -22.5 -6t-18.5 -11q0 -1 -1 -2t-4 -1t-3 3l4.5 7.5t10.5 17t13.5 19t13.5 13.5l7 5q9 7 45 7q8 0 16.5 -0.5t19.5 -1.5h1zM485 523q0 -7 7.5 -14.5t18 -13.5t22.5 -9.5t21 -3.5q5 0 7 4t10 4q6 0 6 -2q-1 -2 -1.5 -3.5
t-1.5 -3.5t-3 -3q-10 -14 -17 -19.5t-30 -5.5q-21 0 -34.5 4.5t-20.5 10.5t-9.5 12t-1.5 9q5 15 10.5 26.5t10.5 11.5q3 0 5 -2q1 -1 1 -2z" />
    <glyph glyph-name="Iacute" unicode="&#xcd;" horiz-adv-x="309" 
d="M123 -37q1 4 2 8.5t4 10.5v1q-1 -1 1 3.5t6 13t9.5 19.5t12.5 23l39 65q5 5 8 11t8 12l26 38q6 8 12 15.5t11 15.5l28 37q14 18 26.5 33t26.5 32l20 23q5 5 9.5 10t9.5 10l50 55l1.5 1.5t3.5 4.5l6 7q0 1 1 1l10 8l-120 -18q-35 -5 -72.5 -11t-66.5 -6q-20 0 -30.5 7
t-15 17t-4 21.5t2.5 20.5q0 3 1 6t2 5q1 3 2 5v2q1 1 2 3q3 3 5 3h1q4 0 4 -5v-4l-1 -4q0 -7 9.5 -14.5t40.5 -7.5q6 0 13.5 0.5t16.5 1.5l191 15q65 5 130 7.5t147 -9.5q31 0 47 -11t17 -11l2 -3q5 -6 5 -9t2 -5l2 -31q-2 -4 -1.5 -10t1.5 -7v-2q-2 -4 -2.5 -6.5t-2.5 -4.5
l-5 -1q-4 0 -1 3v1l-1 1q1 7 -6.5 13.5t-17 12t-17 8t-6.5 2.5l-8 2q-51 17 -100.5 22t-89.5 5q-12 0 -23 -0.5t-19 -0.5h-8q0 -1 8.5 -3t10.5 -2h2q1 0 3.5 -2.5t1.5 -4.5q0 -2 -3 -5l-12 -15l-3 -3l-60 -67q-20 -22 -44 -49.5t-47 -56.5l-56 -72q-5 -7 -14.5 -20.5
t-20.5 -30.5q0 -3 -3 -4l-30 -50q-17 -27 -27 -51v1l-1 -2l-9 -21q0 -1 -1 -2l-1 -3q-3 -3 -3 -7q17 1 33.5 2.5t34.5 4.5q14 3 27 7q11 4 22 9t16 13l2 2q2 2 5 2q4 0 2 -5v1q-1 0 -4.5 -8t-8 -18.5t-10 -20t-9.5 -13.5q-6 -7 -17 -12q-9 -5 -24 -8.5t-38 -3.5h-19t-19 2
l-19 3q-19 3 -38 3t-39 1q-14 0 -27 -2q-11 -2 -22.5 -6t-18.5 -11q0 -1 -1 -2t-4 -1t-3 3l4.5 7.5t10.5 17t13.5 19t13.5 13.5l7 5q9 7 45 7q8 0 16.5 -0.5t19.5 -1.5h1zM553 523q2 2 6 2q5 0 5.5 -11.5t-0.5 -26.5q-1 -3 -6 -9t-14.5 -12t-25 -10.5t-36.5 -4.5
q-23 0 -27 5.5t-8 19.5q0 1 -1 3q-2 4 -1 7q0 2 6 2q8 0 8 -4t5 -4q9 0 22.5 3.5t27 9.5t24 13.5t13.5 14.5z" />
    <glyph glyph-name="Icircumflex" unicode="&#xce;" horiz-adv-x="309" 
d="M123 -37q1 4 2 8.5t4 10.5v1q-1 -1 1 3.5t6 13t9.5 19.5t12.5 23l39 65q5 5 8 11t8 12l26 38q6 8 12 15.5t11 15.5l28 37q14 18 26.5 33t26.5 32l20 23q5 5 9.5 10t9.5 10l50 55l1.5 1.5t3.5 4.5l6 7q0 1 1 1l10 8l-120 -18q-35 -5 -72.5 -11t-66.5 -6q-20 0 -30.5 7
t-15 17t-4 21.5t2.5 20.5q0 3 1 6t2 5q1 3 2 5v2q1 1 2 3q3 3 5 3h1q4 0 4 -5v-4l-1 -4q0 -7 9.5 -14.5t40.5 -7.5q6 0 13.5 0.5t16.5 1.5l191 15q65 5 130 7.5t147 -9.5q31 0 47 -11t17 -11l2 -3q5 -6 5 -9t2 -5l2 -31q-2 -4 -1.5 -10t1.5 -7v-2q-2 -4 -2.5 -6.5t-2.5 -4.5
l-5 -1q-4 0 -1 3v1l-1 1q1 7 -6.5 13.5t-17 12t-17 8t-6.5 2.5l-8 2q-51 17 -100.5 22t-89.5 5q-12 0 -23 -0.5t-19 -0.5h-8q0 -1 8.5 -3t10.5 -2h2q1 0 3.5 -2.5t1.5 -4.5q0 -2 -3 -5l-12 -15l-3 -3l-60 -67q-20 -22 -44 -49.5t-47 -56.5l-56 -72q-5 -7 -14.5 -20.5
t-20.5 -30.5q0 -3 -3 -4l-30 -50q-17 -27 -27 -51v1l-1 -2l-9 -21q0 -1 -1 -2l-1 -3q-3 -3 -3 -7q17 1 33.5 2.5t34.5 4.5q14 3 27 7q11 4 22 9t16 13l2 2q2 2 5 2q4 0 2 -5v1q-1 0 -4.5 -8t-8 -18.5t-10 -20t-9.5 -13.5q-6 -7 -17 -12q-9 -5 -24 -8.5t-38 -3.5h-19t-19 2
l-19 3q-19 3 -38 3t-39 1q-14 0 -27 -2q-11 -2 -22.5 -6t-18.5 -11q0 -1 -1 -2t-4 -1t-3 3l4.5 7.5t10.5 17t13.5 19t13.5 13.5l7 5q9 7 45 7q8 0 16.5 -0.5t19.5 -1.5h1zM531 527q3 3 7 3q4 -2 4 -3v-2v-2q-2 -7 2 -16t11 -17t15 -14.5t15 -8.5q3 0 5 2t7 2q1 0 4 -1t3 -3
q-5 -9 -17 -16t-18 -7q-23 0 -37.5 13t-18.5 21q-5 -2 -11 -3t-13 -1q-20 0 -31 4t-16 10.5t-5.5 15t1.5 17.5q2 4 3 4q7 0 8.5 -2.5l3 -5t5.5 -5t15 -2.5q15 0 31 3.5t24 10.5l3 3v0z" />
    <glyph glyph-name="Idieresis" unicode="&#xcf;" horiz-adv-x="309" 
d="M123 -37q1 4 2 8.5t4 10.5v1q-1 -1 1 3.5t6 13t9.5 19.5t12.5 23l39 65q5 5 8 11t8 12l26 38q6 8 12 15.5t11 15.5l28 37q14 18 26.5 33t26.5 32l20 23q5 5 9.5 10t9.5 10l50 55l1.5 1.5t3.5 4.5l6 7q0 1 1 1l10 8l-120 -18q-35 -5 -72.5 -11t-66.5 -6q-20 0 -30.5 7
t-15 17t-4 21.5t2.5 20.5q0 3 1 6t2 5q1 3 2 5v2q1 1 2 3q3 3 5 3h1q4 0 4 -5v-4l-1 -4q0 -7 9.5 -14.5t40.5 -7.5q6 0 13.5 0.5t16.5 1.5l191 15q65 5 130 7.5t147 -9.5q31 0 47 -11t17 -11l2 -3q5 -6 5 -9t2 -5l2 -31q-2 -4 -1.5 -10t1.5 -7v-2q-2 -4 -2.5 -6.5t-2.5 -4.5
l-5 -1q-4 0 -1 3v1l-1 1q1 7 -6.5 13.5t-17 12t-17 8t-6.5 2.5l-8 2q-51 17 -100.5 22t-89.5 5q-12 0 -23 -0.5t-19 -0.5h-8q0 -1 8.5 -3t10.5 -2h2q1 0 3.5 -2.5t1.5 -4.5q0 -2 -3 -5l-12 -15l-3 -3l-60 -67q-20 -22 -44 -49.5t-47 -56.5l-56 -72q-5 -7 -14.5 -20.5
t-20.5 -30.5q0 -3 -3 -4l-30 -50q-17 -27 -27 -51v1l-1 -2l-9 -21q0 -1 -1 -2l-1 -3q-3 -3 -3 -7q17 1 33.5 2.5t34.5 4.5q14 3 27 7q11 4 22 9t16 13l2 2q2 2 5 2q4 0 2 -5v1q-1 0 -4.5 -8t-8 -18.5t-10 -20t-9.5 -13.5q-6 -7 -17 -12q-9 -5 -24 -8.5t-38 -3.5h-19t-19 2
l-19 3q-19 3 -38 3t-39 1q-14 0 -27 -2q-11 -2 -22.5 -6t-18.5 -11q0 -1 -1 -2t-4 -1t-3 3l4.5 7.5t10.5 17t13.5 19t13.5 13.5l7 5q9 7 45 7q8 0 16.5 -0.5t19.5 -1.5h1zM472 500q5 8 18 8q10 0 22 -6t10 -19q-4 -9 -11.5 -12.5t-21.5 2.5q-8 2 -11.5 5.5l-5.5 5.5
q-2 3 -2 5q1 2 1 4q0 5 1 7zM532 478q8 8 18 8t22 -6t9 -19q-2 -10 -10 -13.5t-22 3.5q-8 2 -12 5.5t-6 5.5q-3 3 -2 5q0 2 1 4t1 3.5t1 3.5z" />
    <glyph glyph-name="Eth" unicode="&#xd0;" horiz-adv-x="514" 
d="M423 153q-24 -7 -55 -7h-21.5t-21.5 1q-45 -57 -74 -96t-42 -56h1q-3 -4 -5.5 -7.5t-4.5 -7.5l-1 -1q-2 -4 -8 -12q-2 -2 -2 -5q-2 -5 2 -8v-2q0 -2 -1 -3l-2 -1q-3 0 -3 1q-3 2 -6.5 5t-7.5 5l-8 6q-2 0 -3 3q-3 5 0 13l1 2q0 2 1 3.5t1 3.5l3 4q16 29 36 59.5t43 62.5
q-23 -12 -49 -22t-51 -16t-47 -7.5t-36 4.5q-26 9 -26.5 45.5t28 83t88 96t154.5 85.5q7 2 16 6q8 3 18 6.5t23 7.5h1q29 9 55 12.5t46 3.5q23 0 42 -3q27 -4 44.5 -15.5t27 -27t13 -33.5t3.5 -36q-2 -29 -16 -60t-41 -60l-27 -27t-31 -28q-34 -31 -67.5 -59t-60.5 -51
l-64 -53q-44 -37 -91.5 -85t-98.5 -110q-2 -2 -3 -6q-1 -3 -1.5 -6.5t1.5 -5.5q1 -1 1 -2q0 -2 -2 -4q-4 -4 -7 0q-4 3 -8 7l-8 8l-10 10q-4 5 -4 11q0 5 3.5 13.5t14.5 21.5q9 10 28 30.5t46.5 47t62.5 57t75 62.5q0 1 1 1l40 32q59 48 99.5 83.5t66.5 60t39 38.5t17 19
q14 21 17.5 36t3.5 21q1 13 -3 22.5t-9 17.5q-15 19 -41 24t-52.5 3.5t-47 -6t-23.5 -5.5q-42 -12 -92 -32t-97 -48.5t-85.5 -66t-56.5 -84.5q-2 -3 -3 -12t4 -13q7 -4 23 -4q7 0 21.5 4.5t32.5 11t38.5 15.5t39.5 20h-12q-15 0 -29 -2q-12 -2 -24 -5t-19 -9l-2 -2
q-1 -1 -5 -1q-3 1 -3 4q0 1 5.5 7.5t13 14t14.5 15t10 12.5l9 10q0 -1 10 1t33 2q10 0 25 -1.5t32 -3.5q13 14 14 26l-2 4q-2 5 -1 6q2 2 8 -1l2 -2l2 -1q2 -2 6.5 -7.5t6.5 -15.5q24 30 45.5 54t36.5 38q16 16 29 19t22.5 -1t15.5 -11.5t9 -12.5l5 -9v-2q0 -2 -1 -3
q-4 -1 -6 2q-2 1 -3.5 3t-4.5 0q-9 -5 -21 -15t-25 -22.5t-26 -26t-24 -25.5q25 1 52.5 6t42.5 22l1 1q2 2 4 2q5 0 3 -4q1 2 -2.5 -4.5t-9 -16t-11.5 -19t-10 -12.5l-4 -6t-4 -5l-5 -5v0z" />
    <glyph glyph-name="Ntilde" unicode="&#xd1;" horiz-adv-x="684" 
d="M606 416q-72 6 -172 1t-219 -38q-27 -7 -49 -18q-19 -9 -35.5 -22.5t-20.5 -30.5q-2 -7 -5 -7q-4 -1 -4.5 0.5t-1.5 2.5l-1 70q0 5 3 11q2 5 6.5 10.5t12.5 10.5q1 0 3 2q1 0 1.5 0.5t1.5 0.5q31 16 91.5 25t132 13t146 2t135.5 -8q2 -1 3 -1q1 -1 1.5 -1t1.5 -2l7 -20
q5 -14 2.5 -26t-9.5 -23t-17 -22t-19 -21q-5 -6 -22.5 -24t-42 -44.5t-53 -58.5t-56 -65.5t-51 -66t-37.5 -58.5v1l3 3q10 11 48.5 53t100 101t142.5 127.5t174 132.5q14 10 29 19.5t29 18.5q2 2 4 2l2 1q1 0 3 0.5t4 -0.5l25 -12q4 -2 4 -7t-4 -13t-16 -21q-2 -3 -4 -5
t-3 -4q-1 -1 -2 -1t-1 -1q-8 -10 -32 -37.5t-56 -64.5t-67.5 -80t-65.5 -84q-6 -9 -18.5 -27.5t-26.5 -41t-28 -46t-22 -41.5q-5 -10 -9 -19.5t-8 -20.5q-1 -3 -1 -6q0 -2 1 -5t4 -5q1 -1 1 -2q0 -3 -1 -4l-2 -2q-2 -2 -5 0q-5 2 -11 4t-11 4q-6 3 -12 5q-3 1 -5 4
q-5 5 -5 15v2q1 5 2 10.5t5 13.5q2 3 3 6t3 8q10 25 31 60t47.5 73.5t55 77t55.5 69.5q9 11 19 23.5t22 26.5q14 18 30 35.5t29 31.5q-29 -18 -70.5 -49.5t-97.5 -80t-127 -117.5t-157 -162q-4 -3 -7 -7q-13 -14 -18.5 -23.5t-7.5 -17.5v-1q0 -2 -1 -5q0 -2 -2 -3t-5 3l-2 2
q-2 2 -4 5q-5 7 -10 13.5t-7 8.5q-2 3 -1.5 10t2.5 15q1 10 5 19v1q0 1 0.5 1.5t0.5 1.5v1q6 20 18 44t31 50q13 20 34.5 46.5t46 56t52 60.5t53 59t48 51.5t38.5 38.5q0 1 1 2t1 3q-1 2 -3 3t-4 1zM796 486q10 -5 11 -15.5t-2 -21.5q-5 -27 -9.5 -30t-6.5 -3q-1 0 -1 3
q0 2 1 4q2 4 2 7q2 8 -7 18t-32 18q-2 1 -12 1.5t-20.5 5t-17.5 15t-3 30.5q3 15 8 26q3 6 5 11q2 4 4 4t1 -3q-2 -6 -2 -7t-1 -5q-2 -7 0.5 -14.5t16.5 -13.5l28.5 -13.5t15.5 -7t10 -4t11 -5.5z" />
    <glyph glyph-name="Ograve" unicode="&#xd2;" horiz-adv-x="594" 
d="M285 -67q-45 -15 -78 -19.5t-56 -2t-37 10.5t-22 19q-18 26 -12 67q4 22 11.5 41t16.5 36q-28 14 -41.5 40t-8.5 67q6 43 35.5 88t77.5 83t112 65t138 36q75 9 122.5 -2t72.5 -35t30 -58.5t-5 -73.5q-6 -28 -21.5 -62t-39.5 -70q11 1 26 2.5t20 1.5h3q2 0 3 -1t3 -2
q2 -2 5 -5.5t5 -5.5v-2t-4 -1q-11 0 -34 -3t-43 -8q-47 -63 -115.5 -119t-163.5 -87zM267 -23q83 32 140 70t93 77q-34 -9 -74.5 -18.5t-88.5 -20.5q-59 -13 -110.5 -16.5t-90.5 6.5q-12 -20 -19.5 -39t-6.5 -39q0 -15 7 -23.5t18 -12.5t25 -4.5t29 1.5q34 4 78 19zM87 161
q1 -10 8 -22.5t32 -21.5q22 30 46.5 53t46.5 39q25 18 50 32q42 21 75 31q31 10 55.5 13t39.5 4q5 0 8 -0.5t5 -0.5h5h6q11 0 19 -4q1 -1 3 -1q1 -1 1.5 -2t1.5 -2q5 -5 5 -9v-5q-1 -8 -2 -15q-1 -6 -2 -13t-1 -12q0 -2 -1 -3t-2 -3q-2 0 -2 -1q-2 0 -2.5 2t-1.5 2
q0 6 -6 10q-3 2 -5 2h-6q-32 0 -61.5 -5.5t-52.5 -11.5q-27 -8 -51 -17q-4 -2 -8.5 -3.5t-8.5 -3.5q-25 -11 -55 -30q-16 -11 -31 -24t-29 -28q23 -1 52 1t69 10q75 13 137.5 21.5t107.5 13.5q22 26 36.5 50t23.5 43.5t13.5 33t5.5 19.5q2 7 5 21t1.5 30.5t-11 32t-33.5 25
t-65 10.5t-106 -12q-64 -13 -112.5 -34t-83.5 -45.5t-58 -50.5t-36.5 -49.5t-19 -42t-5.5 -27.5zM490 517q0 -7 7.5 -14.5t18 -13.5t22.5 -9.5t21 -3.5q5 0 7 4t10 4q6 0 6 -2q-1 -2 -1.5 -3.5t-1.5 -3.5t-3 -3q-10 -14 -17 -19.5t-30 -5.5q-21 0 -34.5 4.5t-20.5 10.5
t-9.5 12t-1.5 9q5 15 10.5 26.5t10.5 11.5q3 0 5 -2q1 -1 1 -2z" />
    <glyph glyph-name="Oacute" unicode="&#xd3;" horiz-adv-x="594" 
d="M285 -67q-45 -15 -78 -19.5t-56 -2t-37 10.5t-22 19q-18 26 -12 67q4 22 11.5 41t16.5 36q-28 14 -41.5 40t-8.5 67q6 43 35.5 88t77.5 83t112 65t138 36q75 9 122.5 -2t72.5 -35t30 -58.5t-5 -73.5q-6 -28 -21.5 -62t-39.5 -70q11 1 26 2.5t20 1.5h3q2 0 3 -1t3 -2
q2 -2 5 -5.5t5 -5.5v-2t-4 -1q-11 0 -34 -3t-43 -8q-47 -63 -115.5 -119t-163.5 -87zM267 -23q83 32 140 70t93 77q-34 -9 -74.5 -18.5t-88.5 -20.5q-59 -13 -110.5 -16.5t-90.5 6.5q-12 -20 -19.5 -39t-6.5 -39q0 -15 7 -23.5t18 -12.5t25 -4.5t29 1.5q34 4 78 19zM87 161
q1 -10 8 -22.5t32 -21.5q22 30 46.5 53t46.5 39q25 18 50 32q42 21 75 31q31 10 55.5 13t39.5 4q5 0 8 -0.5t5 -0.5h5h6q11 0 19 -4q1 -1 3 -1q1 -1 1.5 -2t1.5 -2q5 -5 5 -9v-5q-1 -8 -2 -15q-1 -6 -2 -13t-1 -12q0 -2 -1 -3t-2 -3q-2 0 -2 -1q-2 0 -2.5 2t-1.5 2
q0 6 -6 10q-3 2 -5 2h-6q-32 0 -61.5 -5.5t-52.5 -11.5q-27 -8 -51 -17q-4 -2 -8.5 -3.5t-8.5 -3.5q-25 -11 -55 -30q-16 -11 -31 -24t-29 -28q23 -1 52 1t69 10q75 13 137.5 21.5t107.5 13.5q22 26 36.5 50t23.5 43.5t13.5 33t5.5 19.5q2 7 5 21t1.5 30.5t-11 32t-33.5 25
t-65 10.5t-106 -12q-64 -13 -112.5 -34t-83.5 -45.5t-58 -50.5t-36.5 -49.5t-19 -42t-5.5 -27.5zM549 523q2 2 6 2q5 0 5.5 -11.5t-0.5 -26.5q-1 -3 -6 -9t-14.5 -12t-25 -10.5t-36.5 -4.5q-23 0 -27 5.5t-8 19.5q0 1 -1 3q-2 4 -1 7q0 2 6 2q8 0 8 -4t5 -4q9 0 22.5 3.5
t27 9.5t24 13.5t13.5 14.5z" />
    <glyph glyph-name="Ocircumflex" unicode="&#xd4;" horiz-adv-x="594" 
d="M285 -67q-45 -15 -78 -19.5t-56 -2t-37 10.5t-22 19q-18 26 -12 67q4 22 11.5 41t16.5 36q-28 14 -41.5 40t-8.5 67q6 43 35.5 88t77.5 83t112 65t138 36q75 9 122.5 -2t72.5 -35t30 -58.5t-5 -73.5q-6 -28 -21.5 -62t-39.5 -70q11 1 26 2.5t20 1.5h3q2 0 3 -1t3 -2
q2 -2 5 -5.5t5 -5.5v-2t-4 -1q-11 0 -34 -3t-43 -8q-47 -63 -115.5 -119t-163.5 -87zM267 -23q83 32 140 70t93 77q-34 -9 -74.5 -18.5t-88.5 -20.5q-59 -13 -110.5 -16.5t-90.5 6.5q-12 -20 -19.5 -39t-6.5 -39q0 -15 7 -23.5t18 -12.5t25 -4.5t29 1.5q34 4 78 19zM87 161
q1 -10 8 -22.5t32 -21.5q22 30 46.5 53t46.5 39q25 18 50 32q42 21 75 31q31 10 55.5 13t39.5 4q5 0 8 -0.5t5 -0.5h5h6q11 0 19 -4q1 -1 3 -1q1 -1 1.5 -2t1.5 -2q5 -5 5 -9v-5q-1 -8 -2 -15q-1 -6 -2 -13t-1 -12q0 -2 -1 -3t-2 -3q-2 0 -2 -1q-2 0 -2.5 2t-1.5 2
q0 6 -6 10q-3 2 -5 2h-6q-32 0 -61.5 -5.5t-52.5 -11.5q-27 -8 -51 -17q-4 -2 -8.5 -3.5t-8.5 -3.5q-25 -11 -55 -30q-16 -11 -31 -24t-29 -28q23 -1 52 1t69 10q75 13 137.5 21.5t107.5 13.5q22 26 36.5 50t23.5 43.5t13.5 33t5.5 19.5q2 7 5 21t1.5 30.5t-11 32t-33.5 25
t-65 10.5t-106 -12q-64 -13 -112.5 -34t-83.5 -45.5t-58 -50.5t-36.5 -49.5t-19 -42t-5.5 -27.5zM552 525q3 3 7 3q4 -2 4 -3v-2v-2q-2 -7 2 -16t11 -17t15 -14.5t15 -8.5q3 0 5 2t7 2q1 0 4 -1t3 -3q-5 -9 -17 -16t-18 -7q-23 0 -37.5 13t-18.5 21q-5 -2 -11 -3t-13 -1
q-20 0 -31 4t-16 10.5t-5.5 15t1.5 17.5q2 4 3 4q7 0 8.5 -2.5l3 -5t5.5 -5t15 -2.5q15 0 31 3.5t24 10.5l3 3v0z" />
    <glyph glyph-name="Otilde" unicode="&#xd5;" horiz-adv-x="594" 
d="M285 -67q-45 -15 -78 -19.5t-56 -2t-37 10.5t-22 19q-18 26 -12 67q4 22 11.5 41t16.5 36q-28 14 -41.5 40t-8.5 67q6 43 35.5 88t77.5 83t112 65t138 36q75 9 122.5 -2t72.5 -35t30 -58.5t-5 -73.5q-6 -28 -21.5 -62t-39.5 -70q11 1 26 2.5t20 1.5h3q2 0 3 -1t3 -2
q2 -2 5 -5.5t5 -5.5v-2t-4 -1q-11 0 -34 -3t-43 -8q-47 -63 -115.5 -119t-163.5 -87zM267 -23q83 32 140 70t93 77q-34 -9 -74.5 -18.5t-88.5 -20.5q-59 -13 -110.5 -16.5t-90.5 6.5q-12 -20 -19.5 -39t-6.5 -39q0 -15 7 -23.5t18 -12.5t25 -4.5t29 1.5q34 4 78 19zM87 161
q1 -10 8 -22.5t32 -21.5q22 30 46.5 53t46.5 39q25 18 50 32q42 21 75 31q31 10 55.5 13t39.5 4q5 0 8 -0.5t5 -0.5h5h6q11 0 19 -4q1 -1 3 -1q1 -1 1.5 -2t1.5 -2q5 -5 5 -9v-5q-1 -8 -2 -15q-1 -6 -2 -13t-1 -12q0 -2 -1 -3t-2 -3q-2 0 -2 -1q-2 0 -2.5 2t-1.5 2
q0 6 -6 10q-3 2 -5 2h-6q-32 0 -61.5 -5.5t-52.5 -11.5q-27 -8 -51 -17q-4 -2 -8.5 -3.5t-8.5 -3.5q-25 -11 -55 -30q-16 -11 -31 -24t-29 -28q23 -1 52 1t69 10q75 13 137.5 21.5t107.5 13.5q22 26 36.5 50t23.5 43.5t13.5 33t5.5 19.5q2 7 5 21t1.5 30.5t-11 32t-33.5 25
t-65 10.5t-106 -12q-64 -13 -112.5 -34t-83.5 -45.5t-58 -50.5t-36.5 -49.5t-19 -42t-5.5 -27.5zM616 487q10 -5 11 -15.5t-2 -21.5q-5 -27 -9.5 -30t-6.5 -3q-1 0 -1 3q0 2 1 4q2 4 2 7q2 8 -7 18t-32 18q-2 1 -12 1.5t-20.5 5t-17.5 15t-3 30.5q3 15 8 26q3 6 5 11
q2 4 4 4t1 -3q-2 -6 -2 -7t-1 -5q-2 -7 0.5 -14.5t16.5 -13.5l28.5 -13.5t15.5 -7t10 -4t11 -5.5z" />
    <glyph glyph-name="Odieresis" unicode="&#xd6;" horiz-adv-x="594" 
d="M285 -67q-45 -15 -78 -19.5t-56 -2t-37 10.5t-22 19q-18 26 -12 67q4 22 11.5 41t16.5 36q-28 14 -41.5 40t-8.5 67q6 43 35.5 88t77.5 83t112 65t138 36q75 9 122.5 -2t72.5 -35t30 -58.5t-5 -73.5q-6 -28 -21.5 -62t-39.5 -70q11 1 26 2.5t20 1.5h3q2 0 3 -1t3 -2
q2 -2 5 -5.5t5 -5.5v-2t-4 -1q-11 0 -34 -3t-43 -8q-47 -63 -115.5 -119t-163.5 -87zM267 -23q83 32 140 70t93 77q-34 -9 -74.5 -18.5t-88.5 -20.5q-59 -13 -110.5 -16.5t-90.5 6.5q-12 -20 -19.5 -39t-6.5 -39q0 -15 7 -23.5t18 -12.5t25 -4.5t29 1.5q34 4 78 19zM87 161
q1 -10 8 -22.5t32 -21.5q22 30 46.5 53t46.5 39q25 18 50 32q42 21 75 31q31 10 55.5 13t39.5 4q5 0 8 -0.5t5 -0.5h5h6q11 0 19 -4q1 -1 3 -1q1 -1 1.5 -2t1.5 -2q5 -5 5 -9v-5q-1 -8 -2 -15q-1 -6 -2 -13t-1 -12q0 -2 -1 -3t-2 -3q-2 0 -2 -1q-2 0 -2.5 2t-1.5 2
q0 6 -6 10q-3 2 -5 2h-6q-32 0 -61.5 -5.5t-52.5 -11.5q-27 -8 -51 -17q-4 -2 -8.5 -3.5t-8.5 -3.5q-25 -11 -55 -30q-16 -11 -31 -24t-29 -28q23 -1 52 1t69 10q75 13 137.5 21.5t107.5 13.5q22 26 36.5 50t23.5 43.5t13.5 33t5.5 19.5q2 7 5 21t1.5 30.5t-11 32t-33.5 25
t-65 10.5t-106 -12q-64 -13 -112.5 -34t-83.5 -45.5t-58 -50.5t-36.5 -49.5t-19 -42t-5.5 -27.5zM521 501q5 8 18 8q10 0 22 -6t10 -19q-4 -9 -11.5 -12.5t-21.5 2.5q-8 2 -11.5 5.5l-5.5 5.5q-2 3 -2 5q1 2 1 4q0 5 1 7zM581 479q8 8 18 8t22 -6t9 -19q-2 -10 -10 -13.5
t-22 3.5q-8 2 -12 5.5t-6 5.5q-3 3 -2 5q0 2 1 4t1 3.5t1 3.5z" />
    <glyph glyph-name="multiply" unicode="&#xd7;" horiz-adv-x="322" 
d="M303 287h13q4 1 12.5 -0.5t17 -3.5t15 -3.5t7.5 -0.5q1 -3 -1 -5q-3 -3 -6 -3h-2q-11 -1 -25.5 -8.5t-29.5 -19t-30 -24t-26 -23.5q-8 -8 -17 -16.5t-17 -16.5q11 -14 19 -26.5t13 -20.5q8 -16 9.5 -24.5t2.5 -8.5l-7 -12q-4 -5 -10.5 -14t-12.5 -18l-11 -16.5t-7 -8.5
q-2 -2 -5 0q-2 2 1 5q1 1 1 2q4 8 3 18.5t-3 20.5q-3 11 -8 22q-6 11 -12 20.5t-11 20.5q-14 -14 -24 -24.5t-18 -17.5q-20 -20 -30.5 -27.5t-9.5 -8.5h-12q-6 0 -15.5 -0.5l-19 -1t-17 -1t-8.5 0.5q-2 1 1 5q3 3 4 3h2q9 2 21.5 10t23.5 17q13 11 28 24q28 25 51 51
q-5 10 -11 19.5t-12 19.5q-5 11 -8 22t-3 22q1 2 4 6q2 3 4.5 6t5.5 7q2 4 10 13.5t17 18.5l15 15t3 4q3 3 6 0q0 -3 -1 -4l-1 -1q-8 -11 -9 -24t1.5 -26t7 -25t8.5 -21l5 -9q12 13 23.5 25t25.5 24q25 25 53 42h6z" />
    <glyph glyph-name="Oslash" unicode="&#xd8;" horiz-adv-x="594" 
d="M279 -97q-33 -11 -57 -15q-5 -13 -8.5 -27t-0.5 -22q0 -1 1 -2q0 -1 0.5 -1.5t-0.5 -2.5q-4 -4 -6 -3q-1 0 -4.5 5.5t-8 13t-9 14.5t-7.5 10l-6 8q-46 -2 -67 12.5t-28 33.5q-9 22 -4 51q4 22 11 41t16 36q-28 14 -41 40t-8 67q6 43 35.5 88t77.5 83t112 65t138 36
q75 9 122.5 -2t72.5 -35t30 -58.5t-5 -73.5q-6 -28 -21.5 -62t-39.5 -70q11 1 26 2.5t20 1.5h3q2 0 3 -1t3 -2l10 -11q-1 -1 -0.5 -2t-3.5 -1q-11 0 -34 -3t-43 -8q-47 -63 -115.5 -119t-163.5 -87zM436 324q-2 -12 -7 -26t-11 -28l-7 -13l23 2q5 0 8 -0.5t5 -0.5h4h6
q13 0 19 -4q1 -1 3 -1q3 -2 3 -4q5 -5 5 -9v-5q-1 -8 -2 -15q-1 -6 -1.5 -13t-0.5 -12l-1.5 -3l-1.5 -3q-2 0 -3 -1q-2 0 -2.5 2t-1.5 2q0 5 -5 10q-3 2 -5 2h-6q-20 0 -40 -2.5t-38 -5.5l-50 -96q60 9 109 15.5t87 11.5q22 26 37 50t24 43.5t13 33t6 19.5q1 7 4.5 21
t1.5 30.5t-11.5 32t-33.5 25t-65 10.5t-106 -12t-113 -34t-83 -45.5t-58 -50.5t-36.5 -49.5t-19 -42t-5.5 -27.5q2 -10 9 -22.5t32 -21.5q21 30 46 53t46 39q25 18 50 32q42 21 76 31l17 5l5 9q6 12 12.5 27.5t10.5 30.5t5 28.5t-5 21.5q-1 0 -1 1q-2 2 0 5q3 3 5 3
q0 -1 5 -5.5t12 -9.5t13 -10.5t8 -9.5q2 -2 3.5 -4.5t3.5 -4.5q2 -3 3 -5zM103 -33q1 -16 9 -24.5t20.5 -12.5t28 -3.5t30.5 2.5q6 11 22 42t37 70q-35 -4 -65.5 -3.5t-54.5 7.5q-12 -20 -19.5 -39t-7.5 -39zM260 -53q83 32 140 70t93 77q-33 -9 -74 -18.5t-89 -20.5
q-7 -2 -14 -3.5t-14 -2.5l-55 -106q6 1 9 3q2 1 4 1zM160 81q22 -1 50 1t66 9l47 90q-8 -2 -13.5 -4t-9.5 -4t-8 -3l-18 -7q-27 -12 -54 -30q-16 -11 -31 -24t-29 -28z" />
    <glyph glyph-name="Ugrave" unicode="&#xd9;" horiz-adv-x="556" 
d="M394 393q-55 -36 -114.5 -84t-118.5 -108q-20 -21 -34 -41q-12 -17 -19.5 -36.5t0.5 -33.5q2 -5 0 -8q-4 -2 -5 -2t-2 1l-46 46q-3 5 -4 10t-0.5 11t5.5 14q0 1 2 3q1 1 1 1.5t1 1.5h-1q13 18 37 41.5t56.5 49.5t71.5 54t81 55q5 3 10 7q5 3 11.5 7t14.5 9q17 10 39 22.5
t44.5 23t42.5 17t34 4.5q2 -1 4 -1t3 -1q6 -2 11 -5q11 -7 17 -17q5 -9 4 -24t-17 -36q-2 -2 -4 -5l-4 -6h-1q-30 -33 -75 -85t-89 -110h1q-37 -56 -51.5 -93.5t-16.5 -60t5 -31.5t13 -9t25.5 19.5t40.5 42.5q25 27 55 62q66 78 112 130q14 18 27.5 35t26.5 32
q12 15 26.5 31.5l29 33t28 32t24.5 26.5q6 8 12 14q5 5 9.5 10t6.5 7q4 5 11 10t13 3q2 -1 7.5 -2t10.5 -2q6 -2 13 -3q3 0 5 -2q3 -3 -1 -10q-3 -4 -6 -7l-6 -6q-4 -4 -6 -7l-32 -36t-55.5 -63t-67 -78.5t-65.5 -82.5q-6 -9 -18.5 -27.5t-26.5 -41t-27.5 -46t-21.5 -41.5
q-5 -10 -9 -19.5t-9 -20.5q-1 -3 -1 -6q0 -2 1 -5t4 -5q0 -1 1 -2.5t0 -3.5q-2 -2 -3 -2q-1 -1 -5 -1q-5 2 -11 4.5t-11 4.5q-6 3 -12 5q-3 0 -5 3q-2 2 -3.5 6t-1.5 10l1 2q0 10 7 24q2 3 3 6t3 8q3 8 7 16l9 18q-35 -42 -64 -73.5t-41 -34.5q-13 -4 -23 -1t-18 8
q-9 6 -17 15q-9 13 -12 24q-8 22 -4.5 47t12.5 49.5t20.5 46t21.5 36.5l6 10t5 8q3 4 5 6l1 1q20 26 39 51.5t37 46.5q46 55 87 99v1q5 7 9 13q3 5 3.5 11.5t-4.5 11.5q-5 4 -16 2t-23.5 -8t-25 -13.5t-20.5 -12.5zM607 517q0 -7 7.5 -14.5t18 -13.5t22.5 -9.5t21 -3.5
q5 0 7 4t10 4q6 0 6 -2q-1 -2 -1.5 -3.5t-1.5 -3.5t-3 -3q-10 -14 -17 -19.5t-30 -5.5q-21 0 -34.5 4.5t-20.5 10.5t-9.5 12t-1.5 9q5 15 10.5 26.5t10.5 11.5q3 0 5 -2q1 -1 1 -2z" />
    <glyph glyph-name="Uacute" unicode="&#xda;" horiz-adv-x="556" 
d="M394 393q-55 -36 -114.5 -84t-118.5 -108q-20 -21 -34 -41q-12 -17 -19.5 -36.5t0.5 -33.5q2 -5 0 -8q-4 -2 -5 -2t-2 1l-46 46q-3 5 -4 10t-0.5 11t5.5 14q0 1 2 3q1 1 1 1.5t1 1.5h-1q13 18 37 41.5t56.5 49.5t71.5 54t81 55q5 3 10 7q5 3 11.5 7t14.5 9q17 10 39 22.5
t44.5 23t42.5 17t34 4.5q2 -1 4 -1t3 -1q6 -2 11 -5q11 -7 17 -17q5 -9 4 -24t-17 -36q-2 -2 -4 -5l-4 -6h-1q-30 -33 -75 -85t-89 -110h1q-37 -56 -51.5 -93.5t-16.5 -60t5 -31.5t13 -9t25.5 19.5t40.5 42.5q25 27 55 62q66 78 112 130q14 18 27.5 35t26.5 32
q12 15 26.5 31.5l29 33t28 32t24.5 26.5q6 8 12 14q5 5 9.5 10t6.5 7q4 5 11 10t13 3q2 -1 7.5 -2t10.5 -2q6 -2 13 -3q3 0 5 -2q3 -3 -1 -10q-3 -4 -6 -7l-6 -6q-4 -4 -6 -7l-32 -36t-55.5 -63t-67 -78.5t-65.5 -82.5q-6 -9 -18.5 -27.5t-26.5 -41t-27.5 -46t-21.5 -41.5
q-5 -10 -9 -19.5t-9 -20.5q-1 -3 -1 -6q0 -2 1 -5t4 -5q0 -1 1 -2.5t0 -3.5q-2 -2 -3 -2q-1 -1 -5 -1q-5 2 -11 4.5t-11 4.5q-6 3 -12 5q-3 0 -5 3q-2 2 -3.5 6t-1.5 10l1 2q0 10 7 24q2 3 3 6t3 8q3 8 7 16l9 18q-35 -42 -64 -73.5t-41 -34.5q-13 -4 -23 -1t-18 8
q-9 6 -17 15q-9 13 -12 24q-8 22 -4.5 47t12.5 49.5t20.5 46t21.5 36.5l6 10t5 8q3 4 5 6l1 1q20 26 39 51.5t37 46.5q46 55 87 99v1q5 7 9 13q3 5 3.5 11.5t-4.5 11.5q-5 4 -16 2t-23.5 -8t-25 -13.5t-20.5 -12.5zM686 519q2 2 6 2q5 0 5.5 -11.5t-0.5 -26.5q-1 -3 -6 -9
t-14.5 -12t-25 -10.5t-36.5 -4.5q-23 0 -27 5.5t-8 19.5q0 1 -1 3q-2 4 -1 7q0 2 6 2q8 0 8 -4t5 -4q9 0 22.5 3.5t27 9.5t24 13.5t13.5 14.5z" />
    <glyph glyph-name="Ucircumflex" unicode="&#xdb;" horiz-adv-x="556" 
d="M394 393q-55 -36 -114.5 -84t-118.5 -108q-20 -21 -34 -41q-12 -17 -19.5 -36.5t0.5 -33.5q2 -5 0 -8q-4 -2 -5 -2t-2 1l-46 46q-3 5 -4 10t-0.5 11t5.5 14q0 1 2 3q1 1 1 1.5t1 1.5h-1q13 18 37 41.5t56.5 49.5t71.5 54t81 55q5 3 10 7q5 3 11.5 7t14.5 9q17 10 39 22.5
t44.5 23t42.5 17t34 4.5q2 -1 4 -1t3 -1q6 -2 11 -5q11 -7 17 -17q5 -9 4 -24t-17 -36q-2 -2 -4 -5l-4 -6h-1q-30 -33 -75 -85t-89 -110h1q-37 -56 -51.5 -93.5t-16.5 -60t5 -31.5t13 -9t25.5 19.5t40.5 42.5q25 27 55 62q66 78 112 130q14 18 27.5 35t26.5 32
q12 15 26.5 31.5l29 33t28 32t24.5 26.5q6 8 12 14q5 5 9.5 10t6.5 7q4 5 11 10t13 3q2 -1 7.5 -2t10.5 -2q6 -2 13 -3q3 0 5 -2q3 -3 -1 -10q-3 -4 -6 -7l-6 -6q-4 -4 -6 -7l-32 -36t-55.5 -63t-67 -78.5t-65.5 -82.5q-6 -9 -18.5 -27.5t-26.5 -41t-27.5 -46t-21.5 -41.5
q-5 -10 -9 -19.5t-9 -20.5q-1 -3 -1 -6q0 -2 1 -5t4 -5q0 -1 1 -2.5t0 -3.5q-2 -2 -3 -2q-1 -1 -5 -1q-5 2 -11 4.5t-11 4.5q-6 3 -12 5q-3 0 -5 3q-2 2 -3.5 6t-1.5 10l1 2q0 10 7 24q2 3 3 6t3 8q3 8 7 16l9 18q-35 -42 -64 -73.5t-41 -34.5q-13 -4 -23 -1t-18 8
q-9 6 -17 15q-9 13 -12 24q-8 22 -4.5 47t12.5 49.5t20.5 46t21.5 36.5l6 10t5 8q3 4 5 6l1 1q20 26 39 51.5t37 46.5q46 55 87 99v1q5 7 9 13q3 5 3.5 11.5t-4.5 11.5q-5 4 -16 2t-23.5 -8t-25 -13.5t-20.5 -12.5zM663 523q3 3 7 3q4 -2 4 -3v-2v-2q-2 -7 2 -16t11 -17
t15 -14.5t15 -8.5q3 0 5 2t7 2q1 0 4 -1t3 -3q-5 -9 -17 -16t-18 -7q-23 0 -37.5 13t-18.5 21q-5 -2 -11 -3t-13 -1q-20 0 -31 4t-16 10.5t-5.5 15t1.5 17.5q2 4 3 4q7 0 8.5 -2.5l3 -5t5.5 -5t15 -2.5q15 0 31 3.5t24 10.5l3 3v0z" />
    <glyph glyph-name="Udieresis" unicode="&#xdc;" horiz-adv-x="556" 
d="M394 393q-55 -36 -114.5 -84t-118.5 -108q-20 -21 -34 -41q-12 -17 -19.5 -36.5t0.5 -33.5q2 -5 0 -8q-4 -2 -5 -2t-2 1l-46 46q-3 5 -4 10t-0.5 11t5.5 14q0 1 2 3q1 1 1 1.5t1 1.5h-1q13 18 37 41.5t56.5 49.5t71.5 54t81 55q5 3 10 7q5 3 11.5 7t14.5 9q17 10 39 22.5
t44.5 23t42.5 17t34 4.5q2 -1 4 -1t3 -1q6 -2 11 -5q11 -7 17 -17q5 -9 4 -24t-17 -36q-2 -2 -4 -5l-4 -6h-1q-30 -33 -75 -85t-89 -110h1q-37 -56 -51.5 -93.5t-16.5 -60t5 -31.5t13 -9t25.5 19.5t40.5 42.5q25 27 55 62q66 78 112 130q14 18 27.5 35t26.5 32
q12 15 26.5 31.5l29 33t28 32t24.5 26.5q6 8 12 14q5 5 9.5 10t6.5 7q4 5 11 10t13 3q2 -1 7.5 -2t10.5 -2q6 -2 13 -3q3 0 5 -2q3 -3 -1 -10q-3 -4 -6 -7l-6 -6q-4 -4 -6 -7l-32 -36t-55.5 -63t-67 -78.5t-65.5 -82.5q-6 -9 -18.5 -27.5t-26.5 -41t-27.5 -46t-21.5 -41.5
q-5 -10 -9 -19.5t-9 -20.5q-1 -3 -1 -6q0 -2 1 -5t4 -5q0 -1 1 -2.5t0 -3.5q-2 -2 -3 -2q-1 -1 -5 -1q-5 2 -11 4.5t-11 4.5q-6 3 -12 5q-3 0 -5 3q-2 2 -3.5 6t-1.5 10l1 2q0 10 7 24q2 3 3 6t3 8q3 8 7 16l9 18q-35 -42 -64 -73.5t-41 -34.5q-13 -4 -23 -1t-18 8
q-9 6 -17 15q-9 13 -12 24q-8 22 -4.5 47t12.5 49.5t20.5 46t21.5 36.5l6 10t5 8q3 4 5 6l1 1q20 26 39 51.5t37 46.5q46 55 87 99v1q5 7 9 13q3 5 3.5 11.5t-4.5 11.5q-5 4 -16 2t-23.5 -8t-25 -13.5t-20.5 -12.5zM613 502q5 8 18 8q10 0 22 -6t10 -19q-4 -9 -11.5 -12.5
t-21.5 2.5q-8 2 -11.5 5.5l-5.5 5.5q-2 3 -2 5q1 2 1 4q0 5 1 7zM673 480q8 8 18 8t22 -6t9 -19q-2 -10 -10 -13.5t-22 3.5q-8 2 -12 5.5t-6 5.5q-3 3 -2 5q0 2 1 4t1 3.5t1 3.5z" />
    <glyph glyph-name="Yacute" unicode="&#xdd;" horiz-adv-x="557" 
d="M759 418q-9 -11 -40 -45.5t-70 -80.5q-2 -2 -20.5 -25.5t-46.5 -61.5t-62 -86t-67 -98q-12 -19 -25 -37.5t-27 -37.5q-23 -30 -49 -57t-55 -45t-61 -25t-66 2q-3 1 -3 5q0 2 1 3q2 3 4.5 3.5t4.5 0.5h1q6 0 17 1t25 6t30.5 14.5t34.5 26.5q19 18 42.5 48.5t50.5 70.5
q2 3 11 15.5t14 19.5q-15 -17 -30.5 -34t-29 -31t-23.5 -23.5t-15 -10.5q-13 -4 -23.5 -1t-18.5 8q-9 6 -16 15q-9 13 -12 24q-8 22 -4.5 47t12.5 49.5t20.5 46t21.5 36.5l6 10t5 8q3 4 5 6l1 1q19 26 38.5 51.5t37.5 46.5q23 28 44.5 52.5t42.5 46.5l-1 1q6 7 10 13
q3 5 3.5 11.5t-4.5 11.5q-5 4 -16 2t-23.5 -8t-25 -13.5t-20.5 -12.5q-55 -36 -114.5 -84t-118.5 -108q-20 -21 -34 -41q-12 -17 -19.5 -36.5t0.5 -33.5q2 -5 0 -8q-7 -4 -7 -1l-46 46q-3 5 -4 10t-0.5 11t5.5 14q0 1 2 3q0 1 2 3h-1q13 18 37 41.5t56.5 49.5t71 54t80.5 55
q5 3 10 7q5 3 11.5 7t14.5 9q17 10 39 22.5t44.5 23t43 17t34.5 4.5q2 -1 4 -1t3 -1l10 -5q5 -3 9.5 -7t8.5 -10q5 -9 4 -24t-17 -36q-2 -3 -4.5 -5.5t-4.5 -5.5h-1q-15 -17 -34 -38.5t-40.5 -46.5t-44 -53t-44.5 -57h1q-37 -56 -51.5 -93.5t-16.5 -60t5 -31.5t13 -9
t25.5 19.5t40.5 42.5q25 27 55 62q29 34 54.5 65t47.5 57q2 2 9 10.5t10 12.5q12 15 22.5 27t21.5 25q12 15 27 31.5t29.5 33t28 32t24.5 26.5l12 14q5 5 9 10t6 7q4 5 11.5 10t13.5 3q2 -1 7.5 -2t10.5 -2q6 -2 13 -3q3 0 5 -2q3 -3 -1 -10q-3 -4 -6 -7l-6 -6q-4 -4 -6 -7z
M699 520q2 2 6 2q5 0 5.5 -11.5t-0.5 -26.5q-1 -3 -6 -9t-14.5 -12t-25 -10.5t-36.5 -4.5q-23 0 -27 5.5t-8 19.5q0 1 -1 3q-2 4 -1 7q0 2 6 2q8 0 8 -4t5 -4q9 0 22.5 3.5t27 9.5t24 13.5t13.5 14.5z" />
    <glyph glyph-name="agrave" unicode="&#xe0;" 
d="M106 3q-6 3 -12 13t-2 27q6 28 15 42.5t7 14.5q-3 -5 -21 -22t-39.5 -35t-41 -32t-25.5 -14q-5 0 -11 10t1 42q5 25 25 65.5t69 97.5q9 9 19 17q8 7 18 12.5t20 5.5q4 0 10 -2q9 -5 18.5 -10t17.5 -10q9 -5 18 -11l13.5 13.5t17.5 9.5q10 0 18.5 -11t6.5 -21
q-1 -4 -6.5 -9t-17.5 -18.5t-31.5 -40.5t-48.5 -75q-1 -2 -3 -5q-4 -6 -4 -8q0 -1 1 -1q2 0 14 12q19 19 32 32.5t21 21.5t12.5 11.5t7.5 3.5q9 0 7 -8q-1 -3 -3.5 -6t-3.5 -5q-26 -26 -46 -47q-17 -18 -33 -34t-18 -19q-10 -10 -14 -10t-8 3zM6 28q4 1 13 8.5t21.5 19.5
t27.5 27.5t30 30.5q35 36 78 82q-16 14 -27 14q-14 0 -29.5 -15.5t-41.5 -47.5q-20 -24 -34 -45.5t-22 -38.5q-11 -19 -16 -35zM187 342q0 -7 7.5 -14.5t18 -13.5t22.5 -9.5t21 -3.5q5 0 7 4t10 4q6 0 6 -2q-1 -2 -1.5 -3.5t-1.5 -3.5t-3 -3q-10 -14 -17 -19.5t-30 -5.5
q-21 0 -34.5 4.5t-20.5 10.5t-9.5 12t-1.5 9q5 15 10.5 26.5t10.5 11.5q3 0 5 -2q1 -1 1 -2z" />
    <glyph glyph-name="aacute" unicode="&#xe1;" 
d="M106 3q-6 3 -12 13t-2 27q6 28 15 42.5t7 14.5q-3 -5 -21 -22t-39.5 -35t-41 -32t-25.5 -14q-5 0 -11 10t1 42q5 25 25 65.5t69 97.5q9 9 19 17q8 7 18 12.5t20 5.5q4 0 10 -2q9 -5 18.5 -10t17.5 -10q9 -5 18 -11l13.5 13.5t17.5 9.5q10 0 18.5 -11t6.5 -21
q-1 -4 -6.5 -9t-17.5 -18.5t-31.5 -40.5t-48.5 -75q-1 -2 -3 -5q-4 -6 -4 -8q0 -1 1 -1q2 0 14 12q19 19 32 32.5t21 21.5t12.5 11.5t7.5 3.5q9 0 7 -8q-1 -3 -3.5 -6t-3.5 -5q-26 -26 -46 -47q-17 -18 -33 -34t-18 -19q-10 -10 -14 -10t-8 3zM6 28q4 1 13 8.5t21.5 19.5
t27.5 27.5t30 30.5q35 36 78 82q-16 14 -27 14q-14 0 -29.5 -15.5t-41.5 -47.5q-20 -24 -34 -45.5t-22 -38.5q-11 -19 -16 -35zM258 344q2 2 6 2q5 0 5.5 -11.5t-0.5 -26.5q-1 -3 -6 -9t-14.5 -12t-25 -10.5t-36.5 -4.5q-23 0 -27 5.5t-8 19.5q0 1 -1 3q-2 4 -1 7q0 2 6 2
q8 0 8 -4t5 -4q9 0 22.5 3.5t27 9.5t24 13.5t13.5 14.5z" />
    <glyph glyph-name="acircumflex" unicode="&#xe2;" 
d="M106 3q-6 3 -12 13t-2 27q6 28 15 42.5t7 14.5q-3 -5 -21 -22t-39.5 -35t-41 -32t-25.5 -14q-5 0 -11 10t1 42q5 25 25 65.5t69 97.5q9 9 19 17q8 7 18 12.5t20 5.5q4 0 10 -2q9 -5 18.5 -10t17.5 -10q9 -5 18 -11l13.5 13.5t17.5 9.5q10 0 18.5 -11t6.5 -21
q-1 -4 -6.5 -9t-17.5 -18.5t-31.5 -40.5t-48.5 -75q-1 -2 -3 -5q-4 -6 -4 -8q0 -1 1 -1q2 0 14 12q19 19 32 32.5t21 21.5t12.5 11.5t7.5 3.5q9 0 7 -8q-1 -3 -3.5 -6t-3.5 -5q-26 -26 -46 -47q-17 -18 -33 -34t-18 -19q-10 -10 -14 -10t-8 3zM6 28q4 1 13 8.5t21.5 19.5
t27.5 27.5t30 30.5q35 36 78 82q-16 14 -27 14q-14 0 -29.5 -15.5t-41.5 -47.5q-20 -24 -34 -45.5t-22 -38.5q-11 -19 -16 -35zM228 334q3 3 7 3q4 -2 4 -3v-2v-2q-2 -7 2 -16t11 -17t15 -14.5t15 -8.5q3 0 5 2t7 2q1 0 4 -1t3 -3q-5 -9 -17 -16t-18 -7q-23 0 -37.5 13
t-18.5 21q-5 -2 -11 -3t-13 -1q-20 0 -31 4t-16 10.5t-5.5 15t1.5 17.5q2 4 3 4q7 0 8.5 -2.5l3 -5t5.5 -5t15 -2.5q15 0 31 3.5t24 10.5l3 3v0z" />
    <glyph glyph-name="atilde" unicode="&#xe3;" 
d="M106 3q-6 3 -12 13t-2 27q6 28 15 42.5t7 14.5q-3 -5 -21 -22t-39.5 -35t-41 -32t-25.5 -14q-5 0 -11 10t1 42q5 25 25 65.5t69 97.5q9 9 19 17q8 7 18 12.5t20 5.5q4 0 10 -2q9 -5 18.5 -10t17.5 -10q9 -5 18 -11l13.5 13.5t17.5 9.5q10 0 18.5 -11t6.5 -21
q-1 -4 -6.5 -9t-17.5 -18.5t-31.5 -40.5t-48.5 -75q-1 -2 -3 -5q-4 -6 -4 -8q0 -1 1 -1q2 0 14 12q19 19 32 32.5t21 21.5t12.5 11.5t7.5 3.5q9 0 7 -8q-1 -3 -3.5 -6t-3.5 -5q-26 -26 -46 -47q-17 -18 -33 -34t-18 -19q-10 -10 -14 -10t-8 3zM6 28q4 1 13 8.5t21.5 19.5
t27.5 27.5t30 30.5q35 36 78 82q-16 14 -27 14q-14 0 -29.5 -15.5t-41.5 -47.5q-20 -24 -34 -45.5t-22 -38.5q-11 -19 -16 -35zM272 295q10 -5 11 -15.5t-2 -21.5q-5 -27 -9.5 -30t-6.5 -3q-1 0 -1 3q0 2 1 4q2 4 2 7q2 8 -7 18t-32 18q-2 1 -12 1.5t-20.5 5t-17.5 15
t-3 30.5q3 15 8 26q3 6 5 11q2 4 4 4t1 -3q-2 -6 -2 -7t-1 -5q-2 -7 0.5 -14.5t16.5 -13.5l28.5 -13.5t15.5 -7t10 -4t11 -5.5z" />
    <glyph glyph-name="adieresis" unicode="&#xe4;" 
d="M106 3q-6 3 -12 13t-2 27q6 28 15 42.5t7 14.5q-3 -5 -21 -22t-39.5 -35t-41 -32t-25.5 -14q-5 0 -11 10t1 42q5 25 25 65.5t69 97.5q9 9 19 17q8 7 18 12.5t20 5.5q4 0 10 -2q9 -5 18.5 -10t17.5 -10q9 -5 18 -11l13.5 13.5t17.5 9.5q10 0 18.5 -11t6.5 -21
q-1 -4 -6.5 -9t-17.5 -18.5t-31.5 -40.5t-48.5 -75q-1 -2 -3 -5q-4 -6 -4 -8q0 -1 1 -1q2 0 14 12q19 19 32 32.5t21 21.5t12.5 11.5t7.5 3.5q9 0 7 -8q-1 -3 -3.5 -6t-3.5 -5q-26 -26 -46 -47q-17 -18 -33 -34t-18 -19q-10 -10 -14 -10t-8 3zM6 28q4 1 13 8.5t21.5 19.5
t27.5 27.5t30 30.5q35 36 78 82q-16 14 -27 14q-14 0 -29.5 -15.5t-41.5 -47.5q-20 -24 -34 -45.5t-22 -38.5q-11 -19 -16 -35zM180 314q5 8 18 8q10 0 22 -6t10 -19q-4 -9 -11.5 -12.5t-21.5 2.5q-8 2 -11.5 5.5l-5.5 5.5q-2 3 -2 5q1 2 1 4q0 5 1 7zM240 292q8 8 18 8
t22 -6t9 -19q-2 -10 -10 -13.5t-22 3.5q-8 2 -12 5.5t-6 5.5q-3 3 -2 5q0 2 1 4t1 3.5t1 3.5z" />
    <glyph glyph-name="aring" unicode="&#xe5;" 
d="M106 3q-6 3 -12 13t-2 27q6 28 15 42.5t7 14.5q-3 -5 -21 -22t-39.5 -35t-41 -32t-25.5 -14q-5 0 -11 10t1 42q5 25 25 65.5t69 97.5q9 9 19 17q8 7 18 12.5t20 5.5q4 0 10 -2q9 -5 18.5 -10t17.5 -10q9 -5 18 -11l13.5 13.5t17.5 9.5q10 0 18.5 -11t6.5 -21
q-1 -4 -6.5 -9t-17.5 -18.5t-31.5 -40.5t-48.5 -75q-1 -2 -3 -5q-4 -6 -4 -8q0 -1 1 -1q2 0 14 12q19 19 32 32.5t21 21.5t12.5 11.5t7.5 3.5q9 0 7 -8q-1 -3 -3.5 -6t-3.5 -5q-26 -26 -46 -47q-17 -18 -33 -34t-18 -19q-10 -10 -14 -10t-8 3zM6 28q4 1 13 8.5t21.5 19.5
t27.5 27.5t30 30.5q35 36 78 82q-16 14 -27 14q-14 0 -29.5 -15.5t-41.5 -47.5q-20 -24 -34 -45.5t-22 -38.5q-11 -19 -16 -35zM179 327q5 8 14 11.5t18 3.5t20 -3t20.5 -9t15 -15t2.5 -21q-4 -17 -18.5 -23.5t-41.5 4.5q-14 5 -21 11t-10 11q-4 5 -3 11q0 3 1 7zM202 319
q2 -5 7 -7.5l9 -4.5q22 -8 25 -3h1q1 5 -6.5 10.5t-15.5 7.5q-2 1 -10 0.5t-10 -3.5z" />
    <glyph glyph-name="ae" unicode="&#xe6;" horiz-adv-x="283" 
d="M203 102q-8 -4 -18 -7.5t-21 -5.5q-18 -24 -27 -40q1 0 -4.5 -8.5t-7.5 -14.5q-4 -19 10 -16q17 2 39.5 15.5t44.5 31.5t41 35.5t28 27.5v1l1 1q3 2 7 5t8 0q2 -1 3 -3q2 -4 -4 -12q-22 -26 -47.5 -49.5t-51 -41t-48.5 -26t-40 -5.5q-20 3 -24.5 15t-5.5 19q0 11 4.5 25
t12.5 28q5 11 9 17t2 6q-3 -5 -21 -22t-39.5 -35t-41 -32t-25.5 -14q-5 0 -11 10t1 42q5 25 25 65.5t69 97.5q9 9 19 17q8 7 18 12.5t20 5.5q4 0 10 -2q9 -5 18.5 -10t17.5 -10q9 -5 18 -11l13.5 13.5t17.5 9.5q5 0 13 -6q20 14 35 16t20 -3q6 -5 8.5 -11.5t3.5 -12.5
q1 -7 -1 -15q-8 -29 -27 -49.5t-36 -33.5q-1 0 -10 -6t-25 -14h-1zM6 28q4 1 13 8.5t21.5 19.5t27.5 27.5t30 30.5q35 36 78 82q-16 14 -27 14q-14 0 -29.5 -15.5t-41.5 -47.5q-20 -24 -34 -45.5t-22 -38.5q-11 -19 -16 -35zM185 117q9 2 18.5 6t19.5 11q12 8 21 16.5
t15 15.5q7 8 12 15t7 12.5t-1 7.5q-4 2 -8 0q-3 -1 -4 -3q-20 -17 -40 -38t-40 -43z" />
    <glyph glyph-name="ccedilla" unicode="&#xe7;" horiz-adv-x="154" 
d="M35 -48q-5 -17 -16 -28q-10 -10 -27 -16t-43 1h-1q-1 0 -1.5 0.5t-2.5 0.5q-5 2 -15 7t-15 16l-2 8q-1 2 -1 6q-1 3 -1 13l2 11q-1 0 1 1q-1 2 0 4l2 4h1q1 2 2 2t2 1q1 0 2 1q3 1 6 1q7 0 10 1l1 -2h-1q1 -1 0 -1q-2 -1 -4 -3l-1 -1l-2 -8v-4.5t-1 -5.5q1 -5 1.5 -11
t2.5 -11q0 -3 3 -10t14 -11q4 -3 10 -3q12 0 23 4q9 4 18 12t14 25l1 2l-1 2v1q-4 0 -9 4q-11 5 -16.5 8t-7.5 5q-3 2 -3 3l4 2q2 0 3 1l8 6q-19 3 -24 15t-4 19q0 19 10.5 42.5t24.5 44.5q16 25 36 49q40 47 69.5 66t46.5 21q13 2 18 -3q6 -5 8 -11.5t3 -12.5q0 -7 -1 -15
q-6 -20 -17 -36.5t-25 -28.5v-1q-2 -1 -6.5 -2.5t-7.5 1.5q-2 1 -3 4q-2 5 4 12q6 5 10.5 10t7.5 9q4 4 6 8q5 7 7 12.5t0 7.5q-2 1 -5 1q-2 -1 -3.5 -1t-2.5 -1q-2 -1 -2 -2q-20 -16 -40 -37.5t-39 -43.5l-23 -28q-18 -26 -30 -46q-2 -3 -4.5 -8.5t-4 -11.5t0.5 -10t9 -3
q16 2 39.5 15t46 30.5t41.5 34.5t28 27l1 1q1 0 1 1q2 2 6.5 5t9.5 0q1 -1 2 -3q2 -4 -4 -12q-21 -23 -46 -44.5t-49.5 -38t-46.5 -26.5t-37 -11l-4 -5q-4 -4 -4 -7q0 -2 1 -2t3 -1t3.5 -1.5t3.5 -1.5l18 -8h1l1 -1q2 0 5 -2.5t1 -7.5z" />
    <glyph glyph-name="egrave" unicode="&#xe8;" horiz-adv-x="157" 
d="M79 102q-8 -4 -18 -7.5t-21 -5.5q-14 -19 -24 -35.5t-15 -27.5v-1v-1q-1 -4 -0.5 -10t10.5 -4q17 2 39.5 15.5t44.5 31.5t41 35.5t28 27.5v1l1 1q3 2 7 5t8 0q2 -1 3 -3q2 -4 -4 -12q-22 -26 -47.5 -49.5t-51 -41t-48.5 -26t-39 -5.5q-20 3 -24.5 15t-5.5 19
q0 19 11 42.5t25 44.5q16 25 36 49q26 31 48 50t39 28t28.5 9.5t16.5 -3.5q6 -5 8.5 -11.5t3.5 -12.5q1 -7 -1 -15q-8 -29 -27 -49.5t-36 -33.5q-1 0 -10 -6t-25 -14h-1zM61 117q9 2 18.5 6t19.5 11q12 8 21 16.5t15 15.5q7 8 12 15t7 12.5t-1 7.5q-4 2 -8 0q-3 -1 -4 -3
q-20 -17 -40 -38t-40 -43zM152 342q0 -7 7.5 -14.5t18 -13.5t22.5 -9.5t21 -3.5q5 0 7 4t10 4q6 0 6 -2q-1 -2 -1.5 -3.5t-1.5 -3.5t-3 -3q-10 -14 -17 -19.5t-30 -5.5q-21 0 -34.5 4.5t-20.5 10.5t-9.5 12t-1.5 9q5 15 10.5 26.5t10.5 11.5q3 0 5 -2q1 -1 1 -2z" />
    <glyph glyph-name="eacute" unicode="&#xe9;" horiz-adv-x="157" 
d="M79 102q-8 -4 -18 -7.5t-21 -5.5q-14 -19 -24 -35.5t-15 -27.5v-1v-1q-1 -4 -0.5 -10t10.5 -4q17 2 39.5 15.5t44.5 31.5t41 35.5t28 27.5v1l1 1q3 2 7 5t8 0q2 -1 3 -3q2 -4 -4 -12q-22 -26 -47.5 -49.5t-51 -41t-48.5 -26t-39 -5.5q-20 3 -24.5 15t-5.5 19
q0 19 11 42.5t25 44.5q16 25 36 49q26 31 48 50t39 28t28.5 9.5t16.5 -3.5q6 -5 8.5 -11.5t3.5 -12.5q1 -7 -1 -15q-8 -29 -27 -49.5t-36 -33.5q-1 0 -10 -6t-25 -14h-1zM61 117q9 2 18.5 6t19.5 11q12 8 21 16.5t15 15.5q7 8 12 15t7 12.5t-1 7.5q-4 2 -8 0q-3 -1 -4 -3
q-20 -17 -40 -38t-40 -43zM221 344q2 2 6 2q5 0 5.5 -11.5t-0.5 -26.5q-1 -3 -6 -9t-14.5 -12t-25 -10.5t-36.5 -4.5q-23 0 -27 5.5t-8 19.5q0 1 -1 3q-2 4 -1 7q0 2 6 2q8 0 8 -4t5 -4q9 0 22.5 3.5t27 9.5t24 13.5t13.5 14.5z" />
    <glyph glyph-name="ecircumflex" unicode="&#xea;" horiz-adv-x="157" 
d="M79 102q-8 -4 -18 -7.5t-21 -5.5q-14 -19 -24 -35.5t-15 -27.5v-1v-1q-1 -4 -0.5 -10t10.5 -4q17 2 39.5 15.5t44.5 31.5t41 35.5t28 27.5v1l1 1q3 2 7 5t8 0q2 -1 3 -3q2 -4 -4 -12q-22 -26 -47.5 -49.5t-51 -41t-48.5 -26t-39 -5.5q-20 3 -24.5 15t-5.5 19
q0 19 11 42.5t25 44.5q16 25 36 49q26 31 48 50t39 28t28.5 9.5t16.5 -3.5q6 -5 8.5 -11.5t3.5 -12.5q1 -7 -1 -15q-8 -29 -27 -49.5t-36 -33.5q-1 0 -10 -6t-25 -14h-1zM61 117q9 2 18.5 6t19.5 11q12 8 21 16.5t15 15.5q7 8 12 15t7 12.5t-1 7.5q-4 2 -8 0q-3 -1 -4 -3
q-20 -17 -40 -38t-40 -43zM195 334q3 3 7 3q4 -2 4 -3v-2v-2q-2 -7 2 -16t11 -17t15 -14.5t15 -8.5q3 0 5 2t7 2q1 0 4 -1t3 -3q-5 -9 -17 -16t-18 -7q-23 0 -37.5 13t-18.5 21q-5 -2 -11 -3t-13 -1q-20 0 -31 4t-16 10.5t-5.5 15t1.5 17.5q2 4 3 4q7 0 8.5 -2.5l3 -5
t5.5 -5t15 -2.5q15 0 31 3.5t24 10.5l3 3v0z" />
    <glyph glyph-name="edieresis" unicode="&#xeb;" horiz-adv-x="157" 
d="M79 102q-8 -4 -18 -7.5t-21 -5.5q-14 -19 -24 -35.5t-15 -27.5v-1v-1q-1 -4 -0.5 -10t10.5 -4q17 2 39.5 15.5t44.5 31.5t41 35.5t28 27.5v1l1 1q3 2 7 5t8 0q2 -1 3 -3q2 -4 -4 -12q-22 -26 -47.5 -49.5t-51 -41t-48.5 -26t-39 -5.5q-20 3 -24.5 15t-5.5 19
q0 19 11 42.5t25 44.5q16 25 36 49q26 31 48 50t39 28t28.5 9.5t16.5 -3.5q6 -5 8.5 -11.5t3.5 -12.5q1 -7 -1 -15q-8 -29 -27 -49.5t-36 -33.5q-1 0 -10 -6t-25 -14h-1zM61 117q9 2 18.5 6t19.5 11q12 8 21 16.5t15 15.5q7 8 12 15t7 12.5t-1 7.5q-4 2 -8 0q-3 -1 -4 -3
q-20 -17 -40 -38t-40 -43zM138 314q5 8 18 8q10 0 22 -6t10 -19q-4 -9 -11.5 -12.5t-21.5 2.5q-8 2 -11.5 5.5l-5.5 5.5q-2 3 -2 5q1 2 1 4q0 5 1 7zM198 292q8 8 18 8t22 -6t9 -19q-2 -10 -10 -13.5t-22 3.5q-8 2 -12 5.5t-6 5.5q-3 3 -2 5q0 2 1 4t1 3.5t1 3.5z" />
    <glyph glyph-name="igrave" unicode="&#xec;" horiz-adv-x="91" 
d="M110 242q5 3 14 -1q2 -1 2 -1.5t2 -1.5q8 -6 13 -16.5t-2 -18.5l-6 -6t-11 -12q-25 -28 -48 -54q-20 -22 -39 -45t-28 -36q-2 -5 1.5 -8t19.5 11q10 8 24 20t26 23q14 12 29 25q2 2 6 4q7 3 12 1q5 -5 0.5 -10.5t-6.5 -7.5l-56 -50q-21 -19 -39.5 -35.5t-21.5 -19.5
q-5 -6 -13.5 -8.5t-15.5 1.5q-5 4 -11.5 13.5t-2.5 26.5q0 1 1.5 8t8 20.5t20 34.5t37.5 50q11 14 22 27.5t21 24.5q6 6 10.5 11.5t8.5 9.5t7 8l5 5q3 3 9 7h1zM148 342q0 -7 7.5 -14.5t18 -13.5t22.5 -9.5t21 -3.5q5 0 7 4t10 4q6 0 6 -2q-1 -2 -1.5 -3.5t-1.5 -3.5t-3 -3
q-10 -14 -17 -19.5t-30 -5.5q-21 0 -34.5 4.5t-20.5 10.5t-9.5 12t-1.5 9q5 15 10.5 26.5t10.5 11.5q3 0 5 -2q1 -1 1 -2z" />
    <glyph glyph-name="iacute" unicode="&#xed;" horiz-adv-x="91" 
d="M110 242q5 3 14 -1q2 -1 2 -1.5t2 -1.5q8 -6 13 -16.5t-2 -18.5l-6 -6t-11 -12q-25 -28 -48 -54q-20 -22 -39 -45t-28 -36q-2 -5 1.5 -8t19.5 11q10 8 24 20t26 23q14 12 29 25q2 2 6 4q7 3 12 1q5 -5 0.5 -10.5t-6.5 -7.5l-56 -50q-21 -19 -39.5 -35.5t-21.5 -19.5
q-5 -6 -13.5 -8.5t-15.5 1.5q-5 4 -11.5 13.5t-2.5 26.5q0 1 1.5 8t8 20.5t20 34.5t37.5 50q11 14 22 27.5t21 24.5q6 6 10.5 11.5t8.5 9.5t7 8l5 5q3 3 9 7h1zM227 344q2 2 6 2q5 0 5.5 -11.5t-0.5 -26.5q-1 -3 -6 -9t-14.5 -12t-25 -10.5t-36.5 -4.5q-23 0 -27 5.5
t-8 19.5q0 1 -1 3q-2 4 -1 7q0 2 6 2q8 0 8 -4t5 -4q9 0 22.5 3.5t27 9.5t24 13.5t13.5 14.5z" />
    <glyph glyph-name="icircumflex" unicode="&#xee;" horiz-adv-x="91" 
d="M110 242q5 3 14 -1q2 -1 2 -1.5t2 -1.5q8 -6 13 -16.5t-2 -18.5l-6 -6t-11 -12q-25 -28 -48 -54q-20 -22 -39 -45t-28 -36q-2 -5 1.5 -8t19.5 11q10 8 24 20t26 23q14 12 29 25q2 2 6 4q7 3 12 1q5 -5 0.5 -10.5t-6.5 -7.5l-56 -50q-21 -19 -39.5 -35.5t-21.5 -19.5
q-5 -6 -13.5 -8.5t-15.5 1.5q-5 4 -11.5 13.5t-2.5 26.5q0 1 1.5 8t8 20.5t20 34.5t37.5 50q11 14 22 27.5t21 24.5q6 6 10.5 11.5t8.5 9.5t7 8l5 5q3 3 9 7h1zM183 334q3 3 7 3q4 -2 4 -3v-2v-2q-2 -7 2 -16t11 -17t15 -14.5t15 -8.5q3 0 5 2t7 2q1 0 4 -1t3 -3
q-5 -9 -17 -16t-18 -7q-23 0 -37.5 13t-18.5 21q-5 -2 -11 -3t-13 -1q-20 0 -31 4t-16 10.5t-5.5 15t1.5 17.5q2 4 3 4q7 0 8.5 -2.5l3 -5t5.5 -5t15 -2.5q15 0 31 3.5t24 10.5z" />
    <glyph glyph-name="idieresis" unicode="&#xef;" horiz-adv-x="91" 
d="M110 242q5 3 14 -1q2 -1 2 -1.5t2 -1.5q8 -6 13 -16.5t-2 -18.5l-6 -6t-11 -12q-25 -28 -48 -54q-20 -22 -39 -45t-28 -36q-2 -5 1.5 -8t19.5 11q10 8 24 20t26 23q14 12 29 25q2 2 6 4q7 3 12 1q5 -5 0.5 -10.5t-6.5 -7.5l-56 -50q-21 -19 -39.5 -35.5t-21.5 -19.5
q-5 -6 -13.5 -8.5t-15.5 1.5q-5 4 -11.5 13.5t-2.5 26.5q0 1 1.5 8t8 20.5t20 34.5t37.5 50q11 14 22 27.5t21 24.5q6 6 10.5 11.5t8.5 9.5t7 8l5 5q3 3 9 7h1zM119 314q5 8 18 8q10 0 22 -6t10 -19q-4 -9 -11.5 -12.5t-21.5 2.5q-8 2 -11.5 5.5l-5.5 5.5q-2 3 -2 5q1 2 1 4
q0 5 1 7zM179 292q8 8 18 8t22 -6t9 -19q-2 -10 -10 -13.5t-22 3.5q-8 2 -12 5.5t-6 5.5q-3 3 -2 5q0 2 1 4t1 3.5t1 3.5z" />
    <glyph glyph-name="ntilde" unicode="&#xf1;" horiz-adv-x="203" 
d="M120 7q-14 -11 -20 -11t-11 4q-6 4 -12 13.5t-3 26.5q0 1 2 10.5t13 29.5t33.5 50t62.5 71l1 1q1 1 1 3q-1 0 -1 0.5t-2 -0.5q-1 0 -15.5 -8.5t-35.5 -22.5t-44 -32t-41 -37q-19 -24 -32.5 -41.5t-20.5 -28.5q-2 -4 -4.5 -7t-4.5 -7l-1 -1l-4 -6l-4 -6q-1 -2 -2 -5
q-2 -6 1 -9q1 0 1 -1t-2 -3q0 -1 -1 -1h-4q-4 3 -9 7t-8 7q-2 0 -2 0.5t-1 0.5t-1 1q-2 1 -3 4q-1 2 -1.5 4.5t1.5 7.5v2q1 2 1 3.5t2 3.5q0 2 1 2.5t1 1.5q14 26 32 54t37 56q17 23 29.5 40.5t14.5 21.5v1q7 7 13 16q2 2 3 6q2 8 0 12q-1 1 -1 2q0 3 2 4q0 2 2 2q3 0 5 -1
q3 -4 7.5 -8t9.5 -8t10 -9l2 -4q2 -6 2 -11t-2 -8q0 -2 -1 -3q-3 -10 -13 -21q24 17 58.5 38t64.5 32q5 3 14 -1q1 -1 2 -1.5t2 -1.5q8 -6 13 -16.5t-3 -18.5q-2 -2 -5.5 -6l-10.5 -12q-26 -28 -49 -54q-20 -22 -38.5 -45t-27.5 -36q-3 -5 2 -9t19 12q10 11 21 22l21 21
q11 11 23 22q2 2 6 4q6 4 11 1q5 -5 0.5 -10.5t-6.5 -7.5q-26 -26 -47 -48q-18 -19 -34 -35.5t-19 -18.5zM282 295q10 -5 11 -15.5t-2 -21.5q-5 -27 -9.5 -30t-6.5 -3q-1 0 -1 3q0 2 1 4q2 4 2 7q2 8 -7 18t-32 18q-2 1 -12 1.5t-20.5 5t-17.5 15t-3 30.5q3 15 8 26
q3 6 5 11q2 4 4 4t1 -3q-2 -6 -2 -7t-1 -5q-2 -7 0.5 -14.5t16.5 -13.5l28.5 -13.5t15.5 -7t10 -4t11 -5.5z" />
    <glyph glyph-name="ograve" unicode="&#xf2;" horiz-adv-x="159" 
d="M-7 -2q-15 6 -22.5 18t-5 31t16.5 45t41 60q29 35 50 54t35 27q16 10 26 9q7 -1 14 -3q6 -2 11.5 -4.5t10.5 -4.5q8 -5 8.5 -13t0.5 -11q0 -2 -1 -4t-4 -3q-4 0 -4 2q-1 1 0 2q0 5 -4 7q-2 1 -3 1q-5 1 -12 -3t-15 -11q10 4 19 3.5t12 -2.5l5 -5t4.5 -8.5t-0.5 -14.5
t-10 -23q7 1 16 3.5t16.5 3.5t10.5 -1t-3 -10q-4 -6 -10.5 -8.5t-13.5 -3.5t-14 -1.5t-13 -2.5q-11 -20 -39 -52q-41 -48 -68.5 -63t-38.5 -16q-5 -1 -9.5 0t-6.5 2zM131 168q-5 -5 -4.5 -9.5t2.5 -6.5q3 -4 7 -5h5q13 23 7 27q-5 3 -11 -1q-4 -2 -6 -5zM79 138
q-22 -26 -35.5 -45t-20.5 -32.5t-9.5 -21t-2.5 -11.5t3 -5q9 -1 23 8t30 24t31.5 33t27.5 35q-13 2 -19.5 10.5t-3.5 23.5q1 5 5 13q-7 -6 -12 -11.5t-9 -10.5zM168 342q0 -7 7.5 -14.5t18 -13.5t22.5 -9.5t21 -3.5q5 0 7 4t10 4q6 0 6 -2q-1 -2 -1.5 -3.5t-1.5 -3.5t-3 -3
q-10 -14 -17 -19.5t-30 -5.5q-21 0 -34.5 4.5t-20.5 10.5t-9.5 12t-1.5 9q5 15 10.5 26.5t10.5 11.5q3 0 5 -2q1 -1 1 -2z" />
    <glyph glyph-name="oacute" unicode="&#xf3;" horiz-adv-x="159" 
d="M-7 -2q-15 6 -22.5 18t-5 31t16.5 45t41 60q29 35 50 54t35 27q16 10 26 9q7 -1 14 -3q6 -2 11.5 -4.5t10.5 -4.5q8 -5 8.5 -13t0.5 -11q0 -2 -1 -4t-4 -3q-4 0 -4 2q-1 1 0 2q0 5 -4 7q-2 1 -3 1q-5 1 -12 -3t-15 -11q10 4 19 3.5t12 -2.5l5 -5t4.5 -8.5t-0.5 -14.5
t-10 -23q7 1 16 3.5t16.5 3.5t10.5 -1t-3 -10q-4 -6 -10.5 -8.5t-13.5 -3.5t-14 -1.5t-13 -2.5q-11 -20 -39 -52q-41 -48 -68.5 -63t-38.5 -16q-5 -1 -9.5 0t-6.5 2zM131 168q-5 -5 -4.5 -9.5t2.5 -6.5q3 -4 7 -5h5q13 23 7 27q-5 3 -11 -1q-4 -2 -6 -5zM79 138
q-22 -26 -35.5 -45t-20.5 -32.5t-9.5 -21t-2.5 -11.5t3 -5q9 -1 23 8t30 24t31.5 33t27.5 35q-13 2 -19.5 10.5t-3.5 23.5q1 5 5 13q-7 -6 -12 -11.5t-9 -10.5zM228 344q2 2 6 2q5 0 5.5 -11.5t-0.5 -26.5q-1 -3 -6 -9t-14.5 -12t-25 -10.5t-36.5 -4.5q-23 0 -27 5.5
t-8 19.5q0 1 -1 3q-2 4 -1 7q0 2 6 2q8 0 8 -4t5 -4q9 0 22.5 3.5t27 9.5t24 13.5t13.5 14.5z" />
    <glyph glyph-name="ocircumflex" unicode="&#xf4;" horiz-adv-x="159" 
d="M-7 -2q-15 6 -22.5 18t-5 31t16.5 45t41 60q29 35 50 54t35 27q16 10 26 9q7 -1 14 -3q6 -2 11.5 -4.5t10.5 -4.5q8 -5 8.5 -13t0.5 -11q0 -2 -1 -4t-4 -3q-4 0 -4 2q-1 1 0 2q0 5 -4 7q-2 1 -3 1q-5 1 -12 -3t-15 -11q10 4 19 3.5t12 -2.5l5 -5t4.5 -8.5t-0.5 -14.5
t-10 -23q7 1 16 3.5t16.5 3.5t10.5 -1t-3 -10q-4 -6 -10.5 -8.5t-13.5 -3.5t-14 -1.5t-13 -2.5q-11 -20 -39 -52q-41 -48 -68.5 -63t-38.5 -16q-5 -1 -9.5 0t-6.5 2zM131 168q-5 -5 -4.5 -9.5t2.5 -6.5q3 -4 7 -5h5q13 23 7 27q-5 3 -11 -1q-4 -2 -6 -5zM79 138
q-22 -26 -35.5 -45t-20.5 -32.5t-9.5 -21t-2.5 -11.5t3 -5q9 -1 23 8t30 24t31.5 33t27.5 35q-13 2 -19.5 10.5t-3.5 23.5q1 5 5 13q-7 -6 -12 -11.5t-9 -10.5zM204 334q3 3 7 3q4 -2 4 -3v-2v-2q-2 -7 2 -16t11 -17t15 -14.5t15 -8.5q3 0 5 2t7 2q1 0 4 -1t3 -3
q-5 -9 -17 -16t-18 -7q-23 0 -37.5 13t-18.5 21q-5 -2 -11 -3t-13 -1q-20 0 -31 4t-16 10.5t-5.5 15t1.5 17.5q2 4 3 4q7 0 8.5 -2.5l3 -5t5.5 -5t15 -2.5q15 0 31 3.5t24 10.5l3 3v0z" />
    <glyph glyph-name="otilde" unicode="&#xf5;" horiz-adv-x="159" 
d="M-7 -2q-15 6 -22.5 18t-5 31t16.5 45t41 60q29 35 50 54t35 27q16 10 26 9q7 -1 14 -3q6 -2 11.5 -4.5t10.5 -4.5q8 -5 8.5 -13t0.5 -11q0 -2 -1 -4t-4 -3q-4 0 -4 2q-1 1 0 2q0 5 -4 7q-2 1 -3 1q-5 1 -12 -3t-15 -11q10 4 19 3.5t12 -2.5l5 -5t4.5 -8.5t-0.5 -14.5
t-10 -23q7 1 16 3.5t16.5 3.5t10.5 -1t-3 -10q-4 -6 -10.5 -8.5t-13.5 -3.5t-14 -1.5t-13 -2.5q-11 -20 -39 -52q-41 -48 -68.5 -63t-38.5 -16q-5 -1 -9.5 0t-6.5 2zM131 168q-5 -5 -4.5 -9.5t2.5 -6.5q3 -4 7 -5h5q13 23 7 27q-5 3 -11 -1q-4 -2 -6 -5zM79 138
q-22 -26 -35.5 -45t-20.5 -32.5t-9.5 -21t-2.5 -11.5t3 -5q9 -1 23 8t30 24t31.5 33t27.5 35q-13 2 -19.5 10.5t-3.5 23.5q1 5 5 13q-7 -6 -12 -11.5t-9 -10.5zM227 295q10 -5 11 -15.5t-2 -21.5q-5 -27 -9.5 -30t-6.5 -3q-1 0 -1 3q0 2 1 4q2 4 2 7q2 8 -7 18t-32 18
q-2 1 -12 1.5t-20.5 5t-17.5 15t-3 30.5q3 15 8 26q3 6 5 11q2 4 4 4t1 -3q-2 -6 -2 -7t-1 -5q-2 -7 0.5 -14.5t16.5 -13.5l28.5 -13.5t15.5 -7t10 -4t11 -5.5z" />
    <glyph glyph-name="odieresis" unicode="&#xf6;" horiz-adv-x="159" 
d="M-7 -2q-15 6 -22.5 18t-5 31t16.5 45t41 60q29 35 50 54t35 27q16 10 26 9q7 -1 14 -3q6 -2 11.5 -4.5t10.5 -4.5q8 -5 8.5 -13t0.5 -11q0 -2 -1 -4t-4 -3q-4 0 -4 2q-1 1 0 2q0 5 -4 7q-2 1 -3 1q-5 1 -12 -3t-15 -11q10 4 19 3.5t12 -2.5l5 -5t4.5 -8.5t-0.5 -14.5
t-10 -23q7 1 16 3.5t16.5 3.5t10.5 -1t-3 -10q-4 -6 -10.5 -8.5t-13.5 -3.5t-14 -1.5t-13 -2.5q-11 -20 -39 -52q-41 -48 -68.5 -63t-38.5 -16q-5 -1 -9.5 0t-6.5 2zM131 168q-5 -5 -4.5 -9.5t2.5 -6.5q3 -4 7 -5h5q13 23 7 27q-5 3 -11 -1q-4 -2 -6 -5zM79 138
q-22 -26 -35.5 -45t-20.5 -32.5t-9.5 -21t-2.5 -11.5t3 -5q9 -1 23 8t30 24t31.5 33t27.5 35q-13 2 -19.5 10.5t-3.5 23.5q1 5 5 13q-7 -6 -12 -11.5t-9 -10.5zM129 314q5 8 18 8q10 0 22 -6t10 -19q-4 -9 -11.5 -12.5t-21.5 2.5q-8 2 -11.5 5.5l-5.5 5.5q-2 3 -2 5q1 2 1 4
q0 5 1 7zM189 292q8 8 18 8t22 -6t9 -19q-2 -10 -10 -13.5t-22 3.5q-8 2 -12 5.5t-6 5.5q-3 3 -2 5q0 2 1 4t1 3.5t1 3.5z" />
    <glyph glyph-name="divide" unicode="&#xf7;" horiz-adv-x="370" 
d="M116 51q6 1 12 6t10.5 11.5t8.5 13.5t6 11v2q2 2 2 4v1q1 1 1.5 2t1.5 2l10 1.5t20 -1t15.5 -10.5t-3.5 -26l-7 -14q-5 -7 -10.5 -11t-9.5 -6q-1 -1 -2 -1h-6q-7 0 -22.5 1t-18.5 2q-5 1 -9 2t-3 6q0 1 2 3q1 0 2 1zM225 217q6 1 11.5 6t10.5 11.5t8.5 13.5t6.5 11l-1 2
q2 2 2 4v1q3 3 3 4l10 1.5t20 -1t15.5 -10.5t-3.5 -26l-7 -14q-5 -7 -10.5 -11t-8.5 -6q-1 -1 -3 -1h-6q-7 0 -22.5 1t-18.5 2q-5 1 -9 2t-2 6q0 1 2 3q1 0 2 1zM345 133q-13 -4 -27.5 -5.5t-28.5 -1.5q-38 0 -76 4.5t-83 4.5q-15 0 -29 -2q-12 -2 -24 -5t-19 -9l-2 -2
q-1 -1 -5 -1q-3 1 -3 4q0 1 5.5 7.5t12.5 14l14 15t10 12.5l10 10q-1 -1 9.5 1t33.5 2q20 0 55 -4t73 -4q13 0 28.5 1t31.5 4t29.5 8.5t21.5 14.5l1 1q2 2 5 2q5 0 3 -4q0 2 -3.5 -4.5t-8.5 -16t-11 -19t-10 -12.5q-2 -3 -4.5 -6t-4.5 -5q-3 -3 -4 -5z" />
    <glyph glyph-name="oslash" unicode="&#xf8;" horiz-adv-x="159" 
d="M200 253l-8.5 -17t-10.5 -18l-3 -3q1 -3 0.5 -5.5t0.5 -3.5q0 -2 -1 -4t-4 -3q-5 0 -5 3l-2 -4l5 -5t4.5 -8.5t-0.5 -14.5t-10 -23q7 1 16 3.5t16.5 3.5t10.5 -1t-3 -10q-4 -6 -10.5 -8.5t-13.5 -3.5t-14 -1.5t-13 -2.5q-11 -20 -39 -52q-32 -38 -56 -54.5t-39 -21.5
l-10 -14q-6 -9 -10 -18q-4 -8 -7.5 -15.5t-2.5 -12.5v-1q0 -2 -1 -3q-2 -2 -4 -2q-2 1 -5 12t-6 16l-3 7q0 -1 3 6t14 21l3 4q-29 11 -26 48.5t57 104.5q29 35 50 54t35 27q16 10 26 9l8 -2l8 -2t9 -3q8 13 12 24.5t1 18.5q-1 0 -1 1q0 2 1 3l4 2q0 -1 2.5 -3.5t6.5 -6t7 -7
t4 -5.5q0 -2 2 -6q1 -2 2 -3zM79 138q-22 -26 -35.5 -45t-20.5 -32.5t-9.5 -21t-2.5 -11.5v-1l91 125l1 5q1 5 5 13q-7 -6 -12 -11.5t-9 -10.5zM50 40q19 15 39 38t37 45q-8 2 -13 4zM130 150q2 -2 4 -2q1 -1 2 -1h5q13 23 7 27z" />
    <glyph glyph-name="ugrave" unicode="&#xf9;" horiz-adv-x="197" 
d="M232 126q5 -4 0.5 -10t-6.5 -8q-25 -26 -45 -47q-17 -18 -32.5 -34t-18.5 -19t-9 -6t-12.5 -4.5t-13 -2t-9.5 1.5q-5 4 -11 13.5t-4 26.5q1 1 2 7t8 19q-18 -16 -37 -32.5t-30 -24.5q-21 -14 -27 -11.5t-9 13.5q-1 5 0 17t7 31t19.5 45.5t36.5 60.5q1 1 1 1.5t2 1.5
q10 15 17.5 25.5t9.5 12.5v1l6 8l6 8q2 2 3 6q2 8 0 12q-3 3 1 7q1 0 1.5 0.5t1.5 0.5q3 0 5 -1q3 -4 7.5 -8t8.5 -8t10 -9q1 -1 2 -3q2 -4 2 -11v-1q0 -2 -2 -8v-2q-3 -10 -14 -22q-3 -5 -7 -10t-8.5 -10.5t-9.5 -11.5q-19 -23 -32.5 -44t-23.5 -37q-11 -18 -20 -34
q5 1 21.5 16t37.5 35.5t43 43.5t39 41q9 11 18 21.5t17 19.5q5 6 9.5 11t8.5 9l8 8q1 2 4 5q2 2 4 3.5t4 3.5q1 0 2 1q9 2 14 -2q1 -1 2 -1t3 -1q8 -7 12 -17.5t-3 -17.5q-2 -2 -6 -6.5t-10 -11.5q-26 -29 -48 -55q-20 -23 -38.5 -45t-27.5 -35q-3 -6 7.5 -7.5t24.5 13.5
q10 11 20.5 22t19.5 20l21 21q3 3 7 5q7 3 10 0zM167 342q0 -7 7.5 -14.5t18 -13.5t22.5 -9.5t21 -3.5q5 0 7 4t10 4q6 0 6 -2q-1 -2 -1.5 -3.5t-1.5 -3.5t-3 -3q-10 -14 -17 -19.5t-30 -5.5q-21 0 -34.5 4.5t-20.5 10.5t-9.5 12t-1.5 9q5 15 10.5 26.5t10.5 11.5q3 0 5 -2
q1 -1 1 -2z" />
    <glyph glyph-name="uacute" unicode="&#xfa;" horiz-adv-x="197" 
d="M232 126q5 -4 0.5 -10t-6.5 -8q-25 -26 -45 -47q-17 -18 -32.5 -34t-18.5 -19t-9 -6t-12.5 -4.5t-13 -2t-9.5 1.5q-5 4 -11 13.5t-4 26.5q1 1 2 7t8 19q-18 -16 -37 -32.5t-30 -24.5q-21 -14 -27 -11.5t-9 13.5q-1 5 0 17t7 31t19.5 45.5t36.5 60.5q1 1 1 1.5t2 1.5
q10 15 17.5 25.5t9.5 12.5v1l6 8l6 8q2 2 3 6q2 8 0 12q-3 3 1 7q1 0 1.5 0.5t1.5 0.5q3 0 5 -1q3 -4 7.5 -8t8.5 -8t10 -9q1 -1 2 -3q2 -4 2 -11v-1q0 -2 -2 -8v-2q-3 -10 -14 -22q-3 -5 -7 -10t-8.5 -10.5t-9.5 -11.5q-19 -23 -32.5 -44t-23.5 -37q-11 -18 -20 -34
q5 1 21.5 16t37.5 35.5t43 43.5t39 41q9 11 18 21.5t17 19.5q5 6 9.5 11t8.5 9l8 8q1 2 4 5q2 2 4 3.5t4 3.5q1 0 2 1q9 2 14 -2q1 -1 2 -1t3 -1q8 -7 12 -17.5t-3 -17.5q-2 -2 -6 -6.5t-10 -11.5q-26 -29 -48 -55q-20 -23 -38.5 -45t-27.5 -35q-3 -6 7.5 -7.5t24.5 13.5
q10 11 20.5 22t19.5 20l21 21q3 3 7 5q7 3 10 0zM242 344q2 2 6 2q5 0 5.5 -11.5t-0.5 -26.5q-1 -3 -6 -9t-14.5 -12t-25 -10.5t-36.5 -4.5q-23 0 -27 5.5t-8 19.5q0 1 -1 3q-2 4 -1 7q0 2 6 2q8 0 8 -4t5 -4q9 0 22.5 3.5t27 9.5t24 13.5t13.5 14.5z" />
    <glyph glyph-name="ucircumflex" unicode="&#xfb;" horiz-adv-x="197" 
d="M232 126q5 -4 0.5 -10t-6.5 -8q-25 -26 -45 -47q-17 -18 -32.5 -34t-18.5 -19t-9 -6t-12.5 -4.5t-13 -2t-9.5 1.5q-5 4 -11 13.5t-4 26.5q1 1 2 7t8 19q-18 -16 -37 -32.5t-30 -24.5q-21 -14 -27 -11.5t-9 13.5q-1 5 0 17t7 31t19.5 45.5t36.5 60.5q1 1 1 1.5t2 1.5
q10 15 17.5 25.5t9.5 12.5v1l6 8l6 8q2 2 3 6q2 8 0 12q-3 3 1 7q1 0 1.5 0.5t1.5 0.5q3 0 5 -1q3 -4 7.5 -8t8.5 -8t10 -9q1 -1 2 -3q2 -4 2 -11v-1q0 -2 -2 -8v-2q-3 -10 -14 -22q-3 -5 -7 -10t-8.5 -10.5t-9.5 -11.5q-19 -23 -32.5 -44t-23.5 -37q-11 -18 -20 -34
q5 1 21.5 16t37.5 35.5t43 43.5t39 41q9 11 18 21.5t17 19.5q5 6 9.5 11t8.5 9l8 8q1 2 4 5q2 2 4 3.5t4 3.5q1 0 2 1q9 2 14 -2q1 -1 2 -1t3 -1q8 -7 12 -17.5t-3 -17.5q-2 -2 -6 -6.5t-10 -11.5q-26 -29 -48 -55q-20 -23 -38.5 -45t-27.5 -35q-3 -6 7.5 -7.5t24.5 13.5
q10 11 20.5 22t19.5 20l21 21q3 3 7 5q7 3 10 0zM213 334q3 3 7 3q4 -2 4 -3v-2v-2q-2 -7 2 -16t11 -17t15 -14.5t15 -8.5q3 0 5 2t7 2q1 0 4 -1t3 -3q-5 -9 -17 -16t-18 -7q-23 0 -37.5 13t-18.5 21q-5 -2 -11 -3t-13 -1q-20 0 -31 4t-16 10.5t-5.5 15t1.5 17.5q2 4 3 4
q7 0 8.5 -2.5l3 -5t5.5 -5t15 -2.5q15 0 31 3.5t24 10.5l3 3v0z" />
    <glyph glyph-name="udieresis" unicode="&#xfc;" horiz-adv-x="197" 
d="M232 126q5 -4 0.5 -10t-6.5 -8q-25 -26 -45 -47q-17 -18 -32.5 -34t-18.5 -19t-9 -6t-12.5 -4.5t-13 -2t-9.5 1.5q-5 4 -11 13.5t-4 26.5q1 1 2 7t8 19q-18 -16 -37 -32.5t-30 -24.5q-21 -14 -27 -11.5t-9 13.5q-1 5 0 17t7 31t19.5 45.5t36.5 60.5q1 1 1 1.5t2 1.5
q10 15 17.5 25.5t9.5 12.5v1l6 8l6 8q2 2 3 6q2 8 0 12q-3 3 1 7q1 0 1.5 0.5t1.5 0.5q3 0 5 -1q3 -4 7.5 -8t8.5 -8t10 -9q1 -1 2 -3q2 -4 2 -11v-1q0 -2 -2 -8v-2q-3 -10 -14 -22q-3 -5 -7 -10t-8.5 -10.5t-9.5 -11.5q-19 -23 -32.5 -44t-23.5 -37q-11 -18 -20 -34
q5 1 21.5 16t37.5 35.5t43 43.5t39 41q9 11 18 21.5t17 19.5q5 6 9.5 11t8.5 9l8 8q1 2 4 5q2 2 4 3.5t4 3.5q1 0 2 1q9 2 14 -2q1 -1 2 -1t3 -1q8 -7 12 -17.5t-3 -17.5q-2 -2 -6 -6.5t-10 -11.5q-26 -29 -48 -55q-20 -23 -38.5 -45t-27.5 -35q-3 -6 7.5 -7.5t24.5 13.5
q10 11 20.5 22t19.5 20l21 21q3 3 7 5q7 3 10 0zM150 314q5 8 18 8q10 0 22 -6t10 -19q-4 -9 -11.5 -12.5t-21.5 2.5q-8 2 -11.5 5.5l-5.5 5.5q-2 3 -2 5q1 2 1 4q0 5 1 7zM210 292q8 8 18 8t22 -6t9 -19q-2 -10 -10 -13.5t-22 3.5q-8 2 -12 5.5t-6 5.5q-3 3 -2 5q0 2 1 4
t1 3.5t1 3.5z" />
    <glyph glyph-name="yacute" unicode="&#xfd;" horiz-adv-x="209" 
d="M244 241q8 -6 12.5 -16.5t-2.5 -18.5q-2 -2 -5.5 -6t-11.5 -12q-26 -28 -48 -54q-20 -22 -38.5 -45t-27.5 -36q-2 -3 0.5 -5.5t7.5 -3t11.5 2t13.5 10.5q10 11 21 22l20 20l21 21q1 2 4 4q5 3 10 1q5 -5 0.5 -10.5t-6.5 -7.5q-26 -26 -46 -47q-17 -18 -32.5 -34
t-18.5 -19q-6 -6 -20.5 -9t-20.5 1q-2 2 -4.5 3.5t-4.5 4.5q-6 -7 -11 -13l-10 -12q11 -2 21 -3t18 -3q16 -3 24 -7t12 -8t5 -9v-15q0 -6 -0.5 -11t-0.5 -6q0 -8 -4 -7q-3 0 -3 1v1q-1 5 -4.5 9.5t-8.5 8.5t-13 7q-17 7 -33.5 11.5t-32.5 7.5q-12 -14 -20 -23t-12 -14
q-2 -2 -4 -5t-3 -5q-4 -4 -6.5 -7t-5.5 -5q-6 -7 -11 -11t-9 -6l-3 -2q-6 -2 -8 -3q-6 -2 -9.5 -1t-5.5 2h-1q-6 3 -11 7q-5 3 -10 6.5t-10 6.5h-1l-3 2q-4 3 -4 9v6q0 10 6 18q3 4 7 6q19 11 40 25.5t30 19.5q1 0 3 1t6 1h8q7 7 14 14.5t15 15.5q4 3 10 10q-15 -13 -25 -19
q-21 -14 -26.5 -11.5t-8.5 13.5q-1 5 -1.5 17t4.5 31t17 45.5t36 60.5q2 2 2 3q11 14 18 24.5l9 13.5v1q7 7 13 16q2 2 3 6q2 8 0 12q-1 1 -1 2q0 3 2 4l2 2q3 0 5 -1q3 -4 7.5 -8t9.5 -8t10 -9l2 -4q2 -6 2 -11q0 -2 -0.5 -4t-0.5 -4q0 -1 -1 -1.5t-1 -1.5q-3 -9 -12 -21
l-8 -10t-8 -10.5t-9 -11.5q-19 -23 -32.5 -44t-21.5 -37q-10 -18 -16 -34q5 1 21.5 15.5t37.5 35.5t43 44t39 41q8 11 17.5 21t17.5 19q5 6 9.5 11.5t8.5 9.5l8 8l5 5q5 5 8 7h1q6 2 13 -1q4 -2 5 -3zM-41 -59q3 3 6 6.5t8 8.5l-50 -32q-1 -1 -3.5 -4t0.5 -7q1 -1 2 -1
q2 -1 5 -1t8 5q7 7 12.5 13t11.5 12zM237 344q2 2 6 2q5 0 5.5 -11.5t-0.5 -26.5q-1 -3 -6 -9t-14.5 -12t-25 -10.5t-36.5 -4.5q-23 0 -27 5.5t-8 19.5q0 1 -1 3q-2 4 -1 7q0 2 6 2q8 0 8 -4t5 -4q9 0 22.5 3.5t27 9.5t24 13.5t13.5 14.5z" />
    <glyph glyph-name="ydieresis" unicode="&#xff;" horiz-adv-x="209" 
d="M244 241q8 -6 12.5 -16.5t-2.5 -18.5q-2 -2 -5.5 -6t-11.5 -12q-26 -28 -48 -54q-20 -22 -38.5 -45t-27.5 -36q-2 -3 0.5 -5.5t7.5 -3t11.5 2t13.5 10.5q10 11 21 22l20 20l21 21q1 2 4 4q5 3 10 1q5 -5 0.5 -10.5t-6.5 -7.5q-26 -26 -46 -47q-17 -18 -32.5 -34
t-18.5 -19q-6 -6 -20.5 -9t-20.5 1q-2 2 -4.5 3.5t-4.5 4.5q-6 -7 -11 -13l-10 -12q11 -2 21 -3t18 -3q16 -3 24 -7t12 -8t5 -9v-15q0 -6 -0.5 -11t-0.5 -6q0 -8 -4 -7q-3 0 -3 1v1q-1 5 -4.5 9.5t-8.5 8.5t-13 7q-17 7 -33.5 11.5t-32.5 7.5q-12 -14 -20 -23t-12 -14
q-2 -2 -4 -5t-3 -5q-4 -4 -6.5 -7t-5.5 -5q-6 -7 -11 -11t-9 -6l-3 -2q-6 -2 -8 -3q-6 -2 -9.5 -1t-5.5 2h-1q-6 3 -11 7q-5 3 -10 6.5t-10 6.5h-1l-3 2q-4 3 -4 9v6q0 10 6 18q3 4 7 6q19 11 40 25.5t30 19.5q1 0 3 1t6 1h8q7 7 14 14.5t15 15.5q4 3 10 10q-15 -13 -25 -19
q-21 -14 -26.5 -11.5t-8.5 13.5q-1 5 -1.5 17t4.5 31t17 45.5t36 60.5q2 2 2 3q11 14 18 24.5l9 13.5v1q7 7 13 16q2 2 3 6q2 8 0 12q-1 1 -1 2q0 3 2 4l2 2q3 0 5 -1q3 -4 7.5 -8t9.5 -8t10 -9l2 -4q2 -6 2 -11q0 -2 -0.5 -4t-0.5 -4q0 -1 -1 -1.5t-1 -1.5q-3 -9 -12 -21
l-8 -10t-8 -10.5t-9 -11.5q-19 -23 -32.5 -44t-21.5 -37q-10 -18 -16 -34q5 1 21.5 15.5t37.5 35.5t43 44t39 41q8 11 17.5 21t17.5 19q5 6 9.5 11.5t8.5 9.5l8 8l5 5q5 5 8 7h1q6 2 13 -1q4 -2 5 -3zM-41 -59q3 3 6 6.5t8 8.5l-50 -32q-1 -1 -3.5 -4t0.5 -7q1 -1 2 -1
q2 -1 5 -1t8 5q7 7 12.5 13t11.5 12zM144 314q5 8 18 8q10 0 22 -6t10 -19q-4 -9 -11.5 -12.5t-21.5 2.5q-8 2 -11.5 5.5l-5.5 5.5q-2 3 -2 5q1 2 1 4q0 5 1 7zM204 292q8 8 18 8t22 -6t9 -19q-2 -10 -10 -13.5t-22 3.5q-8 2 -12 5.5t-6 5.5q-3 3 -2 5q0 2 1 4t1 3.5t1 3.5z
" />
    <glyph glyph-name="Lslash" unicode="&#x141;" horiz-adv-x="466" 
d="M296 28q-24 -7 -55 -7h-26t-26 2q-29 -26 -59.5 -49t-61.5 -38q57 6 104 8t89 1q27 -1 41.5 -5t22.5 -9q9 -6 11 -14q1 -13 3 -24q2 -10 3 -18.5t1 -10.5q-1 -4 -1.5 -8t-5.5 -4q-4 0 -4 2q-1 1 0 2q-2 8 -10.5 14t-17.5 10q-11 4 -23 8q-42 10 -82.5 13t-76.5 2
t-64.5 -4t-44.5 -6t-46 -9.5t-66 -14.5t-75 -16.5t-72 -14.5t-47 4.5t-17 26.5q-4 18 3 43q1 3 1.5 5.5t5.5 3.5q3 0 5 -4v-4q-1 -5 1 -10t11 -8t25.5 -3.5t44.5 4.5q45 8 84 14t75 11q-15 5 -28 13q-4 2 -2 5q0 2 2 3q3 3 5.5 3h4.5v-1h1q6 -2 16 -3.5t24 0t31.5 7
t38.5 18.5q17 10 37.5 25.5t44.5 37.5q-10 0 -19.5 0.5t-19.5 0.5q-15 0 -29 -2q-12 -2 -24.5 -5t-19.5 -9l-2 -2q-1 -1 -4 -1q-3 1 -3 4q0 1 5.5 7.5t12.5 14l14 15t10 12.5l9 10q0 -1 10.5 1t33.5 2q12 0 30 -2t41 -4q15 14 29.5 29t30.5 31h-1q-44 21 -70 49.5t-40 55
t-18 46t-5 23.5q-2 8 0 14l1 2q1 6 3 10t4 7l5 5q4 2 16.5 9.5t20.5 12.5q5 2 5 1q1 0 2 -1q1 -2 0 -4t-1 -3q-5 -4 -6 -8.5t-1 -6.5v-2l2 -31q3 -15 9 -34.5t17.5 -41t30.5 -43t47 -39.5q38 39 76 80.5t74 81.5q48 52 81 83.5t54.5 47t34.5 18.5t22 0q9 -4 18.5 -10.5
t16 -18t7.5 -27.5t-8 -38q-5 -12 -21 -36.5t-40 -53t-55.5 -58.5t-67.5 -53.5t-75.5 -37.5t-80.5 -11q-11 -12 -22.5 -24.5t-24.5 -25.5q12 0 26 1.5t27.5 4.5t25 8.5t19.5 13.5l1 1q2 2 5 2t3 -4q0 2 -3.5 -4.5t-8.5 -16t-11 -19t-10 -12.5q-6 -8 -9 -11zM315 153
q21 7 46.5 21t55.5 37q54 42 90.5 80t57.5 69t28 51.5t2 26.5q-4 4 -19.5 -8.5t-38.5 -35.5t-51 -53.5t-56.5 -62t-55 -61t-47.5 -51.5z" />
    <glyph glyph-name="lslash" unicode="&#x142;" horiz-adv-x="98" 
d="M69 357q-8 -1 -14 -1.5t-12 -0.5q-18 0 -29 3t-16 7q-7 4 -9 10q-4 11 -7 22q-3 8 -5 16.5t-1 10.5q-1 2 -0.5 3.5t0.5 3.5q2 5 4 6q-1 0 5.5 -4.5t15.5 -10.5t18.5 -10.5t15.5 -4.5q51 0 100 2t103 13q6 0 13.5 -5t13.5 -11.5t10 -13t4 -10.5q-9 -21 -40 -57.5
t-73 -85.5q23 13 32 31v1l3 2q3 0 2 -2l-1.5 -6t-3 -13.5t-3.5 -14.5t-4 -10q-2 -4 -4 -10q-1 -3 -1 -5q-9 -7 -19 -12t-20 -9q-8 -3 -15 -6t-14 -5q-5 -5 -9 -11t-9 -11q-32 -39 -52 -66.5t-25 -40.5v-5t2 -3q4 0 19 16q20 23 32.5 36.5t20 21t11.5 9.5t7 2q10 0 8 -8
q-1 -4 -3.5 -6.5t-3.5 -4.5q-25 -26 -45 -47q-17 -18 -32 -34t-18 -19q-4 -5 -12 -9.5t-11 -5.5q-9 0 -13.5 5t-6.5 12.5t-1.5 15.5t1.5 15q5 23 13.5 37.5t8.5 17.5v1l11 15q4 6 6.5 10.5t5 8t5.5 8t8 12.5q-1 0 -1.5 -0.5t-1.5 -0.5l-20 -10q-8 -5 -16 -10.5t-12 -10.5
q0 -1 -1 -2q-2 -2 -3 -2q-4 0 -2 2q0 1 2.5 6.5t5.5 12.5t6.5 14t4.5 12l3 9q3 1 7 4q4 2 9.5 4.5t13.5 6.5l42 13q15 19 26.5 33t27 33t40.5 48.5t67 81.5l-1 1q0 1 0.5 1t0.5 1q-42 -10 -86.5 -24t-78.5 -18z" />
    <glyph glyph-name="OE" unicode="&#x152;" horiz-adv-x="856" 
d="M279 -97q-45 -15 -78 -19.5t-56 -2t-37 10.5t-22 19q-18 26 -12 67q4 22 11 41t16 36q-28 14 -41 40t-8 67q6 43 35.5 88t77.5 83t112 65t138 36q72 8 119 -2t72.5 -33t32 -56t-1.5 -70q5 8 12 17t17 18q28 29 59 50q26 18 60 32t69 12q13 -1 21.5 -5t14.5 -9
q7 -6 12.5 -19t2.5 -33.5t-17 -49.5t-45 -66l-3 -4q-6 -8 -13.5 -16t-14.5 -16q-8 -9 -17 -17q-3 -4 -8 -9q-6 -6 -11 -10t-9 -6q-1 0 -2 -0.5t-2 -0.5q-9 -5 -17 -3q-4 1 -6 2l-28 20q-3 3 -2 5v2q2 2 4 2h2q6 -3 12 1l6 4q1 0 2 1q15 13 27 27l28 30q17 21 34 45t29 44.5
t17 34.5t-1 17q-1 0 -2 0.5t-3 0.5h-1q-6 0 -34 -4t-66 -29q-18 -14 -35 -31q-14 -14 -29 -33.5t-23 -41.5q-8 -20 -6.5 -41.5t16.5 -41.5q3 -2 5 -5q4 -7 0 -11q-5 -4 -17 -8q-11 -3 -31 -7t-55 -6h-1l-30 -6q-7 -8 -13 -16.5t-13 -16.5q-27 -51 -26.5 -82.5t12.5 -50.5
q13 -22 40 -34q14 -6 31 -4q15 1 30.5 7.5t28 14t22.5 15t15 11.5q17 15 33.5 32t30.5 32q8 9 14.5 18.5t10.5 15.5l17 25q1 2 2 6q1 5 -2 12q-1 0 -1 2t2 4q0 1 2 1q2 2 4 0h1l29 -21q2 -1 3 -3q2 -4 2 -12q1 -2 0.5 -3t-0.5 -3v-2q-2 -5 -4.5 -10.5t-7.5 -12.5
q-2 -4 -3 -5q-5 -6 -9 -12q-4 -5 -8.5 -12t-9.5 -12q-11 -13 -20.5 -23.5t-17.5 -18.5q-10 -10 -18 -17q-6 -6 -13 -10.5t-13 -9.5q-39 -26 -75 -32t-53 -5h-13q-38 4 -61.5 16t-36.5 28.5t-17 36t-2 39.5q-36 -29 -78.5 -53t-93.5 -41zM80 131q2 -10 9 -22.5t32 -21.5
q21 30 46 53t46 39q25 18 50 32q42 21 76 31q31 10 55 13t40 4q5 0 8 -0.5t5 -0.5h4h6q13 0 19 -4q1 -1 3 -1q3 -2 3 -4q5 -5 5 -9v-5q-1 -8 -2 -15q-1 -6 -1.5 -13t-0.5 -12l-1.5 -3l-1.5 -3q-2 0 -3 -1q-2 0 -2.5 2t-1.5 2q0 5 -5 10q-3 2 -5 2h-6q-32 0 -61.5 -5.5
t-52.5 -11.5q-27 -8 -51 -17l-18 -7q-27 -12 -54 -30q-16 -11 -31 -24t-29 -28q23 -1 52 1t69 10q68 11 126 19.5t102 13.5q13 6 21 8q41 50 56.5 89t18.5 51q1 7 4.5 21t1.5 30.5t-11.5 32t-33.5 25t-65 10.5t-106 -12t-113 -34t-83 -45.5t-58 -50.5t-36.5 -49.5t-19 -42
t-5.5 -27.5zM260 -53q72 29 124 60.5t89 65.5l8 17q-32 -8 -69.5 -17t-81.5 -18q-58 -13 -110 -16.5t-90 6.5q-12 -20 -19.5 -39t-7.5 -39q0 -15 7 -23.5t18.5 -12.5t25.5 -4.5t29 1.5q34 4 77 19zM610 197q-8 -15 -16 -30.5t-19 -31.5h10.5t10.5 1q8 1 15.5 1t12.5 1
q6 0 11 1q-3 3 -6 7q-2 3 -5.5 7.5t-5.5 11.5q-6 12 -8 32z" />
    <glyph glyph-name="oe" unicode="&#x153;" horiz-adv-x="279" 
d="M199 102q-8 -4 -18 -7.5t-21 -5.5q-14 -19 -24 -35.5t-15 -27.5v-2q-1 -2 -1.5 -4.5t0.5 -5t3.5 -4t7.5 -0.5q17 2 39.5 15.5t44.5 31.5t41 35.5t28 27.5v1l1 1q3 2 7 5t8 0q2 -1 3 -3q2 -4 -4 -12q-22 -26 -47.5 -49.5t-51 -41t-48.5 -26t-40 -5.5q-20 3 -24.5 15
t-5.5 19v8t2 9q-29 -26 -47.5 -34.5t-27.5 -10.5q-5 -1 -9.5 0t-6.5 2q-15 6 -22.5 18t-5 31t16.5 45t41 60q29 35 50 54t35 27q16 10 26 9q7 -1 14 -3q6 -2 11.5 -4.5t10.5 -4.5q8 -5 8.5 -13t0.5 -11q0 -2 -1 -4t-4 -3q-4 0 -4 2q-1 1 0 2q0 5 -4 7q-2 1 -3 1q-5 1 -12 -3
t-15 -11q10 4 19 3.5t12 -2.5q2 -2 4.5 -5t4.5 -9q22 23 40.5 37t32.5 20t23.5 6.5t14.5 -3.5q6 -5 8.5 -11.5t3.5 -12.5q1 -7 -1 -15q-8 -29 -27 -49.5t-36 -33.5q-1 0 -10 -6t-25 -14h-1zM79 138q-22 -26 -35.5 -45t-20.5 -32.5t-9.5 -21t-2.5 -11.5t3 -5q9 -1 23 8t30 24
t31.5 33t27.5 35q-13 2 -19.5 10.5t-3.5 23.5q1 5 5 13q-7 -6 -12 -11.5t-9 -10.5zM181 117q9 2 18.5 6t19.5 11q12 8 21 16.5t15 15.5q7 8 12 15t7 12.5t-1 7.5q-4 2 -8 0q-3 -1 -4 -3q-20 -17 -40 -38t-40 -43zM131 168q-5 -5 -4.5 -9.5t2.5 -6.5q3 -4 7 -5h5q13 23 7 27
q-5 3 -11 -1q-4 -2 -6 -5z" />
    <glyph glyph-name="Scaron" unicode="&#x160;" horiz-adv-x="456" 
d="M478 330q-29 -14 -52 -33t-23 -40l4 -4q1 0 1 -1t-2 -3q-2 -4 -5 -1q-2 1 -3 2.5t-2 1.5q-2 2 -7 11.5t1 28.5q4 13 23.5 33.5t49.5 40.5q2 1 3 2q6 4 11.5 7.5t12.5 7.5q4 2 7 4t8 4q-29 6 -67 5t-70 -16q-26 -13 -33.5 -29t-5.5 -32.5t9.5 -31.5t13.5 -26q4 -7 17 -29
q34 -4 60 -11.5t43.5 -15.5t27.5 -14.5t12 -8.5l1 -1v-2l-5 -7l-1 -1q-2 -2 -2 -1q-32 9 -60 15t-55 8q9 -21 15 -45t3.5 -51t-16 -55t-42.5 -56q-48 -45 -101 -61.5t-100 -12t-82 25.5t-45 51t1.5 69.5t42.5 76.5t80 64.5t115 33.5q20 2 38.5 2.5t34.5 -0.5l-7.5 15
t-8.5 14q-13 19 -17 35.5t-4 29.5q0 15 4 27q12 29 38.5 48t57.5 30t62 14.5t52 1.5q20 -2 28 -13.5t10 -24.5q23 7 35 5q6 -1 10 -4q9 -8 17 -15q7 -6 12 -11.5t7 -7.5q2 -3 3.5 -6.5t-1.5 -5.5q-4 -1 -5 0q-1 0 -1 1q-8 5 -19.5 4t-22.5 -3q-13 -3 -27 -7
q-20 -8 -40.5 -15.5t-38.5 -16.5zM354 195q-72 1 -128 -16.5t-94.5 -42.5t-59.5 -52t-24 -45q-2 -18 2.5 -32.5t18.5 -25t40 -16t67 -3.5t74.5 16.5t57.5 35.5t38.5 44t19.5 43q5 23 1 46.5t-13 47.5zM509 454q0 -1 -2 -2t-4 -1q-4 1 -4 3v2v2q1 7 -3 16t-10.5 17
t-14.5 14.5t-15 8.5q-3 0 -5 -2t-7 -2q-1 0 -4 1t-3 3q5 9 17 16t18 7q23 0 37.5 -13t18.5 -21q5 2 11 3t13 1q19 0 30.5 -4t16.5 -10.5t5.5 -15t-1.5 -17.5q-2 -4 -3 -4q-7 0 -8.5 2.5l-3 5t-5.5 5t-15 2.5q-15 0 -31 -3.5t-24 -10.5z" />
    <glyph glyph-name="scaron" unicode="&#x161;" horiz-adv-x="192" 
d="M222 97q-2 -6 -6 -8.5t-8 -2.5q-12 0 -30 -0.5t-39 -2.5q-8 -26 -16 -43q-10 -20 -30 -30t-39 -15h-1q-11 -2 -20 -1.5t-13 1.5h-2q-2 0 -2 1q-2 1 -3.5 1.5t-3.5 1.5q-4 3 -6 9q-1 2 -1 4v42q0 4 4 9q3 4 9 9t18 10q11 4 26.5 8t36.5 7q4 11 9.5 30.5t8.5 30.5q0 3 2 7
q1 2 1 3q3 14 9 24.5t11 15.5q0 1 2 3l1 1q2 2 3.5 4t3.5 4q6 7 11.5 11t10.5 7q1 0 2 1q3 1 5 1.5t4 1.5q10 2 13 1t4 -2l12 -8q5 -3 10 -7t9 -6t2 -5v-2q-5 -5 -8 -2q-6 1 -13 -2q-4 -2 -6 -4q-3 -4 -6.5 -7t-6.5 -7q-15 -16 -25.5 -39.5t-19.5 -48.5q31 3 68 3
q1 0 5.5 -1.5t3.5 -7.5zM11 45h1h-1zM38 48q20 5 31 12.5t18 15.5q-32 -5 -55 -14q-5 -3 -9 -6q-7 -6 1 -8h3h11zM220 254q0 -1 -2 -2t-4 -1q-4 1 -4 3v2v2q1 7 -3 16t-10.5 17t-14.5 14.5t-15 8.5q-3 0 -5 -2t-7 -2q-1 0 -4 1t-3 3q5 9 17 16t18 7q23 0 37.5 -13t18.5 -21
q5 2 11 3t13 1q19 0 30.5 -4t16.5 -10.5t5.5 -15t-1.5 -17.5q-2 -4 -3 -4q-7 0 -8.5 2.5l-3 5t-5.5 5t-15 2.5q-15 0 -31 -3.5t-24 -10.5z" />
    <glyph glyph-name="Ydieresis" unicode="&#x178;" horiz-adv-x="557" 
d="M759 418q-9 -11 -40 -45.5t-70 -80.5q-2 -2 -20.5 -25.5t-46.5 -61.5t-62 -86t-67 -98q-12 -19 -25 -37.5t-27 -37.5q-23 -30 -49 -57t-55 -45t-61 -25t-66 2q-3 1 -3 5q0 2 1 3q2 3 4.5 3.5t4.5 0.5h1q6 0 17 1t25 6t30.5 14.5t34.5 26.5q19 18 42.5 48.5t50.5 70.5
q2 3 11 15.5t14 19.5q-15 -17 -30.5 -34t-29 -31t-23.5 -23.5t-15 -10.5q-13 -4 -23.5 -1t-18.5 8q-9 6 -16 15q-9 13 -12 24q-8 22 -4.5 47t12.5 49.5t20.5 46t21.5 36.5l6 10t5 8q3 4 5 6l1 1q19 26 38.5 51.5t37.5 46.5q23 28 44.5 52.5t42.5 46.5l-1 1q6 7 10 13
q3 5 3.5 11.5t-4.5 11.5q-5 4 -16 2t-23.5 -8t-25 -13.5t-20.5 -12.5q-55 -36 -114.5 -84t-118.5 -108q-20 -21 -34 -41q-12 -17 -19.5 -36.5t0.5 -33.5q2 -5 0 -8q-7 -4 -7 -1l-46 46q-3 5 -4 10t-0.5 11t5.5 14q0 1 2 3q0 1 2 3h-1q13 18 37 41.5t56.5 49.5t71 54t80.5 55
q5 3 10 7q5 3 11.5 7t14.5 9q17 10 39 22.5t44.5 23t43 17t34.5 4.5q2 -1 4 -1t3 -1l10 -5q5 -3 9.5 -7t8.5 -10q5 -9 4 -24t-17 -36q-2 -3 -4.5 -5.5t-4.5 -5.5h-1q-15 -17 -34 -38.5t-40.5 -46.5t-44 -53t-44.5 -57h1q-37 -56 -51.5 -93.5t-16.5 -60t5 -31.5t13 -9
t25.5 19.5t40.5 42.5q25 27 55 62q29 34 54.5 65t47.5 57q2 2 9 10.5t10 12.5q12 15 22.5 27t21.5 25q12 15 27 31.5t29.5 33t28 32t24.5 26.5l12 14q5 5 9 10t6 7q4 5 11.5 10t13.5 3q2 -1 7.5 -2t10.5 -2q6 -2 13 -3q3 0 5 -2q3 -3 -1 -10q-3 -4 -6 -7l-6 -6q-4 -4 -6 -7z
M603 514q5 8 18 8q10 0 22 -6t10 -19q-4 -9 -11.5 -12.5t-21.5 2.5q-8 2 -11.5 5.5l-5.5 5.5q-2 3 -2 5q1 2 1 4q0 5 1 7zM663 492q8 8 18 8t22 -6t9 -19q-2 -10 -10 -13.5t-22 3.5q-8 2 -12 5.5t-6 5.5q-3 3 -2 5q0 2 1 4t1 3.5t1 3.5z" />
    <glyph glyph-name="Zcaron" unicode="&#x17d;" horiz-adv-x="425" 
d="M675 401q0 -1 -1 -1t-1 -1q-2 -2 -4 -1t-3 1q-3 4 -10 4q-4 0 -6 -1q-11 -5 -21 -9t-20 -9q-18 -9 -42 -23t-46.5 -28.5t-41 -27t-26.5 -18.5q-25 -19 -60.5 -47.5t-74.5 -61.5t-79 -68t-75 -65.5t-62 -54.5t-41 -36q45 1 94 6t102 16q27 5 50 14q20 8 37 20.5t22 30.5
q2 2 2.5 4t2.5 2q6 0 6 -3l-4 -71q-1 -6 -4 -11q-2 -5 -7 -10.5t-13 -9.5q-1 -1 -1.5 -1t-1.5 -1q-1 0 -1.5 -0.5t-1.5 -0.5q-21 -9 -54.5 -14t-75 -7t-88 -1t-93.5 4h-6q-2 0 -2.5 0.5t-1.5 0.5t-1 1l-3 13q-1 4 -2 8.5t-2 9.5q-1 4 -3 8q-2 5 3 12.5t10 11.5l13 13
q11 11 30.5 28.5t41 36t42 37t35.5 30.5q28 24 72.5 61.5t95.5 78.5t105 79t102 64q-46 -2 -96 -8t-104 -18q-27 -6 -49 -16q-19 -8 -36 -21t-22 -31q-2 -2 -3 -4t-3 -2q-5 0 -5 3l2 71q1 6 4 11q2 5 6.5 10t12.5 10q1 1 1.5 1t1.5 1q1 0 1.5 0.5t1.5 0.5q23 10 61.5 16.5
t86 9.5t100.5 2t105 -4h3q1 0 1.5 -0.5t1.5 -0.5l17 -1h4q4 -2 6 -5q2 -5 4 -9t3.5 -8t3.5 -9q2 -2 2.5 -3.5t1.5 -3.5v-5zM532 454q0 -1 -2 -2t-4 -1q-4 1 -4 3v2v2q1 7 -3 16t-10.5 17t-14.5 14.5t-15 8.5q-3 0 -5 -2t-7 -2q-1 0 -4 1t-3 3q5 9 17 16t18 7q23 0 37.5 -13
t18.5 -21q5 2 11 3t13 1q19 0 30.5 -4t16.5 -10.5t5.5 -15t-1.5 -17.5q-2 -4 -3 -4q-7 0 -8.5 2.5l-3 5t-5.5 5t-15 2.5q-15 0 -31 -3.5t-24 -10.5z" />
    <glyph glyph-name="zcaron" unicode="&#x17e;" horiz-adv-x="160" 
d="M160 178l-10.5 -5.5t-24.5 -13t-29.5 -17t-26.5 -17t-15 -12t6 -3.5q12 2 21.5 3t15.5 3q10 2 18.5 -2t3.5 -10l-16 -18q0 -1 -4 -5q-3 -4 -8.5 -10.5t-14.5 -19.5q-3 -6 6.5 -7t23.5 14q9 11 20 22l20 20l21 21q3 3 7 5q7 3 10 0q5 -4 1 -9.5t-6 -7.5q-24 -25 -44 -46
q-17 -18 -32.5 -34t-20.5 -20q-3 -3 -8.5 -6t-12 -5t-12 -2.5t-8.5 1.5q-3 1 -9 9q-7 -8 -13 -14.5t-11 -13.5q11 -1 21 -2t19 -3q15 -3 23 -7.5t12 -8.5t5 -9v-32q-2 -3 -2.5 -5t-3.5 -2q-1 0 -1 1v2q-2 10 -14 17q-6 4 -13 7q-33 14 -65 20q-12 -14 -20 -23.5t-12 -13.5
v-1l-8 -10q-4 -4 -6.5 -7t-5.5 -5q-5 -6 -10.5 -10.5t-9.5 -6.5q-1 -1 -2 -1l-9 -4q-6 -2 -9.5 -1t-5.5 2q-1 0 -1 1q-6 3 -11 7l-10 6l-10 6l-1 1v1l-2 1q-2 2 -2.5 4t-1.5 4q-1 3 -1 6q-1 6 1.5 10.5t4.5 7.5q3 4 7 6q19 11 40 26t31 20q1 1 2 1h6h8q16 19 25 29.5
t14 16.5l7.5 9t6.5 8t10.5 13.5t20.5 24.5l-15 -4q-16 -6 -20 6q0 7 2 19.5t14 26.5l10 9.5t26 23t36.5 29t43.5 27.5h1l2 2q1 0 0.5 0.5t-2.5 0.5q-13 2 -23.5 3t-19.5 3q-5 0 -5 2t2 4.5t4.5 4.5l2.5 2q6 0 19 -0.5t27 -1t27.5 -1.5t20.5 -2q6 -4 10 -15q2 -11 -2.5 -23.5
t-12.5 -14.5q-3 -1 -8.5 -3t-14.5 -4zM-76 -47l-52 -33q-2 -1 -3 -3q-2 -4 1 -8q1 0 1 -0.5t1 -0.5q2 -1 5 -0.5t8 5.5q7 6 12.5 12t11.5 13zM166 254q0 -1 -2 -2t-4 -1q-4 1 -4 3v2v2q1 7 -3 16t-10.5 17t-14.5 14.5t-15 8.5q-3 0 -5 -2t-7 -2q-1 0 -4 1t-3 3q5 9 17 16
t18 7q23 0 37.5 -13t18.5 -21q5 2 11 3t13 1q19 0 30.5 -4t16.5 -10.5t5.5 -15t-1.5 -17.5q-2 -4 -3 -4q-7 0 -8.5 2.5l-3 5t-5.5 5t-15 2.5q-15 0 -31 -3.5t-24 -10.5z" />
    <glyph glyph-name="circumflex" unicode="&#x2c6;" horiz-adv-x="200" 
d="M174 334q3 3 7 3q4 -2 4 -3v-2v-2q-2 -7 2 -16t11 -17t15 -14.5t15 -8.5q3 0 5 2t7 2q1 0 4 -1t3 -3q-5 -9 -17 -16t-18 -7q-23 0 -37.5 13t-18.5 21q-5 -2 -11 -3t-13 -1q-20 0 -31 4t-16 10.5t-5.5 15t1.5 17.5q2 4 3 4q7 0 8.5 -2.5l3 -5t5.5 -5t15 -2.5q15 0 31 3.5
t24 10.5l3 3v0z" />
    <glyph glyph-name="caron" unicode="&#x2c7;" horiz-adv-x="199" 
d="M149 254q0 -1 -2 -2t-4 -1q-4 1 -4 3v2v2q1 7 -3 16t-10.5 17t-14.5 14.5t-15 8.5q-3 0 -5 -2t-7 -2q-1 0 -4 1t-3 3q5 9 17 16t18 7q23 0 37.5 -13t18.5 -21q5 2 11 3t13 1q19 0 30.5 -4t16.5 -10.5t5.5 -15t-1.5 -17.5q-2 -4 -3 -4q-7 0 -8.5 2.5l-3 5t-5.5 5t-15 2.5
q-15 0 -31 -3.5t-24 -10.5z" />
    <glyph glyph-name="ring" unicode="&#x2da;" horiz-adv-x="147" 
d="M92 327q5 8 14 11.5t18 3.5t20 -3t20.5 -9t15 -15t2.5 -21q-4 -17 -18.5 -23.5t-41.5 4.5q-14 5 -21 11t-10 11q-4 5 -3 11q0 3 1 7zM115 319q2 -5 7 -7.5l9 -4.5q22 -8 25 -3h1q1 5 -6.5 10.5t-15.5 7.5q-2 1 -10 0.5t-10 -3.5z" />
    <glyph glyph-name="tilde" unicode="&#x2dc;" horiz-adv-x="164" 
d="M187 295q10 -5 11 -15.5t-2 -21.5q-5 -27 -9.5 -30t-6.5 -3q-1 0 -1 3q0 2 1 4q2 4 2 7q2 8 -7 18t-32 18q-2 1 -12 1.5t-20.5 5t-17.5 15t-3 30.5q3 15 8 26q3 6 5 11q2 4 4 4t1 -3q-2 -6 -2 -7t-1 -5q-2 -7 0.5 -14.5t16.5 -13.5l28.5 -13.5t15.5 -7t10 -4t11 -5.5z
" />
    <glyph glyph-name="endash" unicode="&#x2013;" horiz-adv-x="349" 
d="M333 133q-13 -4 -27.5 -5.5t-28.5 -1.5q-38 0 -76 4.5t-83 4.5q-15 0 -29 -2q-12 -2 -24 -5t-19 -9l-2 -2q-1 -1 -5 -1q-3 1 -3 4q0 1 5.5 7.5t12.5 14l14 15t10 12.5l10 10q-1 -1 9.5 1t33.5 2q20 0 55 -4t73 -4q13 0 28.5 1t31.5 4t29.5 8.5t21.5 14.5l1 1q2 2 5 2
q5 0 3 -4q0 2 -3.5 -4.5t-8.5 -16t-11 -19t-10 -12.5q-2 -3 -4.5 -6t-4.5 -5q-3 -3 -4 -5z" />
    <glyph glyph-name="emdash" unicode="&#x2014;" horiz-adv-x="505" 
d="M489 133q-13 -4 -27.5 -5.5t-28.5 -1.5q-19 0 -62.5 1.5t-92 3t-93.5 3t-67 1.5q-15 0 -29 -2q-12 -2 -24 -5t-19 -9l-2 -2q-1 -1 -5 -1q-3 1 -3 4q0 1 5.5 7.5t12.5 14l14 15t10 12.5l10 10q-1 -1 9.5 1t33.5 2q6 0 26.5 -0.5t47.5 -1.5t58.5 -2t61 -2t53.5 -1.5
t37 -0.5t28.5 1t31.5 4t29.5 8.5t21.5 14.5l1 1q2 2 5 2q5 0 3 -4q0 2 -3.5 -4.5t-8.5 -16t-11 -19t-10 -12.5q-2 -3 -4.5 -6t-4.5 -5q-3 -3 -4 -5z" />
    <glyph glyph-name="quoteright" unicode="&#x2019;" horiz-adv-x="198" 
d="M289 370q11 3 21 13t18 22t13 23t6 16t-1.5 6t-5.5 1t-5 1t-1 7q1 4 9.5 4t7.5 0q27 0 35 -8t3 -34q-2 -10 -8 -21t-17.5 -20t-28 -15t-40.5 -5h-7.5t-3.5 4q1 6 5 6z" />
    <glyph glyph-name="quotesinglbase" unicode="&#x201a;" horiz-adv-x="116" 
d="M3 -56q11 3 21 13t17.5 22t12.5 23t6 16t-1 6t-5 1t-5.5 1t-0.5 7q1 4 9 4t7 0q27 0 35.5 -8t2.5 -34q-2 -10 -6 -21t-14 -20t-28 -14.5t-46 -5.5h-7t-3 4q1 6 5 6z" />
    <glyph glyph-name="quotedblleft" unicode="&#x201c;" horiz-adv-x="299" 
d="M286 452q-11 -3 -21 -13t-18 -22t-13 -23t-6 -16t1 -6t5 -1t5.5 -1t1.5 -7q0 -2 -3 -3t-6.5 -1h-6t-1.5 0q-27 0 -35 8t-3 34q2 10 8 21t17 20t28 15t41 5h7.5t3.5 -4q-1 -6 -5 -6zM198 452q-11 -3 -21 -13t-18 -22t-13 -23t-6 -16t1 -6t5 -1t5.5 -1t1.5 -7q0 -2 -3 -3
t-6.5 -1h-6t-1.5 0q-27 0 -35 8t-3 34q2 10 8 21t17 20t28 15t41 5h7.5t3.5 -4q-1 -6 -5 -6z" />
    <glyph glyph-name="quotedblright" unicode="&#x201d;" horiz-adv-x="299" 
d="M198 370q11 3 21 13t18 22t13 23t6 16t-1.5 6t-5.5 1t-5 1t-1 7q1 4 9.5 4t7.5 0q27 0 35 -8t3 -34q-2 -10 -8 -21t-17.5 -20t-28 -15t-40.5 -5h-7.5t-3.5 4q1 6 5 6zM286 370q11 3 21 13t18 22t13 23t6 16t-1.5 6t-5.5 1t-5 1t-1 7q1 4 9.5 4t7.5 0q27 0 35 -8t3 -34
q-2 -10 -8 -21t-17.5 -20t-28 -15t-40.5 -5h-7.5t-3.5 4q1 6 5 6z" />
    <glyph glyph-name="quotedblbase" unicode="&#x201e;" horiz-adv-x="198" 
d="M4 -56q11 3 21 13t17.5 22t12.5 23t6 16t-1 6t-5 1t-5.5 1t-0.5 7q1 4 9 4t7 0q27 0 35.5 -8t2.5 -34q-2 -10 -6 -21t-14 -20t-28 -14.5t-46 -5.5h-7t-3 4q1 6 5 6zM84 -56q11 3 21 13t17.5 22t12.5 23t6 16t-1 6t-5 1t-5.5 1t-0.5 7q1 4 9 4t7 0q27 0 35.5 -8t2.5 -34
q-2 -10 -6 -21t-14 -20t-28 -14.5t-46 -5.5h-7.5t-3.5 4t3 5t3 1z" />
    <glyph glyph-name="ellipsis" unicode="&#x2026;" horiz-adv-x="414" 
d="M63 -34q6 1 12 6t10.5 11.5t8.5 13.5t6 11v2q1 1 1 3t1 4t5 3t14 1q11 0 22.5 -5t7.5 -21q-5 -26 -18.5 -35t-20.5 -9q-22 0 -38 2t-15 9q0 1 2 3q1 0 2 1zM182 -34q6 1 12 6t10.5 11.5t8.5 13.5t6 11v2q1 1 1 3t1 4t5 3t14 1q11 0 22.5 -5t7.5 -21q-5 -26 -18.5 -35
t-20.5 -9q-22 0 -38 2t-15 9q0 1 2 3q1 0 2 1zM301 -34q6 1 12 6t10.5 11.5t8.5 13.5t6 11v2q1 1 1 3t1 4t5 3t14 1q11 0 22.5 -5t7.5 -21q-5 -26 -18.5 -35t-20.5 -9q-22 0 -38 2t-15 9q0 1 2 3q1 0 2 1z" />
    <glyph glyph-name="perthousand" unicode="&#x2030;" horiz-adv-x="350" 
d="M313 487q-2 -12 -7 -26t-11 -28q-6 -12 -20.5 -39.5t-33 -63t-39 -74.5t-39.5 -75t-33.5 -65l-21.5 -43q-8 -15 -12 -28q-4 -11 -6.5 -23.5t0.5 -19.5q0 -1 1 -2q0 -1 0.5 -1.5t-0.5 -2.5q-4 -4 -6 -3q-2 0 -5.5 5.5t-8 13t-9 14.5t-7.5 10l-6 10q1 -1 3.5 9.5t13.5 32.5
q3 6 15.5 29.5t29.5 56t37 70.5t38 72.5t32 62t20 40.5q6 12 12.5 27.5t10.5 30.5t5 28.5t-5 21.5q-1 0 -1 1q-2 2 0 5q1 3 5 3q-2 0 3 -3.5t12 -9.5l14 -12t9 -10q2 -2 3.5 -4.5t3.5 -4.5q2 -3 3 -5zM203 510q9 -5 11 -15.5t0 -21.5t-9 -26t-17.5 -28.5t-23.5 -22.5t-28 -9
q-21 1 -26 17.5t17 53.5q11 19 20.5 29.5t16.5 15.5q8 6 15 7h9h15zM198 499q-11 -6 -19.5 -18t-15.5 -22q-17 -29 -19.5 -41t-0.5 -15v-1q0 -2 2 -2q6 1 12.5 7t13.5 14t13 18t11 19q1 2 2.5 8.5t2.5 13t1 12.5t-2 7h-1zM250 151q8 -5 10.5 -15.5t0.5 -21.5q-3 -11 -10 -26
t-17.5 -28.5t-23.5 -22.5t-28 -9q-20 1 -25 17.5t17 53.5q11 19 20.5 29.5t16.5 15.5q8 6 15 7h9h15zM244 140q-11 -6 -19 -18t-15 -22q-17 -29 -19.5 -41t-0.5 -15v-1q0 -2 1 -2q12 2 26.5 21t24.5 37q1 2 2.5 8.5t2.5 13t1 12.5t-3 7h-1zM353 151q8 -5 10.5 -15.5
t0.5 -21.5q-3 -11 -10 -26t-17.5 -28.5t-23.5 -22.5t-28 -9q-20 1 -25 17.5t17 53.5q11 19 20.5 29.5t16.5 15.5q8 6 15 7h9h15zM347 140q-11 -6 -19 -18t-15 -22q-17 -29 -19.5 -41t-0.5 -15v-1q0 -2 1 -2q12 2 26.5 21t24.5 37q1 2 2.5 8.5t2.5 13t1 12.5t-3 7h-1z" />
    <glyph glyph-name="guilsinglleft" unicode="&#x2039;" horiz-adv-x="359" 
d="M302 104v-12q1 -1 1 -2q0 -3 -1 -10.5l-2 -15t-2 -14t-1 -8.5q-2 -4 -3 -7.5t-4 -1.5q-4 0 -4 2q-1 1 0 2q-1 12 -13 22.5t-22 16.5q-21 13 -45 21t-49.5 15.5t-52 15t-51.5 18.5q-5 0 -5 9.5t2.5 21t6.5 20t7 5.5q28 11 56.5 18.5t57.5 15t57.5 16t57.5 21.5
q12 6 28.5 16.5t23.5 22.5q0 1 1 2t4 2q4 2 4 -1.5v-7.5q0 -2 -2.5 -8.5t-5 -14t-4.5 -15t-3 -10.5l-2 -2q-2 -4 -2.5 -7t-2.5 -5q-2 -3 -3 -6q-22 -14 -52 -23t-59 -16l-24 -4q-19 -5 -39.5 -10t-40.5 -12q34 -11 71 -21l22 -4q26 -7 52.5 -16t42.5 -23v-6z" />
    <glyph glyph-name="guilsinglright" unicode="&#x203a;" horiz-adv-x="366" 
d="M113 110q22 14 52 23t59 16l24 4q19 5 39 10t40 11q-17 7 -35 12t-35 10l-22 4q-26 7 -52.5 16t-42.5 23v6q0 2 -0.5 5t0.5 7q-1 1 0 2q0 3 0.5 10.5t1.5 15t2 14t1 8.5q2 4 3 7.5t5 1.5q3 -3 3 -2v-2q1 -12 13 -22.5t23 -16.5q22 -13 47.5 -21.5t51 -16t50.5 -15
t48 -18.5q5 3 5.5 -5.5t-1.5 -20t-6 -21t-9 -9.5q-31 -11 -60.5 -18.5t-58 -15t-55.5 -15.5t-54 -21q-13 -6 -29.5 -16.5t-23.5 -22.5q-1 -1 -1 -2q-2 -2 -3 -2q-5 -2 -5 1.5v7.5q0 2 2.5 8.5t5 14l5 15l3.5 10.5q0 1 1 2q2 7 5 12q2 3 3 6z" />
    <glyph glyph-name="fraction" unicode="&#x2044;" horiz-adv-x="196" 
d="M283 487q-2 -12 -7 -26t-11 -28q-6 -12 -20.5 -39.5t-33 -63t-39 -74.5t-39.5 -75t-33.5 -65l-21.5 -43q-8 -15 -12 -28q-4 -11 -6.5 -23.5t0.5 -19.5q0 -1 1 -2q0 -1 0.5 -1.5t-0.5 -2.5q-4 -4 -6 -3q-2 0 -5.5 5.5t-8 13t-9 14.5t-7.5 10l-6 10q1 -1 3.5 9.5t13.5 32.5
q3 6 15.5 29.5t29.5 56t37 70.5t38 72.5t32 62t20 40.5q6 12 12.5 27.5t10.5 30.5t5 28.5t-5 21.5q-1 0 -1 1q-2 2 0 5q1 3 5 3q-2 0 3 -3.5t12 -9.5l14 -12t9 -10q2 -2 3.5 -4.5t3.5 -4.5q2 -3 3 -5z" />
    <glyph glyph-name="Euro" unicode="&#x20ac;" horiz-adv-x="352" 
d="M128 77q-11 13 -13 29t2 35q6 24 20 52h-17q-10 0 -19 -1q-8 -1 -15.5 -3t-12.5 -6q0 -1 -1 -1q-1 -1 -3 -1q-3 1 -2 3l2 4q1 1 4.5 5.5t8 9l8.5 8.5l4 4l5 6q2 0 6 1q3 0 7 0.5t10 0.5q5 1 11 0.5t14 -0.5q2 -1 7 -1q10 18 22 33q-11 1 -21.5 1.5t-21.5 0.5
q-10 0 -19 -1q-8 -1 -15.5 -3t-11.5 -6q0 -1 -1 -1q-1 -1 -3 -1q-4 1 0 7q1 1 4.5 5.5t8 9l8.5 8.5l4 4l5 6q2 0 6 1q3 0 7 0.5t10 0.5q5 1 11 0.5t14 -0.5l37 -4q24 29 48 53t44 38q32 24 53 33t35 9q17 0 29 -11.5t6 -38.5q-3 -14 -12.5 -32.5t-27.5 -41.5l-3 -3h1
q-28 -35 -41.5 -44.5t-20.5 -9.5q-5 0 -5.5 1t-1.5 1q-1 1 -4 3t-7 5t-6.5 5.5t-2.5 4.5l1 1l2 1h4q2 0 6 2l4 2q13 12 28 29.5t29 36t24 35t12 27.5q1 8 -5 8q-14 0 -46.5 -23.5t-75.5 -65.5l-12 -12t-13 -14l16 3q9 2 21 5.5t17 9.5l1 1q1 0 1.5 0.5t1.5 0.5q3 0 2.5 -2
t-2.5 -4q-1 -3 -8.5 -14t-10.5 -15l-1 -1q-2 -2 -2.5 -3.5t-2.5 -3.5l-3 -3q-12 -5 -26 -5.5t-28 0.5q-5 -8 -11.5 -16t-11.5 -17q29 -2 49 3q9 2 21 5.5t18 9.5l1 1l2 1q3 0 2.5 -2t-1.5 -4l-9 -13.5t-10 -15.5l-2 -1q-2 -2 -2.5 -3.5t-2.5 -3.5l-3 -3q-15 -5 -34 -5t-36 2
q-4 0 -10 2q-11 -20 -19 -38t-11 -33q-4 -18 1 -30.5t21 -12.5q17 0 39.5 16t42.5 36.5t35 40.5t17 29q1 3 -1 5t-1 5q0 3 5 3l1 -1q15 -10 20 -12.5t4 -12.5q-2 -11 -8 -21q-26 -36 -47.5 -57t-39.5 -32.5t-32.5 -15t-26.5 -3.5t-21 3t-15 7q-7 4 -12 10z" />
    <glyph glyph-name="trademark" unicode="&#x2122;" horiz-adv-x="634" 
d="M615 437q-24 8 -58.5 9.5t-69 0t-64 -4.5t-41.5 -4q2 -1 4.5 -1t4.5 -1t4 -1q2 -1 3 -2q3 -3 -1 -5q-3 -4 -7 -10q-2 -3 -4 -4q-20 -26 -33.5 -44t-26.5 -34.5t-26 -33.5t-31 -40q-5 -6 -9 -12t-9 -11q-1 -3 -2 -5q-2 -5 1 -7v-2q0 -2 -1 -3l-1 -1q-3 0 -3 1l-18 15
q-1 1 -2 4q-2 3 0 11q2 0 0 2l4 6t5 8q2 2 3.5 4t3.5 4q23 30 36 47.5t23.5 32l21 29t28.5 37.5l3 3q2 2 2.5 3t2.5 3t3.5 3t3.5 2q-13 -2 -32.5 -4.5t-41.5 -6t-45 -6.5t-44 -5q-22 -2 -30 5.5t-9 18.5q-1 12 5 29q0 5 4 5q3 0 3 -3v-3q-1 -3 0.5 -6t6.5 -6t16 -4t29 1
q55 5 110.5 10.5t106 10t92.5 6.5t69 -1q17 -2 27 -6t15 -8t6 -10v-16v-19q-1 -3 -1 -5.5t-3 -2.5t-3 2v1q-1 5 -6 10t-10 8q-7 4 -15 6zM500 270q-7 -11 -8.5 -17.5t-1 -10t1.5 -5t0 -2.5q-5 -6 -15 0q-3 2 -7 8t-2 17q0 1 1.5 7.5t8.5 19.5t22 33t41 47h1v1q0 1 -1 1
t-8.5 -4.5t-19 -12t-25.5 -17t-26 -20.5q-4 -5 -8.5 -10.5t-8.5 -10.5q-6 -8 -11 -14.5t-10 -11.5q-3 -6 -7 -10q-2 -3 -3.5 -5.5t-3.5 -4.5q-2 -5 -6 -9v-1q0 -1 -0.5 -2t-0.5 -2t2 -3v-1q0 -1 -0.5 -1.5t-0.5 -1.5h-1h-2q-3 2 -6.5 4.5t-5.5 4.5q-1 0 -2 1v1q-1 0 -2 2
q-2 4 -1 8q0 1 1 2q0 1 0.5 1.5t0.5 2.5q1 1 1 1.5t1 1.5q2 4 4 7t4 7l15 24q10 15 19.5 29t22.5 28q3 4 6 7l8 8l1 1q-1 1 -2 1l-10 -5.5t-23.5 -14.5t-29 -20.5t-27.5 -24.5q-12 -16 -21 -27.5t-14 -18.5q-3 -6 -7 -10q-2 -5 -6 -9q-1 -1 -1 -3q0 -4 2 -5v-1q0 -2 -1 -3
h-3q-3 2 -6.5 4.5t-5.5 4.5l-2 2q-1 0 -2 2q-2 4 -1 8q0 1 2 2v4q2 2 2 3q20 33 46 72q11 15 19 27t10 14q2 3 4 5.5t4 4.5q1 2 2 5q1 4 0 8q-1 0 -1 1q0 2 2 3h2h3l17 -17q7 -2 2 -16q-3 -6 -9 -15q15 12 38 26t43 21q5 2 8 -1q1 0 3 -2q6 -4 9 -11t-2 -12l-3.5 -3.5
t-5.5 -6.5q15 11 32 21t33 15q5 2 9 -1q0 -1 1 -1t1 -0.5t1 -0.5q5 -4 8 -11t-2 -12q-1 -1 -3 -3.5t-7 -7.5q-17 -19 -32 -36q-13 -14 -25 -29.5t-18 -23.5h-1zM161 305q2 -8 13.5 -9.5t17.5 -2.5l2 1q1 -1 2.5 0t2.5 0.5t2 -2.5t2 -9q0 -8 -3.5 -17.5t-14.5 -11.5
q-19 -5 -25.5 1.5t-8.5 11.5q0 14 1 25.5t6 13.5h3v-1zM606 305q0 1 1 1h4q4 -2 -0.5 -13.5t-10.5 -25.5q-3 -5 -13 -11.5t-27 -1.5q-10 2 -8.5 11.5t4.5 17.5q3 7 5 9t3.5 2.5t2.5 -0.5t2 0q1 0 2 -1q6 1 18 2.5t17 9.5z" />
    <glyph glyph-name="minus" unicode="&#x2212;" horiz-adv-x="349" 
d="M333 133q-13 -4 -27.5 -5.5t-28.5 -1.5q-38 0 -76 4.5t-83 4.5q-15 0 -29 -2q-12 -2 -24 -5t-19 -9l-2 -2q-1 -1 -5 -1q-3 1 -3 4q0 1 5.5 7.5t12.5 14l14 15t10 12.5l10 10q-1 -1 9.5 1t33.5 2q20 0 55 -4t73 -4q13 0 28.5 1t31.5 4t29.5 8.5t21.5 14.5l1 1q2 2 5 2
q5 0 3 -4q0 2 -3.5 -4.5t-8.5 -16t-11 -19t-10 -12.5q-2 -3 -4.5 -6t-4.5 -5q-3 -3 -4 -5z" />
    <glyph glyph-name="fi" unicode="&#xfb01;" horiz-adv-x="223" 
d="M-91 -95q-10 13 -6 39q4 23 23 61.5t68 98.5q14 18 29 36.5t30 35.5q-9 3 -16 8t-4 16q0 2 3 2q5 0 14.5 -1t23.5 -1q54 61 98.5 110.5t64.5 78.5q-46 -10 -94 -25t-84 -20q-27 -3 -43.5 -1t-24.5 7q-10 4 -13 12q-4 12 -7 23q-2 9 -4 16.5t-2 9.5q1 5 2 8.5t5 4.5
q2 0 4 -2l1 -1q4 -6 13 -10.5t18 -7.5q11 -4 23 -6q26 -4 60.5 -2.5t70 5.5t67 9.5t51.5 11.5q5 0 7 -2q2 -4 5.5 -12t1.5 -19q-1 -5 -6 -13q-3 -4 -17 -19.5t-35 -39t-47 -52.5t-54 -61q20 3 34 11h1q2 0 2 -2q0 -3 -2.5 -8t-8.5 -10.5t-16.5 -10t-28.5 -7.5q3 -9 3 -25.5
t-13 -50.5q-11 -26 -37 -63t-57 -69.5t-59.5 -52t-43.5 -10.5zM94 155q-23 -27 -44.5 -54t-39.5 -51t-31.5 -44.5t-20.5 -35.5q-5 -9 -7 -16q-2 -6 -2 -10.5t5 -2.5q4 1 17 13t29.5 30t34.5 40.5t32 46t22 45.5t5 39zM242 242q5 3 14 -1q2 -1 2 -1.5t2 -1.5q8 -6 13 -16.5
t-2 -18.5l-6 -6t-11 -12q-25 -28 -48 -54q-20 -22 -39 -45t-28 -36q-2 -5 1.5 -8t19.5 11q10 8 24 20t26 23q14 12 29 25q2 2 6 4q7 3 12 1q5 -5 0.5 -10.5t-6.5 -7.5l-56 -50q-21 -19 -39.5 -35.5t-21.5 -19.5q-5 -6 -13.5 -8.5t-15.5 1.5q-5 4 -11.5 13.5t-2.5 26.5
q0 1 1.5 8t8 20.5t20 34.5t37.5 50q11 14 22 27.5t21 24.5q6 6 10.5 11.5t8.5 9.5t7 8l5 5q3 3 9 7h1zM374 319q-7 0 -14.5 -4.5t-15 -10.5t-14 -12t-10.5 -10l-1 -1q-1 -2 -3 -4l-1 -1q-2 -2 -2 -3q-5 -5 -9 -10.5t-4 -10.5l4 -2q2 -1 3.5 -2t3.5 -2q-1 -2 -1 -4
q-1 -2 -1 -3.5t-2 -1.5q-2 -1 -9 1q-3 1 -5 2h-2l-4 2q-7 2 -15.5 5t-8.5 8q-2 7 1.5 23.5t15.5 30.5q9 9 13 12q8 6 15 9t12 5h3q2 0 3 0.5t3 0.5q4 0 10.5 -1t13 -1.5t12 -1.5t7.5 -2q4 -1 7.5 -2t0.5 -5q-2 -4 -4 -4q-1 -1 -2 0z" />
    <glyph glyph-name="fl" unicode="&#xfb02;" horiz-adv-x="197" 
d="M217 158q-5 -6 -6 -6.5t-7 -8.5q-21 -26 -36 -44.5t-27 -36.5q-2 -2 -4 -6q-4 -8 -5 -12q-1 -3 1 -2t12 12t21 22l20 20l21 21l6 4q6 4 11 0t1 -9.5t-6 -7.5q-26 -26 -46 -47q-18 -18 -33.5 -34t-18.5 -19q-7 -9 -14 -10q-4 0 -7 3q-1 0 -1.5 0.5t-1.5 0.5
q-10 8 -10.5 19.5t2.5 24.5q2 1 2 2q7 23 14 36.5t9 16.5l1 1l10 15q4 7 7 11t5.5 7.5t5 7.5t7.5 11q4 2 4 5l2 2q6 9 13.5 18.5t15.5 18.5q4 6 6 8l3 3l1 1q17 20 32.5 37.5t27.5 32.5q10 13 21 25q9 11 21 23.5t23 25.5q3 4 6.5 8t6.5 8l24 30q1 2 2 6q2 8 0 12
q-1 0 -1 2.5t2 4.5q1 0 2 1q4 0 6 -1q6 -8 16 -16q5 -4 11 -9l2 -4q2 -4 2 -10l-1 -1q0 -2 -0.5 -4t-0.5 -4q0 -1 -0.5 -1.5t-0.5 -1.5q-3 -8 -15 -22q-1 -3 -3.5 -6t-5.5 -7q-5 -4 -9 -9v-1q-20 -20 -43.5 -47t-46.5 -53q-5 -6 -9.5 -11.5t-9.5 -11.5q-2 -2 -12.5 -14
t-24.5 -30zM-95 -95q-10 13 -6 39q4 23 23 61.5t68 98.5q14 18 29 36.5t30 35.5q-9 3 -16 8t-4 16q0 2 3 2q5 0 14.5 -1t23.5 -1q54 61 98.5 110.5t64.5 78.5q-46 -10 -94 -25t-84 -20q-27 -3 -43.5 -1t-24.5 7q-10 4 -13 12q-4 12 -7 23q-2 9 -4 16.5t-2 9.5q1 5 2 8.5
t5 4.5q2 0 4 -2l1 -1q4 -6 13 -10.5t18 -7.5q11 -4 23 -6q26 -4 60.5 -2.5t70 5.5t67 9.5t51.5 11.5q5 0 7 -2q2 -4 5.5 -12t1.5 -19q-1 -5 -6 -13q-3 -4 -17 -19.5t-35 -39t-47 -52.5t-54 -61q20 3 34 11h1q2 0 2 -2q0 -3 -2.5 -8t-8.5 -10.5t-16.5 -10t-28.5 -7.5
q3 -9 3 -25.5t-13 -50.5q-11 -26 -37 -63t-57 -69.5t-59.5 -52t-43.5 -10.5zM90 155q-23 -27 -44.5 -54t-39.5 -51t-31.5 -44.5t-20.5 -35.5q-5 -9 -7 -16q-2 -6 -2 -10.5t5 -2.5q4 1 17 13t29.5 30t34.5 40.5t32 46t22 45.5t5 39z" />
    </font>
</defs>
</svg>
